G04*
G04 #@! TF.GenerationSoftware,Altium Limited,Altium Designer Develop,26.2.0 (10)*
G04*
G04 Layer_Physical_Order=2*
G04 Layer_Color=16711680*
%FSLAX44Y44*%
%MOMM*%
G71*
G04*
G04 #@! TF.SameCoordinates,717AC42B-03D0-4F6F-A9B9-6B288F40F31D*
G04*
G04*
G04 #@! TF.FilePolarity,Positive*
G04*
G01*
G75*
%ADD10C,0.6000*%
%ADD38C,1.5500*%
%ADD40R,1.5500X1.5500*%
%ADD41C,0.6500*%
G04:AMPARAMS|DCode=42|XSize=1mm|YSize=2.1mm|CornerRadius=0.5mm|HoleSize=0mm|Usage=FLASHONLY|Rotation=270.000|XOffset=0mm|YOffset=0mm|HoleType=Round|Shape=RoundedRectangle|*
%AMROUNDEDRECTD42*
21,1,1.0000,1.1000,0,0,270.0*
21,1,0.0000,2.1000,0,0,270.0*
1,1,1.0000,-0.5500,0.0000*
1,1,1.0000,-0.5500,0.0000*
1,1,1.0000,0.5500,0.0000*
1,1,1.0000,0.5500,0.0000*
%
%ADD42ROUNDEDRECTD42*%
G04:AMPARAMS|DCode=43|XSize=1mm|YSize=1.8mm|CornerRadius=0.5mm|HoleSize=0mm|Usage=FLASHONLY|Rotation=270.000|XOffset=0mm|YOffset=0mm|HoleType=Round|Shape=RoundedRectangle|*
%AMROUNDEDRECTD43*
21,1,1.0000,0.8000,0,0,270.0*
21,1,0.0000,1.8000,0,0,270.0*
1,1,1.0000,-0.4000,0.0000*
1,1,1.0000,-0.4000,0.0000*
1,1,1.0000,0.4000,0.0000*
1,1,1.0000,0.4000,0.0000*
%
%ADD43ROUNDEDRECTD43*%
%ADD45C,0.2540*%
%ADD46C,0.8000*%
%ADD47C,1.6000*%
G04:AMPARAMS|DCode=48|XSize=1.3mm|YSize=1.3mm|CornerRadius=0.325mm|HoleSize=0mm|Usage=FLASHONLY|Rotation=0.000|XOffset=0mm|YOffset=0mm|HoleType=Round|Shape=RoundedRectangle|*
%AMROUNDEDRECTD48*
21,1,1.3000,0.6500,0,0,0.0*
21,1,0.6500,1.3000,0,0,0.0*
1,1,0.6500,0.3250,-0.3250*
1,1,0.6500,-0.3250,-0.3250*
1,1,0.6500,-0.3250,0.3250*
1,1,0.6500,0.3250,0.3250*
%
%ADD48ROUNDEDRECTD48*%
%ADD49C,1.3000*%
%ADD50C,1.2700*%
G36*
X1225000Y1010000D02*
X1226477Y1010000D01*
X1229375Y1009424D01*
X1232105Y1008293D01*
X1234562Y1006651D01*
X1236651Y1004562D01*
X1238293Y1002105D01*
X1239424Y999375D01*
X1239924Y996857D01*
X1240000Y995002D01*
Y995000D01*
X1240000Y995000D01*
X1240000Y995000D01*
X1240000Y540000D01*
X1240000Y538523D01*
X1239424Y535625D01*
X1238293Y532895D01*
X1236651Y530438D01*
X1234562Y528349D01*
X1232105Y526707D01*
X1229375Y525576D01*
X1226960Y525096D01*
X1225000Y525000D01*
X1225000Y525000D01*
X1225000Y525000D01*
X695000D01*
X693030Y525000D01*
X689166Y525769D01*
X685526Y527276D01*
X682251Y529465D01*
X679465Y532251D01*
X677276Y535526D01*
X675769Y539166D01*
X675000Y543030D01*
X675000Y545000D01*
X675000Y545000D01*
Y989945D01*
Y991921D01*
X675771Y995795D01*
X677282Y999445D01*
X679477Y1002729D01*
X682271Y1005523D01*
X685555Y1007718D01*
X689205Y1009229D01*
X693079Y1010000D01*
X695054D01*
Y1010000D01*
X1225000Y1010000D01*
D02*
G37*
%LPC*%
G36*
X950968Y997350D02*
X949032D01*
X947163Y996849D01*
X945487Y995882D01*
X944118Y994513D01*
X943151Y992837D01*
X943011Y992315D01*
X726488D01*
X725602Y992138D01*
X724851Y991637D01*
X723363Y990149D01*
X722862Y989398D01*
X722685Y988512D01*
Y951488D01*
X722862Y950602D01*
X723363Y949851D01*
X724851Y948363D01*
X725602Y947862D01*
X726488Y947685D01*
X773400D01*
X774286Y947862D01*
X775037Y948363D01*
X783887Y957214D01*
X784926Y956613D01*
X787215Y956000D01*
X789585D01*
X791874Y956613D01*
X793926Y957798D01*
X795602Y959474D01*
X796787Y961526D01*
X797400Y963815D01*
Y966185D01*
X796787Y968474D01*
X795602Y970526D01*
X793926Y972202D01*
X791874Y973387D01*
X789585Y974000D01*
X787215D01*
X784926Y973387D01*
X782874Y972202D01*
X781198Y970526D01*
X780013Y968474D01*
X779400Y966185D01*
Y963815D01*
X780013Y961526D01*
X780613Y960487D01*
X772441Y952315D01*
X727447D01*
X727315Y952447D01*
Y960305D01*
X727569Y960456D01*
X730231Y959764D01*
X730398Y959474D01*
X732074Y957798D01*
X734126Y956613D01*
X736415Y956000D01*
X738785D01*
X741074Y956613D01*
X743126Y957798D01*
X744802Y959474D01*
X745987Y961526D01*
X746600Y963815D01*
Y966185D01*
X745987Y968474D01*
X745387Y969513D01*
X753559Y977685D01*
X856660D01*
X857488Y975686D01*
X850051Y968249D01*
X847647D01*
X847587Y968474D01*
X846402Y970526D01*
X844726Y972202D01*
X842674Y973387D01*
X840385Y974000D01*
X838015D01*
X835726Y973387D01*
X833674Y972202D01*
X831998Y970526D01*
X830813Y968474D01*
X830200Y966185D01*
Y963815D01*
X830813Y961526D01*
X831998Y959474D01*
X833674Y957798D01*
X835726Y956613D01*
X838015Y956000D01*
X840385D01*
X842674Y956613D01*
X844726Y957798D01*
X846402Y959474D01*
X847587Y961526D01*
X848148Y963620D01*
X851010D01*
X851896Y963796D01*
X852647Y964297D01*
X853600Y965251D01*
X855600Y964422D01*
Y963815D01*
X856213Y961526D01*
X857398Y959474D01*
X859074Y957798D01*
X861126Y956613D01*
X863415Y956000D01*
X865785D01*
X868074Y956613D01*
X870126Y957798D01*
X871802Y959474D01*
X872987Y961526D01*
X873600Y963815D01*
Y966185D01*
X872987Y968474D01*
X871802Y970526D01*
X871372Y970956D01*
X872201Y972955D01*
X880464D01*
X881268Y970956D01*
X880178Y969068D01*
X879460Y966388D01*
Y966270D01*
X890000D01*
X900540D01*
Y966388D01*
X899822Y969068D01*
X898732Y970956D01*
X899536Y972955D01*
X907799D01*
X908628Y970956D01*
X908198Y970526D01*
X907013Y968474D01*
X906400Y966185D01*
Y963815D01*
X907013Y961526D01*
X908198Y959474D01*
X909874Y957798D01*
X910302Y957551D01*
Y887979D01*
X902421Y880098D01*
X825000D01*
X823049Y879710D01*
X821395Y878605D01*
X761395Y818605D01*
X760290Y816951D01*
X759902Y815000D01*
Y800296D01*
X759118Y799513D01*
X758151Y797837D01*
X757650Y795968D01*
Y794032D01*
X758151Y792163D01*
X758342Y791832D01*
X756742Y790604D01*
X719462Y827884D01*
X718139Y828768D01*
X716578Y829078D01*
X716578Y829078D01*
X701132D01*
X700882Y829513D01*
X699513Y830882D01*
X697837Y831849D01*
X695968Y832350D01*
X694032D01*
X692163Y831849D01*
X690487Y830882D01*
X689118Y829513D01*
X688151Y827837D01*
X687650Y825968D01*
Y824032D01*
X688151Y822163D01*
X689118Y820487D01*
X690487Y819118D01*
X692163Y818151D01*
X694032Y817650D01*
X695968D01*
X697837Y818151D01*
X699513Y819118D01*
X700882Y820487D01*
X701132Y820922D01*
X714889D01*
X734493Y801318D01*
X733664Y799317D01*
X724650D01*
X722309Y798852D01*
X720324Y797526D01*
X718998Y795541D01*
X718532Y793200D01*
X718998Y790859D01*
X720324Y788874D01*
X722309Y787548D01*
X724650Y787082D01*
X735650D01*
X737991Y787548D01*
X739976Y788874D01*
X741302Y790859D01*
X741438Y791544D01*
X743608Y792202D01*
X750922Y784889D01*
Y776132D01*
X750487Y775882D01*
X749118Y774513D01*
X748151Y772837D01*
X747650Y770968D01*
Y769032D01*
X748151Y767163D01*
X749118Y765487D01*
X750487Y764118D01*
X752163Y763151D01*
X754032Y762650D01*
X755968D01*
X757837Y763151D01*
X759513Y764118D01*
X760882Y765487D01*
X761849Y767163D01*
X762350Y769032D01*
Y770968D01*
X761849Y772837D01*
X760882Y774513D01*
X759513Y775882D01*
X759078Y776132D01*
Y786578D01*
X759078Y786578D01*
X758800Y787977D01*
X758890Y788093D01*
X760487Y789118D01*
X762163Y788151D01*
X764032Y787650D01*
X765968D01*
X767837Y788151D01*
X769513Y789118D01*
X770882Y790487D01*
X771849Y792163D01*
X772350Y794032D01*
Y795968D01*
X771849Y797837D01*
X770882Y799513D01*
X770098Y800296D01*
Y812888D01*
X827112Y869902D01*
X902200D01*
X903029Y867902D01*
X898363Y863237D01*
X897862Y862486D01*
X897685Y861600D01*
Y764919D01*
X897862Y764033D01*
X898363Y763282D01*
X973287Y688359D01*
X973017Y687890D01*
X972516Y686021D01*
Y684085D01*
X973017Y682216D01*
X973985Y680540D01*
X975353Y679172D01*
X977029Y678204D01*
X978898Y677703D01*
X980834D01*
X982703Y678204D01*
X983325Y678563D01*
X985564Y677741D01*
X985612Y677682D01*
X985751Y677163D01*
X986719Y675487D01*
X988087Y674118D01*
X989763Y673151D01*
X991632Y672650D01*
X993568D01*
X995437Y673151D01*
X995906Y673421D01*
X1022283Y647043D01*
X1023034Y646542D01*
X1023920Y646366D01*
X1101926D01*
X1102811Y646542D01*
X1103562Y647043D01*
X1123004Y666486D01*
X1185155D01*
X1186000Y665385D01*
Y663015D01*
X1186613Y660726D01*
X1187798Y658674D01*
X1189474Y656998D01*
X1191526Y655813D01*
X1193815Y655200D01*
X1196185D01*
X1198474Y655813D01*
X1200526Y656998D01*
X1202202Y658674D01*
X1203387Y660726D01*
X1204000Y663015D01*
Y665385D01*
X1203387Y667674D01*
X1202202Y669726D01*
X1200526Y671402D01*
X1198474Y672587D01*
X1196185Y673200D01*
X1193815D01*
X1191526Y672587D01*
X1189474Y671402D01*
X1189187Y671115D01*
X1122046D01*
X1121160Y670938D01*
X1120409Y670437D01*
X1102335Y652362D01*
X1102322Y652365D01*
X1101664Y654535D01*
X1139014Y691886D01*
X1185155D01*
X1186000Y690785D01*
Y688415D01*
X1186613Y686126D01*
X1187798Y684074D01*
X1189474Y682398D01*
X1191526Y681213D01*
X1193815Y680600D01*
X1196185D01*
X1198474Y681213D01*
X1200526Y682398D01*
X1202202Y684074D01*
X1203387Y686126D01*
X1204000Y688415D01*
Y690785D01*
X1203387Y693074D01*
X1202202Y695126D01*
X1200526Y696802D01*
X1198474Y697987D01*
X1196185Y698600D01*
X1193815D01*
X1191526Y697987D01*
X1189474Y696802D01*
X1189187Y696515D01*
X1138056D01*
X1137651Y696434D01*
X1136505Y698117D01*
X1155674Y717286D01*
X1185155D01*
X1186000Y716185D01*
Y713815D01*
X1186613Y711526D01*
X1187798Y709474D01*
X1189474Y707798D01*
X1191526Y706613D01*
X1193815Y706000D01*
X1196185D01*
X1198474Y706613D01*
X1200526Y707798D01*
X1202202Y709474D01*
X1203387Y711526D01*
X1204000Y713815D01*
Y716185D01*
X1203387Y718474D01*
X1202202Y720526D01*
X1200526Y722202D01*
X1198474Y723387D01*
X1196185Y724000D01*
X1193815D01*
X1191526Y723387D01*
X1189474Y722202D01*
X1189187Y721915D01*
X1157407D01*
X1156642Y723762D01*
X1175565Y742685D01*
X1185155D01*
X1186000Y741585D01*
Y739215D01*
X1186613Y736926D01*
X1187798Y734874D01*
X1189474Y733198D01*
X1191526Y732013D01*
X1193815Y731400D01*
X1196185D01*
X1198474Y732013D01*
X1200526Y733198D01*
X1202202Y734874D01*
X1203387Y736926D01*
X1204000Y739215D01*
Y741585D01*
X1203387Y743874D01*
X1202202Y745926D01*
X1200526Y747602D01*
X1198474Y748787D01*
X1196185Y749400D01*
X1193815D01*
X1191526Y748787D01*
X1189474Y747602D01*
X1189187Y747315D01*
X1177801D01*
X1177035Y749162D01*
X1187973Y760099D01*
X1189474Y758598D01*
X1191526Y757413D01*
X1193815Y756800D01*
X1196185D01*
X1198474Y757413D01*
X1200526Y758598D01*
X1202202Y760274D01*
X1203387Y762326D01*
X1204000Y764615D01*
Y766985D01*
X1203387Y769274D01*
X1202202Y771326D01*
X1200526Y773002D01*
X1198474Y774187D01*
X1196185Y774800D01*
X1193815D01*
X1191526Y774187D01*
X1189474Y773002D01*
X1187798Y771326D01*
X1186613Y769274D01*
X1186000Y766985D01*
Y764673D01*
X1086481Y665154D01*
X1073231D01*
X1072466Y667002D01*
X1189468Y784004D01*
X1189474Y783998D01*
X1191526Y782813D01*
X1193815Y782200D01*
X1196185D01*
X1198474Y782813D01*
X1200526Y783998D01*
X1202202Y785674D01*
X1203387Y787726D01*
X1204000Y790015D01*
Y792385D01*
X1203387Y794674D01*
X1202202Y796726D01*
X1200526Y798402D01*
X1198474Y799587D01*
X1196185Y800200D01*
X1193815D01*
X1191526Y799587D01*
X1189474Y798402D01*
X1187798Y796726D01*
X1186613Y794674D01*
X1186000Y792385D01*
Y790015D01*
X1186613Y787726D01*
X1186624Y787707D01*
X1074350Y675433D01*
X1073046Y675781D01*
X1072288Y676199D01*
X1071849Y677837D01*
X1071579Y678306D01*
X1081637Y688363D01*
X1082138Y689114D01*
X1082315Y690000D01*
Y708011D01*
X1082837Y708151D01*
X1084513Y709118D01*
X1085882Y710487D01*
X1086849Y712163D01*
X1087350Y714032D01*
Y714045D01*
X1090160D01*
X1091046Y714222D01*
X1091797Y714723D01*
X1187973Y810900D01*
X1189474Y809398D01*
X1191526Y808213D01*
X1193815Y807600D01*
X1196185D01*
X1198474Y808213D01*
X1200526Y809398D01*
X1202202Y811074D01*
X1203387Y813126D01*
X1204000Y815415D01*
Y817785D01*
X1203387Y820074D01*
X1202202Y822126D01*
X1200526Y823802D01*
X1198474Y824987D01*
X1196185Y825600D01*
X1193815D01*
X1191526Y824987D01*
X1189474Y823802D01*
X1187798Y822126D01*
X1186613Y820074D01*
X1186000Y817785D01*
Y815473D01*
X1089201Y718674D01*
X1086366D01*
X1085882Y719513D01*
X1084513Y720882D01*
X1082837Y721849D01*
X1080968Y722350D01*
X1079032D01*
X1077163Y721849D01*
X1075487Y720882D01*
X1074118Y719513D01*
X1073151Y717837D01*
X1072650Y715968D01*
Y714032D01*
X1073151Y712163D01*
X1074118Y710487D01*
X1075487Y709118D01*
X1077163Y708151D01*
X1077685Y708011D01*
Y690959D01*
X1068306Y681579D01*
X1067837Y681849D01*
X1065968Y682350D01*
X1064032D01*
X1062163Y681849D01*
X1060695Y681001D01*
X1059863Y681242D01*
X1058695Y681917D01*
Y685421D01*
X1061694Y688421D01*
X1062163Y688151D01*
X1064032Y687650D01*
X1065968D01*
X1067837Y688151D01*
X1069513Y689118D01*
X1070882Y690487D01*
X1071849Y692163D01*
X1072350Y694032D01*
Y695968D01*
X1071849Y697837D01*
X1070882Y699513D01*
X1069513Y700882D01*
X1067837Y701849D01*
X1065968Y702350D01*
X1064032D01*
X1062163Y701849D01*
X1060487Y700882D01*
X1059118Y699513D01*
X1058151Y697837D01*
X1057650Y695968D01*
Y694032D01*
X1058151Y692163D01*
X1058421Y691694D01*
X1054743Y688017D01*
X1054242Y687266D01*
X1054065Y686380D01*
Y674624D01*
X1052218Y673859D01*
X1047315Y678762D01*
Y683011D01*
X1047837Y683151D01*
X1049513Y684118D01*
X1050882Y685487D01*
X1051849Y687163D01*
X1052350Y689032D01*
Y690968D01*
X1051849Y692837D01*
X1050882Y694513D01*
X1049513Y695882D01*
X1047837Y696849D01*
X1045968Y697350D01*
X1044032D01*
X1042163Y696849D01*
X1040487Y695882D01*
X1039118Y694513D01*
X1038151Y692837D01*
X1037650Y690968D01*
Y689032D01*
X1037668Y688965D01*
X1036035Y687332D01*
X1035968Y687350D01*
X1034032D01*
X1032163Y686849D01*
X1030487Y685882D01*
X1029118Y684513D01*
X1028608Y683630D01*
X1026392D01*
X1025882Y684513D01*
X1024513Y685882D01*
X1022837Y686849D01*
X1020968Y687350D01*
X1019032D01*
X1017163Y686849D01*
X1015487Y685882D01*
X1014355Y684749D01*
X1013150Y684618D01*
X1011945Y684749D01*
X1010813Y685882D01*
X1009137Y686849D01*
X1007268Y687350D01*
X1005332D01*
X1003463Y686849D01*
X1001787Y685882D01*
X1000655Y684749D01*
X999450Y684618D01*
X998245Y684749D01*
X997113Y685882D01*
X995437Y686849D01*
X993568Y687350D01*
X991632D01*
X989763Y686849D01*
X989141Y686490D01*
X986902Y687313D01*
X986854Y687371D01*
X986715Y687890D01*
X985747Y689566D01*
X984664Y690650D01*
X984898Y691813D01*
X985392Y692650D01*
X985968D01*
X987837Y693151D01*
X989513Y694118D01*
X990882Y695487D01*
X991849Y697163D01*
X992350Y699032D01*
Y700968D01*
X991849Y702837D01*
X990882Y704513D01*
X989513Y705882D01*
X987837Y706849D01*
X985995Y707343D01*
X985892Y707528D01*
X985441Y708588D01*
X985351Y709350D01*
X986555Y710553D01*
X987523Y712229D01*
X988023Y714099D01*
Y716034D01*
X987523Y717903D01*
X987252Y718372D01*
X1006637Y737756D01*
X1007138Y738507D01*
X1007315Y739393D01*
Y768011D01*
X1007837Y768151D01*
X1009513Y769118D01*
X1010882Y770487D01*
X1011211Y771057D01*
X1011774Y771198D01*
X1013476Y770980D01*
X1014118Y769867D01*
X1015487Y768499D01*
X1017163Y767531D01*
X1017685Y767391D01*
Y749664D01*
X1017163Y749524D01*
X1015487Y748556D01*
X1014118Y747188D01*
X1013151Y745511D01*
X1012650Y743642D01*
Y741707D01*
X1013151Y739837D01*
X1014118Y738161D01*
X1015487Y736793D01*
X1017163Y735825D01*
X1019032Y735324D01*
X1020968D01*
X1022837Y735825D01*
X1024513Y736793D01*
X1025882Y738161D01*
X1026849Y739837D01*
X1027350Y741707D01*
Y743642D01*
X1026849Y745511D01*
X1025882Y747188D01*
X1024513Y748556D01*
X1022837Y749524D01*
X1022315Y749664D01*
Y767391D01*
X1022837Y767531D01*
X1024513Y768499D01*
X1025882Y769867D01*
X1026849Y771543D01*
X1027155Y772685D01*
X1123400D01*
X1124286Y772862D01*
X1125037Y773363D01*
X1187973Y836300D01*
X1189474Y834798D01*
X1191526Y833613D01*
X1193815Y833000D01*
X1196185D01*
X1198474Y833613D01*
X1200526Y834798D01*
X1202202Y836474D01*
X1203387Y838526D01*
X1204000Y840815D01*
Y843185D01*
X1203387Y845474D01*
X1202202Y847526D01*
X1200526Y849202D01*
X1198474Y850387D01*
X1196185Y851000D01*
X1193815D01*
X1191526Y850387D01*
X1189474Y849202D01*
X1187798Y847526D01*
X1186613Y845474D01*
X1186000Y843185D01*
Y840873D01*
X1122441Y777315D01*
X1026793D01*
X1025882Y778893D01*
X1024513Y780262D01*
X1022837Y781229D01*
X1022315Y781369D01*
Y785000D01*
X1022138Y785886D01*
X1021637Y786637D01*
X1012588Y795686D01*
X1013416Y797685D01*
X1063011D01*
X1063151Y797163D01*
X1064118Y795487D01*
X1065487Y794118D01*
X1067163Y793151D01*
X1069032Y792650D01*
X1070968D01*
X1072837Y793151D01*
X1074513Y794118D01*
X1075882Y795487D01*
X1076849Y797163D01*
X1077350Y799032D01*
Y800968D01*
X1076849Y802837D01*
X1075882Y804513D01*
X1074513Y805882D01*
X1072837Y806849D01*
X1070968Y807350D01*
X1069032D01*
X1067163Y806849D01*
X1065487Y805882D01*
X1064118Y804513D01*
X1063151Y802837D01*
X1063011Y802315D01*
X998508D01*
X990309Y810514D01*
X990657Y811817D01*
X991075Y812576D01*
X992713Y813015D01*
X994389Y813982D01*
X995758Y815351D01*
X996725Y817027D01*
X997226Y818896D01*
Y820831D01*
X997485Y821356D01*
X998809Y822650D01*
X1000060D01*
X1001930Y823151D01*
X1003606Y824118D01*
X1004974Y825487D01*
X1005090Y825688D01*
X1005413Y825856D01*
X1007543Y825936D01*
X1008233Y825245D01*
X1009909Y824278D01*
X1011779Y823777D01*
X1013714D01*
X1015583Y824278D01*
X1015650Y824316D01*
X1016154Y824245D01*
X1017852Y823278D01*
X1018151Y822163D01*
X1019118Y820487D01*
X1020487Y819118D01*
X1022163Y818151D01*
X1024032Y817650D01*
X1025968D01*
X1027837Y818151D01*
X1029513Y819118D01*
X1030882Y820487D01*
X1031849Y822163D01*
X1032350Y824032D01*
Y824630D01*
X1034422D01*
X1035307Y824806D01*
X1036058Y825307D01*
X1170861Y960110D01*
X1173631D01*
X1173998Y959474D01*
X1175674Y957798D01*
X1177726Y956613D01*
X1180015Y956000D01*
X1182385D01*
X1184674Y956613D01*
X1186726Y957798D01*
X1188402Y959474D01*
X1189587Y961526D01*
X1190200Y963815D01*
Y964422D01*
X1192200Y965251D01*
X1197685Y959765D01*
Y945965D01*
X1194035Y942315D01*
X1165000D01*
X1164114Y942138D01*
X1163363Y941637D01*
X1073306Y851579D01*
X1072837Y851849D01*
X1070968Y852350D01*
X1069032D01*
X1067163Y851849D01*
X1065487Y850882D01*
X1064118Y849513D01*
X1063151Y847837D01*
X1062650Y845968D01*
Y844032D01*
X1063151Y842163D01*
X1064118Y840487D01*
X1065487Y839118D01*
X1067163Y838151D01*
X1069032Y837650D01*
X1070968D01*
X1072837Y838151D01*
X1074513Y839118D01*
X1075882Y840487D01*
X1076849Y842163D01*
X1077350Y844032D01*
Y845968D01*
X1076849Y847837D01*
X1076579Y848306D01*
X1165959Y937685D01*
X1191799D01*
X1192565Y935838D01*
X1083306Y826579D01*
X1082837Y826849D01*
X1080968Y827350D01*
X1079032D01*
X1077163Y826849D01*
X1075487Y825882D01*
X1074118Y824513D01*
X1073151Y822837D01*
X1072650Y820968D01*
Y819032D01*
X1073151Y817163D01*
X1074118Y815487D01*
X1075487Y814118D01*
X1077163Y813151D01*
X1079032Y812650D01*
X1080968D01*
X1082837Y813151D01*
X1084513Y814118D01*
X1085882Y815487D01*
X1086849Y817163D01*
X1087350Y819032D01*
Y820968D01*
X1086849Y822837D01*
X1086579Y823306D01*
X1206637Y943363D01*
X1207138Y944114D01*
X1207315Y945000D01*
Y978512D01*
X1207138Y979398D01*
X1206637Y980149D01*
X1200149Y986637D01*
X1199398Y987138D01*
X1198512Y987315D01*
X985000D01*
X984114Y987138D01*
X983363Y986637D01*
X963965Y967238D01*
X930959D01*
X927100Y971097D01*
X928135Y972890D01*
X929032Y972650D01*
X930968D01*
X932837Y973151D01*
X934513Y974118D01*
X935882Y975487D01*
X936849Y977163D01*
X937350Y979032D01*
Y980968D01*
X936849Y982837D01*
X935882Y984513D01*
X934709Y985686D01*
X934825Y986525D01*
X935388Y987685D01*
X943011D01*
X943151Y987163D01*
X944118Y985487D01*
X945487Y984118D01*
X947163Y983151D01*
X949032Y982650D01*
X950968D01*
X952837Y983151D01*
X954513Y984118D01*
X955882Y985487D01*
X956849Y987163D01*
X957350Y989032D01*
Y990968D01*
X956849Y992837D01*
X955882Y994513D01*
X954513Y995882D01*
X952837Y996849D01*
X950968Y997350D01*
D02*
G37*
G36*
X764185Y974000D02*
X761815D01*
X759526Y973387D01*
X757474Y972202D01*
X755798Y970526D01*
X754613Y968474D01*
X754000Y966185D01*
Y963815D01*
X754613Y961526D01*
X755798Y959474D01*
X757474Y957798D01*
X759526Y956613D01*
X761815Y956000D01*
X764185D01*
X766474Y956613D01*
X768526Y957798D01*
X770202Y959474D01*
X771387Y961526D01*
X772000Y963815D01*
Y966185D01*
X771387Y968474D01*
X770202Y970526D01*
X768526Y972202D01*
X766474Y973387D01*
X764185Y974000D01*
D02*
G37*
G36*
X900540Y963730D02*
X891270D01*
Y954460D01*
X891388D01*
X894068Y955178D01*
X896472Y956566D01*
X898434Y958528D01*
X899822Y960932D01*
X900540Y963612D01*
Y963730D01*
D02*
G37*
G36*
X888730D02*
X879460D01*
Y963612D01*
X880178Y960932D01*
X881566Y958528D01*
X883528Y956566D01*
X885932Y955178D01*
X888612Y954460D01*
X888730D01*
Y963730D01*
D02*
G37*
G36*
X878855Y927790D02*
X878770D01*
Y918770D01*
X887790D01*
Y918855D01*
X887089Y921472D01*
X885734Y923818D01*
X883818Y925734D01*
X881472Y927089D01*
X878855Y927790D01*
D02*
G37*
G36*
X833855D02*
X833770D01*
Y918770D01*
X842790D01*
Y918855D01*
X842089Y921472D01*
X840734Y923818D01*
X838818Y925734D01*
X836472Y927089D01*
X833855Y927790D01*
D02*
G37*
G36*
X876230D02*
X876145D01*
X873528Y927089D01*
X871182Y925734D01*
X869266Y923818D01*
X867911Y921472D01*
X867210Y918855D01*
Y918770D01*
X876230D01*
Y927790D01*
D02*
G37*
G36*
X831230D02*
X831145D01*
X828528Y927089D01*
X826182Y925734D01*
X824266Y923818D01*
X822911Y921472D01*
X822210Y918855D01*
Y918770D01*
X831230D01*
Y927790D01*
D02*
G37*
G36*
X814985Y974000D02*
X812615D01*
X810326Y973387D01*
X808274Y972202D01*
X806598Y970526D01*
X805413Y968474D01*
X804800Y966185D01*
Y963815D01*
X805413Y961526D01*
X806598Y959474D01*
X808274Y957798D01*
X810326Y956613D01*
X812615Y956000D01*
X814985D01*
X817274Y956613D01*
X818313Y957214D01*
X832479Y943048D01*
X833230Y942546D01*
X834116Y942370D01*
X879357D01*
X893421Y928306D01*
X893151Y927837D01*
X892650Y925968D01*
Y924032D01*
X893151Y922163D01*
X894118Y920487D01*
X895487Y919118D01*
X897163Y918151D01*
X899032Y917650D01*
X900968D01*
X902837Y918151D01*
X904513Y919118D01*
X905882Y920487D01*
X906849Y922163D01*
X907350Y924032D01*
Y925968D01*
X906849Y927837D01*
X905882Y929513D01*
X904513Y930882D01*
X902837Y931849D01*
X900968Y932350D01*
X899032D01*
X897163Y931849D01*
X896694Y931579D01*
X881952Y946321D01*
X881201Y946823D01*
X880316Y946999D01*
X835074D01*
X821587Y960487D01*
X822187Y961526D01*
X822800Y963815D01*
Y966185D01*
X822187Y968474D01*
X821002Y970526D01*
X819326Y972202D01*
X817274Y973387D01*
X814985Y974000D01*
D02*
G37*
G36*
X887790Y916230D02*
X878770D01*
Y907210D01*
X878855D01*
X881472Y907911D01*
X883818Y909266D01*
X885734Y911182D01*
X887089Y913528D01*
X887790Y916145D01*
Y916230D01*
D02*
G37*
G36*
X876230D02*
X867210D01*
Y916145D01*
X867911Y913528D01*
X869266Y911182D01*
X871182Y909266D01*
X873528Y907911D01*
X876145Y907210D01*
X876230D01*
Y916230D01*
D02*
G37*
G36*
X842790D02*
X833770D01*
Y907210D01*
X833855D01*
X836472Y907911D01*
X838818Y909266D01*
X840734Y911182D01*
X842089Y913528D01*
X842790Y916145D01*
Y916230D01*
D02*
G37*
G36*
X831230D02*
X822210D01*
Y916145D01*
X822911Y913528D01*
X824266Y911182D01*
X826182Y909266D01*
X828528Y907911D01*
X831145Y907210D01*
X831230D01*
Y916230D01*
D02*
G37*
G36*
X878652Y861250D02*
X876348D01*
X874123Y860654D01*
X872127Y859502D01*
X870498Y857873D01*
X869346Y855877D01*
X869062Y854815D01*
X841250D01*
Y861250D01*
X823750D01*
Y843750D01*
X841250D01*
Y850185D01*
X869062D01*
X869346Y849123D01*
X870498Y847127D01*
X872127Y845498D01*
X874123Y844346D01*
X876348Y843750D01*
X878652D01*
X880877Y844346D01*
X882873Y845498D01*
X884502Y847127D01*
X885654Y849123D01*
X886250Y851348D01*
Y853652D01*
X885654Y855877D01*
X884502Y857873D01*
X882873Y859502D01*
X880877Y860654D01*
X878652Y861250D01*
D02*
G37*
G36*
X692350Y799317D02*
X684350D01*
X682009Y798852D01*
X680024Y797526D01*
X678698Y795541D01*
X678232Y793200D01*
X678698Y790859D01*
X680024Y788874D01*
X682009Y787548D01*
X684350Y787082D01*
X692350D01*
X694691Y787548D01*
X696676Y788874D01*
X698002Y790859D01*
X698467Y793200D01*
X698002Y795541D01*
X696676Y797526D01*
X694691Y798852D01*
X692350Y799317D01*
D02*
G37*
G36*
X725995Y783150D02*
X724305D01*
X722742Y782503D01*
X721547Y781307D01*
X720900Y779745D01*
Y778055D01*
X721547Y776493D01*
X722742Y775297D01*
X724305Y774650D01*
X725995D01*
X727557Y775297D01*
X728753Y776493D01*
X729400Y778055D01*
Y779745D01*
X728753Y781307D01*
X727557Y782503D01*
X725995Y783150D01*
D02*
G37*
G36*
X754509Y743700D02*
X752574D01*
X750705Y743199D01*
X749029Y742232D01*
X747660Y740863D01*
X746693Y739187D01*
X746192Y737318D01*
Y735382D01*
X746693Y733513D01*
X747660Y731837D01*
X749029Y730469D01*
X750705Y729501D01*
X752574Y729000D01*
X754509D01*
X756379Y729501D01*
X756916Y729811D01*
X779743Y706983D01*
X780494Y706482D01*
X781380Y706305D01*
X793083D01*
X793758Y705137D01*
X793999Y704305D01*
X793151Y702837D01*
X792650Y700968D01*
Y699032D01*
X793151Y697163D01*
X794118Y695487D01*
X794902Y694704D01*
Y675296D01*
X794118Y674513D01*
X793151Y672837D01*
X792650Y670968D01*
Y669032D01*
X793151Y667163D01*
X794118Y665487D01*
X795487Y664118D01*
X797163Y663151D01*
X799032Y662650D01*
X800968D01*
X802837Y663151D01*
X804513Y664118D01*
X805882Y665487D01*
X806849Y667163D01*
X807350Y669032D01*
Y670968D01*
X806849Y672837D01*
X805882Y674513D01*
X805098Y675296D01*
Y694704D01*
X805882Y695487D01*
X806849Y697163D01*
X807288Y698801D01*
X808046Y699219D01*
X809350Y699567D01*
X822686Y686232D01*
Y637809D01*
X822862Y636924D01*
X823363Y636173D01*
X844793Y614743D01*
X845544Y614242D01*
X846430Y614066D01*
X1006380D01*
X1007266Y614242D01*
X1008017Y614743D01*
X1011637Y618363D01*
X1012138Y619114D01*
X1012315Y620000D01*
X1012138Y620886D01*
X1011637Y621637D01*
X1010886Y622138D01*
X1010000Y622314D01*
X1009114Y622138D01*
X1008363Y621637D01*
X1005421Y618694D01*
X856917D01*
X856242Y619863D01*
X856001Y620695D01*
X856849Y622163D01*
X857350Y624032D01*
Y625968D01*
X856849Y627837D01*
X855882Y629513D01*
X854513Y630882D01*
X853630Y631391D01*
Y633609D01*
X854513Y634118D01*
X855882Y635487D01*
X856849Y637163D01*
X857350Y639032D01*
Y640968D01*
X856849Y642837D01*
X855882Y644513D01*
X854513Y645882D01*
X852837Y646849D01*
X852315Y646989D01*
Y719041D01*
X855959Y722685D01*
X878011D01*
X878151Y722163D01*
X879118Y720487D01*
X880487Y719118D01*
X882163Y718151D01*
X884032Y717650D01*
X885968D01*
X887837Y718151D01*
X889513Y719118D01*
X890882Y720487D01*
X891849Y722163D01*
X892350Y724032D01*
Y725968D01*
X891849Y727837D01*
X890882Y729513D01*
X889513Y730882D01*
X887837Y731849D01*
X885968Y732350D01*
X884032D01*
X882163Y731849D01*
X880487Y730882D01*
X879118Y729513D01*
X878151Y727837D01*
X878011Y727315D01*
X855000D01*
X854114Y727138D01*
X853363Y726637D01*
X848363Y721637D01*
X847862Y720886D01*
X847685Y720000D01*
Y680388D01*
X846525Y679825D01*
X845686Y679709D01*
X844513Y680882D01*
X842837Y681849D01*
X840968Y682350D01*
X839032D01*
X837163Y681849D01*
X835487Y680882D01*
X834118Y679513D01*
X833151Y677837D01*
X832650Y675968D01*
Y674032D01*
X833151Y672163D01*
X834118Y670487D01*
X835487Y669118D01*
X837163Y668151D01*
X837685Y668011D01*
Y635000D01*
X837862Y634114D01*
X838363Y633363D01*
X843421Y628306D01*
X843151Y627837D01*
X842712Y626199D01*
X841954Y625781D01*
X840650Y625433D01*
X827315Y638768D01*
Y687190D01*
X827138Y688076D01*
X826637Y688827D01*
X805207Y710257D01*
X804456Y710758D01*
X803570Y710935D01*
X782339D01*
X760160Y733113D01*
X760391Y733513D01*
X760892Y735382D01*
Y737318D01*
X760391Y739187D01*
X759423Y740863D01*
X758055Y742232D01*
X756379Y743199D01*
X754509Y743700D01*
D02*
G37*
G36*
X725995Y725350D02*
X724305D01*
X722742Y724703D01*
X721547Y723507D01*
X720900Y721945D01*
Y720255D01*
X721547Y718693D01*
X722742Y717497D01*
X724305Y716850D01*
X725995D01*
X727557Y717497D01*
X728753Y718693D01*
X729400Y720255D01*
Y721945D01*
X728753Y723507D01*
X727557Y724703D01*
X725995Y725350D01*
D02*
G37*
G36*
X735650Y712917D02*
X724650D01*
X722309Y712452D01*
X720324Y711126D01*
X718998Y709141D01*
X718532Y706800D01*
X718998Y704459D01*
X720324Y702474D01*
X722309Y701148D01*
X724650Y700683D01*
X735650D01*
X737991Y701148D01*
X739976Y702474D01*
X741302Y704459D01*
X741768Y706800D01*
X741302Y709141D01*
X739976Y711126D01*
X737991Y712452D01*
X735650Y712917D01*
D02*
G37*
G36*
X751270Y664019D02*
Y656270D01*
X759019D01*
X758424Y658489D01*
X757234Y660551D01*
X755551Y662234D01*
X753489Y663424D01*
X751270Y664019D01*
D02*
G37*
G36*
X773250Y662583D02*
X766750D01*
X765092Y662253D01*
X763686Y661314D01*
X762747Y659908D01*
X762417Y658250D01*
Y651750D01*
X762747Y650092D01*
X763686Y648686D01*
X765092Y647747D01*
X766750Y647417D01*
X773250D01*
X774908Y647747D01*
X776314Y648686D01*
X777253Y650092D01*
X777583Y651750D01*
Y658250D01*
X777253Y659908D01*
X776314Y661314D01*
X774908Y662253D01*
X773250Y662583D01*
D02*
G37*
G36*
X958507Y645245D02*
X956572D01*
X954702Y644744D01*
X953026Y643777D01*
X951658Y642408D01*
X950690Y640732D01*
X950189Y638863D01*
Y636928D01*
X950690Y635058D01*
X951658Y633382D01*
X953026Y632014D01*
X954702Y631046D01*
X956572Y630545D01*
X958507D01*
X960376Y631046D01*
X962052Y632014D01*
X963421Y633382D01*
X964388Y635058D01*
X964528Y635581D01*
X1026146D01*
X1046449Y615278D01*
X1046125Y614069D01*
Y612134D01*
X1046626Y610264D01*
X1047594Y608588D01*
X1048962Y607220D01*
X1050638Y606252D01*
X1052507Y605751D01*
X1054443D01*
X1056312Y606252D01*
X1057988Y607220D01*
X1059357Y608588D01*
X1060324Y610264D01*
X1060825Y612134D01*
Y614069D01*
X1060324Y615938D01*
X1059357Y617614D01*
X1057988Y618983D01*
X1056312Y619950D01*
X1054443Y620451D01*
X1052507D01*
X1050638Y619950D01*
X1049170Y619103D01*
X1028741Y639532D01*
X1027990Y640034D01*
X1027105Y640210D01*
X964528D01*
X964388Y640732D01*
X963421Y642408D01*
X962052Y643777D01*
X960376Y644744D01*
X958507Y645245D01*
D02*
G37*
G36*
X695968Y742350D02*
X694032D01*
X692163Y741849D01*
X690487Y740882D01*
X689118Y739513D01*
X688151Y737837D01*
X687650Y735968D01*
Y734032D01*
X688151Y732163D01*
X689118Y730487D01*
X690487Y729118D01*
X692163Y728151D01*
X692685Y728011D01*
Y714868D01*
X692596Y714348D01*
X691059Y712917D01*
X684350D01*
X682009Y712452D01*
X680024Y711126D01*
X678698Y709141D01*
X678232Y706800D01*
X678698Y704459D01*
X680024Y702474D01*
X682009Y701148D01*
X684350Y700683D01*
X692155D01*
X692365Y700668D01*
X694065Y698985D01*
Y621217D01*
X694242Y620332D01*
X694743Y619581D01*
X760961Y553363D01*
X761712Y552862D01*
X762597Y552686D01*
X945000D01*
X945886Y552862D01*
X946637Y553363D01*
X965959Y572686D01*
X978011D01*
X978151Y572163D01*
X979118Y570487D01*
X980487Y569118D01*
X982163Y568151D01*
X984032Y567650D01*
X985968D01*
X987837Y568151D01*
X989513Y569118D01*
X990882Y570487D01*
X991849Y572163D01*
X992350Y574032D01*
Y575968D01*
X991849Y577837D01*
X990882Y579513D01*
X989513Y580882D01*
X987837Y581849D01*
X985968Y582350D01*
X984032D01*
X982163Y581849D01*
X980487Y580882D01*
X979118Y579513D01*
X978151Y577837D01*
X978011Y577314D01*
X965000D01*
X964114Y577138D01*
X963363Y576637D01*
X944041Y557314D01*
X763556D01*
X751814Y569057D01*
X752412Y571287D01*
X753489Y571576D01*
X755551Y572766D01*
X757234Y574449D01*
X758424Y576511D01*
X759019Y578730D01*
X750000D01*
Y580000D01*
X748730D01*
Y589019D01*
X746511Y588424D01*
X744449Y587234D01*
X742766Y585551D01*
X741576Y583489D01*
X741287Y582412D01*
X739057Y581814D01*
X698695Y622176D01*
Y668083D01*
X699863Y668758D01*
X700695Y668999D01*
X702163Y668151D01*
X704032Y667650D01*
X705968D01*
X707837Y668151D01*
X708306Y668421D01*
X778363Y598363D01*
X779114Y597862D01*
X780000Y597686D01*
X798011D01*
X798151Y597163D01*
X799118Y595487D01*
X800487Y594118D01*
X802163Y593151D01*
X804032Y592650D01*
X805968D01*
X807837Y593151D01*
X809513Y594118D01*
X810882Y595487D01*
X811849Y597163D01*
X812350Y599032D01*
Y600968D01*
X811849Y602837D01*
X810882Y604513D01*
X809513Y605882D01*
X808630Y606391D01*
Y608609D01*
X809513Y609118D01*
X810882Y610487D01*
X811849Y612163D01*
X812350Y614032D01*
Y615968D01*
X811849Y617837D01*
X810882Y619513D01*
X809513Y620882D01*
X807837Y621849D01*
X805968Y622350D01*
X804032D01*
X802163Y621849D01*
X800487Y620882D01*
X799118Y619513D01*
X798151Y617837D01*
X798011Y617314D01*
X778556D01*
X751814Y644057D01*
X752412Y646287D01*
X753489Y646576D01*
X755551Y647766D01*
X757234Y649449D01*
X758424Y651511D01*
X759019Y653730D01*
X750000D01*
Y655000D01*
X748730D01*
Y664019D01*
X746511Y663424D01*
X744449Y662234D01*
X742766Y660551D01*
X741576Y658489D01*
X741287Y657412D01*
X739057Y656814D01*
X725429Y670442D01*
X726524Y671537D01*
X727492Y673213D01*
X727992Y675082D01*
Y677017D01*
X727492Y678887D01*
X726524Y680563D01*
X725155Y681931D01*
X723480Y682899D01*
X721610Y683400D01*
X719675D01*
X717805Y682899D01*
X716130Y681931D01*
X714761Y680563D01*
X713793Y678887D01*
X713685Y678480D01*
X713271Y678335D01*
X711571Y678319D01*
X710882Y679513D01*
X709513Y680882D01*
X707837Y681849D01*
X705968Y682350D01*
X704032D01*
X702163Y681849D01*
X700695Y681001D01*
X699863Y681242D01*
X698695Y681917D01*
Y699590D01*
X701257Y702152D01*
X701758Y702903D01*
X701935Y703789D01*
Y709811D01*
X701758Y710697D01*
X701257Y711448D01*
X697315Y715390D01*
Y728011D01*
X697837Y728151D01*
X699513Y729118D01*
X700882Y730487D01*
X701849Y732163D01*
X702350Y734032D01*
Y735968D01*
X701849Y737837D01*
X700882Y739513D01*
X699513Y740882D01*
X697837Y741849D01*
X695968Y742350D01*
D02*
G37*
G36*
X751270Y589019D02*
Y581270D01*
X759019D01*
X758424Y583489D01*
X757234Y585551D01*
X755551Y587234D01*
X753489Y588424D01*
X751270Y589019D01*
D02*
G37*
G36*
X773250Y587583D02*
X766750D01*
X765092Y587253D01*
X763686Y586314D01*
X762747Y584908D01*
X762417Y583250D01*
Y576750D01*
X762747Y575092D01*
X763686Y573686D01*
X765092Y572747D01*
X766750Y572417D01*
X773250D01*
X774908Y572747D01*
X776314Y573686D01*
X777253Y575092D01*
X777583Y576750D01*
Y583250D01*
X777253Y584908D01*
X776314Y586314D01*
X774908Y587253D01*
X773250Y587583D01*
D02*
G37*
%LPD*%
G36*
X925175Y986525D02*
X925291Y985686D01*
X924118Y984513D01*
X923151Y982837D01*
X923011Y982315D01*
X752600D01*
X751714Y982138D01*
X750963Y981637D01*
X742113Y972786D01*
X741074Y973387D01*
X738785Y974000D01*
X736415D01*
X734126Y973387D01*
X732074Y972202D01*
X730398Y970526D01*
X730231Y970236D01*
X727569Y969544D01*
X727315Y969695D01*
Y987553D01*
X727447Y987685D01*
X924612D01*
X925175Y986525D01*
D02*
G37*
G36*
X1149028Y970956D02*
X1148598Y970526D01*
X1147413Y968474D01*
X1146800Y966185D01*
Y963815D01*
X1147413Y961526D01*
X1148598Y959474D01*
X1150274Y957798D01*
X1152326Y956613D01*
X1154615Y956000D01*
X1156985D01*
X1157519Y956143D01*
X1158555Y954350D01*
X1033463Y829258D01*
X1031028D01*
X1030882Y829513D01*
X1029513Y830882D01*
X1027837Y831849D01*
X1025968Y832350D01*
X1024032D01*
X1022163Y831849D01*
X1022096Y831811D01*
X1021592Y831882D01*
X1020078Y832744D01*
X1019636Y834743D01*
X1036357Y851465D01*
X1036397Y851480D01*
X1038785Y851064D01*
X1039118Y850487D01*
X1040487Y849118D01*
X1042163Y848151D01*
X1044032Y847650D01*
X1045968D01*
X1047837Y848151D01*
X1049513Y849118D01*
X1050882Y850487D01*
X1051849Y852163D01*
X1052350Y854032D01*
Y855968D01*
X1051849Y857837D01*
X1050882Y859513D01*
X1049513Y860882D01*
X1047837Y861849D01*
X1045968Y862350D01*
X1044032D01*
X1042163Y861849D01*
X1040487Y860882D01*
X1039118Y859513D01*
X1038151Y857837D01*
X1038011Y857315D01*
X1036619D01*
X1035734Y857138D01*
X1034983Y856637D01*
X1016052Y837705D01*
X1015583Y837976D01*
X1013714Y838477D01*
X1011779D01*
X1009909Y837976D01*
X1008233Y837008D01*
X1006865Y835640D01*
X1006749Y835439D01*
X1006426Y835271D01*
X1004296Y835191D01*
X1003606Y835882D01*
X1001930Y836849D01*
X1001407Y836989D01*
Y885580D01*
X1003594Y887767D01*
X1004032Y887650D01*
X1005968D01*
X1007837Y888151D01*
X1009513Y889118D01*
X1010650Y890256D01*
X1011617Y890097D01*
X1012650Y889550D01*
Y889032D01*
X1013151Y887163D01*
X1014118Y885487D01*
X1015487Y884118D01*
X1017163Y883151D01*
X1019032Y882650D01*
X1020968D01*
X1022837Y883151D01*
X1024513Y884118D01*
X1025882Y885487D01*
X1026849Y887163D01*
X1026989Y887685D01*
X1080000D01*
X1080886Y887862D01*
X1081637Y888363D01*
X1111694Y918421D01*
X1112163Y918151D01*
X1114032Y917650D01*
X1115968D01*
X1117837Y918151D01*
X1119513Y919118D01*
X1120882Y920487D01*
X1121849Y922163D01*
X1122350Y924032D01*
Y925968D01*
X1121849Y927837D01*
X1120882Y929513D01*
X1119513Y930882D01*
X1117837Y931849D01*
X1115968Y932350D01*
X1114032D01*
X1112163Y931849D01*
X1110487Y930882D01*
X1109118Y929513D01*
X1108151Y927837D01*
X1107650Y925968D01*
Y924032D01*
X1108151Y922163D01*
X1108421Y921694D01*
X1079041Y892315D01*
X1026989D01*
X1026849Y892837D01*
X1025882Y894513D01*
X1024513Y895882D01*
X1022837Y896849D01*
X1020968Y897350D01*
X1019032D01*
X1017163Y896849D01*
X1015487Y895882D01*
X1014350Y894744D01*
X1013383Y894903D01*
X1012350Y895450D01*
Y895968D01*
X1011849Y897837D01*
X1010882Y899513D01*
X1009513Y900882D01*
X1007837Y901849D01*
X1005968Y902350D01*
X1004032D01*
X1002163Y901849D01*
X1000487Y900882D01*
X999118Y899513D01*
X998151Y897837D01*
X997650Y895968D01*
Y894032D01*
X998151Y892163D01*
X999118Y890487D01*
X999443Y890162D01*
X997456Y888175D01*
X996954Y887425D01*
X996778Y886539D01*
Y836989D01*
X996256Y836849D01*
X994580Y835882D01*
X993211Y834513D01*
X992244Y832837D01*
X991743Y830968D01*
Y829032D01*
X991483Y828508D01*
X990160Y827214D01*
X988908D01*
X987039Y826713D01*
X986571Y826442D01*
X982315Y830698D01*
Y899041D01*
X1010959Y927685D01*
X1103512D01*
X1104398Y927862D01*
X1105149Y928363D01*
X1106637Y929851D01*
X1107138Y930602D01*
X1107315Y931488D01*
Y956303D01*
X1108474Y956613D01*
X1110526Y957798D01*
X1112202Y959474D01*
X1113387Y961526D01*
X1114000Y963815D01*
Y966185D01*
X1113387Y968474D01*
X1112202Y970526D01*
X1111772Y970956D01*
X1112601Y972955D01*
X1122799D01*
X1123628Y970956D01*
X1123198Y970526D01*
X1122013Y968474D01*
X1121400Y966185D01*
Y963815D01*
X1122013Y961526D01*
X1123198Y959474D01*
X1124874Y957798D01*
X1126926Y956613D01*
X1129215Y956000D01*
X1131585D01*
X1133874Y956613D01*
X1135926Y957798D01*
X1137602Y959474D01*
X1138787Y961526D01*
X1139400Y963815D01*
Y966185D01*
X1138787Y968474D01*
X1137602Y970526D01*
X1137172Y970956D01*
X1138001Y972955D01*
X1148199D01*
X1149028Y970956D01*
D02*
G37*
G36*
X1202685Y977553D02*
Y964140D01*
X1200686Y963312D01*
X1187091Y976907D01*
X1186340Y977408D01*
X1185454Y977585D01*
X1089870D01*
X1088984Y977408D01*
X1088233Y976907D01*
X1084113Y972786D01*
X1083074Y973387D01*
X1080785Y974000D01*
X1078415D01*
X1076126Y973387D01*
X1074074Y972202D01*
X1072398Y970526D01*
X1071213Y968474D01*
X1070600Y966185D01*
Y963815D01*
X1071213Y961526D01*
X1072398Y959474D01*
X1074074Y957798D01*
X1076126Y956613D01*
X1078415Y956000D01*
X1080785D01*
X1083074Y956613D01*
X1085126Y957798D01*
X1086802Y959474D01*
X1087987Y961526D01*
X1088600Y963815D01*
Y966185D01*
X1087987Y968474D01*
X1087386Y969513D01*
X1090829Y972955D01*
X1097399D01*
X1098228Y970956D01*
X1097798Y970526D01*
X1096613Y968474D01*
X1096000Y966185D01*
Y963815D01*
X1096613Y961526D01*
X1097798Y959474D01*
X1099474Y957798D01*
X1101526Y956613D01*
X1102685Y956303D01*
Y932447D01*
X1102553Y932315D01*
X1010000D01*
X1009114Y932138D01*
X1008363Y931637D01*
X978363Y901637D01*
X977862Y900886D01*
X977685Y900000D01*
Y829740D01*
X977862Y828854D01*
X978363Y828103D01*
X983298Y823169D01*
X983027Y822701D01*
X982588Y821063D01*
X981830Y820645D01*
X980526Y820296D01*
X972315Y828508D01*
Y860000D01*
X972138Y860886D01*
X971637Y861637D01*
X961310Y871963D01*
X960559Y872465D01*
X959674Y872641D01*
X958037D01*
Y873238D01*
X957536Y875107D01*
X956569Y876783D01*
X955200Y878152D01*
X953524Y879120D01*
X951655Y879620D01*
X949719D01*
X949450Y879548D01*
X948415Y881341D01*
X1024287Y957214D01*
X1025326Y956613D01*
X1027615Y956000D01*
X1029985D01*
X1032274Y956613D01*
X1034326Y957798D01*
X1036002Y959474D01*
X1037187Y961526D01*
X1037800Y963815D01*
Y966185D01*
X1037187Y968474D01*
X1036002Y970526D01*
X1034326Y972202D01*
X1032274Y973387D01*
X1029985Y974000D01*
X1027615D01*
X1025326Y973387D01*
X1023274Y972202D01*
X1021598Y970526D01*
X1020413Y968474D01*
X1019800Y966185D01*
Y963815D01*
X1020413Y961526D01*
X1021013Y960487D01*
X909743Y849217D01*
X909242Y848466D01*
X909065Y847580D01*
Y808100D01*
Y768620D01*
X909242Y767734D01*
X909743Y766983D01*
X976419Y700307D01*
X977170Y699806D01*
X977650Y699710D01*
Y699032D01*
X978151Y697163D01*
X979118Y695487D01*
X980202Y694403D01*
X979968Y693240D01*
X979474Y692403D01*
X978898D01*
X977029Y691902D01*
X976561Y691632D01*
X902315Y765878D01*
Y860641D01*
X998887Y957214D01*
X999926Y956613D01*
X1002215Y956000D01*
X1004585D01*
X1006874Y956613D01*
X1008926Y957798D01*
X1010602Y959474D01*
X1011787Y961526D01*
X1012400Y963815D01*
Y966185D01*
X1011787Y968474D01*
X1010602Y970526D01*
X1008926Y972202D01*
X1006874Y973387D01*
X1004585Y974000D01*
X1002215D01*
X999926Y973387D01*
X997874Y972202D01*
X996198Y970526D01*
X995013Y968474D01*
X994400Y966185D01*
Y963815D01*
X995013Y961526D01*
X995613Y960487D01*
X922498Y887371D01*
X920498Y888199D01*
Y957551D01*
X920926Y957798D01*
X922602Y959474D01*
X923787Y961526D01*
X924400Y963815D01*
Y964422D01*
X926400Y965251D01*
X928363Y963287D01*
X929114Y962786D01*
X930000Y962609D01*
X961730D01*
X962495Y960762D01*
X958530Y956797D01*
X958028Y956046D01*
X957852Y955160D01*
Y946984D01*
X957163Y946800D01*
X955487Y945832D01*
X954118Y944464D01*
X953151Y942787D01*
X952650Y940918D01*
Y938983D01*
X953151Y937113D01*
X954118Y935437D01*
X955487Y934069D01*
X957163Y933101D01*
X959032Y932600D01*
X960968D01*
X962837Y933101D01*
X964513Y934069D01*
X965882Y935437D01*
X966849Y937113D01*
X967350Y938983D01*
Y940918D01*
X966849Y942787D01*
X965882Y944464D01*
X964513Y945832D01*
X962837Y946800D01*
X962481Y946895D01*
Y954201D01*
X985965Y977685D01*
X1038241D01*
X1046413Y969513D01*
X1045813Y968474D01*
X1045200Y966185D01*
Y963815D01*
X1045813Y961526D01*
X1046998Y959474D01*
X1048674Y957798D01*
X1050726Y956613D01*
X1053015Y956000D01*
X1055385D01*
X1057674Y956613D01*
X1059726Y957798D01*
X1061402Y959474D01*
X1062587Y961526D01*
X1063200Y963815D01*
Y966185D01*
X1062587Y968474D01*
X1061402Y970526D01*
X1059726Y972202D01*
X1057674Y973387D01*
X1055385Y974000D01*
X1053015D01*
X1050726Y973387D01*
X1049687Y972786D01*
X1041788Y980686D01*
X1042616Y982685D01*
X1197553D01*
X1202685Y977553D01*
D02*
G37*
G36*
X943409Y873508D02*
X943337Y873238D01*
Y871303D01*
X943838Y869433D01*
X944806Y867757D01*
X946174Y866389D01*
X947850Y865421D01*
X949719Y864920D01*
X951655D01*
X953524Y865421D01*
X955200Y866389D01*
X956569Y867757D01*
X956715Y868012D01*
X958715D01*
X967685Y859041D01*
Y827549D01*
X967862Y826664D01*
X968363Y825913D01*
X994962Y799314D01*
X994133Y797315D01*
X935959D01*
X922315Y810959D01*
Y818011D01*
X922837Y818151D01*
X924513Y819118D01*
X925882Y820487D01*
X926849Y822163D01*
X927350Y824032D01*
Y825968D01*
X926849Y827837D01*
X925882Y829513D01*
X924513Y830882D01*
X922837Y831849D01*
X920968Y832350D01*
X919032D01*
X917163Y831849D01*
X915695Y831001D01*
X914863Y831242D01*
X913695Y831917D01*
Y846621D01*
X941616Y874543D01*
X943409Y873508D01*
D02*
G37*
G36*
X917163Y818151D02*
X917685Y818011D01*
Y810000D01*
X917862Y809114D01*
X918363Y808363D01*
X933363Y793363D01*
X934114Y792862D01*
X935000Y792685D01*
X1009041D01*
X1017685Y784041D01*
Y781369D01*
X1017163Y781229D01*
X1015487Y780262D01*
X1014118Y778893D01*
X1013789Y778323D01*
X1013226Y778182D01*
X1011524Y778400D01*
X1010882Y779513D01*
X1009513Y780882D01*
X1007837Y781849D01*
X1005968Y782350D01*
X1004032D01*
X1002163Y781849D01*
X1000487Y780882D01*
X999118Y779513D01*
X998151Y777837D01*
X997650Y775968D01*
Y774032D01*
X998151Y772163D01*
X999118Y770487D01*
X1000487Y769118D01*
X1002163Y768151D01*
X1002685Y768011D01*
Y740352D01*
X983979Y721645D01*
X983510Y721915D01*
X981641Y722416D01*
X979706D01*
X977836Y721915D01*
X976160Y720948D01*
X974792Y719579D01*
X973824Y717903D01*
X973323Y716034D01*
Y714099D01*
X973824Y712229D01*
X972158Y711115D01*
X932204Y751069D01*
X933239Y752863D01*
X934032Y752650D01*
X935968D01*
X937837Y753151D01*
X939513Y754118D01*
X940296Y754902D01*
X949704D01*
X950487Y754118D01*
X952163Y753151D01*
X954032Y752650D01*
X955968D01*
X957837Y753151D01*
X959513Y754118D01*
X960882Y755487D01*
X961849Y757163D01*
X962350Y759032D01*
Y760968D01*
X961849Y762837D01*
X961650Y763183D01*
X961598Y763408D01*
X962283Y765737D01*
X962350Y765796D01*
X963228Y766303D01*
X964884Y767959D01*
X966054Y769986D01*
X966633Y772147D01*
X948906D01*
X949486Y769986D01*
X950656Y767959D01*
X950749Y767865D01*
X950614Y766834D01*
X950196Y765590D01*
X949704Y765098D01*
X940296D01*
X939513Y765882D01*
X937837Y766849D01*
X935968Y767350D01*
X934032D01*
X932163Y766849D01*
X930487Y765882D01*
X929118Y764513D01*
X928151Y762837D01*
X927650Y760968D01*
Y759032D01*
X927863Y758239D01*
X926069Y757204D01*
X913695Y769579D01*
Y808100D01*
Y818083D01*
X914863Y818758D01*
X915695Y818999D01*
X917163Y818151D01*
D02*
G37*
%LPC*%
G36*
X959040Y782280D02*
Y774687D01*
X966633D01*
X966054Y776849D01*
X964884Y778876D01*
X963228Y780531D01*
X961201Y781701D01*
X959040Y782280D01*
D02*
G37*
G36*
X956500D02*
X954338Y781701D01*
X952311Y780531D01*
X950656Y778876D01*
X949486Y776849D01*
X948906Y774687D01*
X956500D01*
Y782280D01*
D02*
G37*
%LPD*%
G36*
X714968Y671329D02*
X716130Y670168D01*
X717805Y669201D01*
X719675Y668700D01*
X720732D01*
X720950Y668374D01*
X775961Y613363D01*
X776712Y612862D01*
X777597Y612686D01*
X798011D01*
X798151Y612163D01*
X799118Y610487D01*
X800487Y609118D01*
X801370Y608609D01*
Y606391D01*
X800487Y605882D01*
X799118Y604513D01*
X798151Y602837D01*
X798011Y602314D01*
X780959D01*
X712590Y670684D01*
X712580Y670772D01*
X712710Y671089D01*
X713917Y671353D01*
X714968Y671329D01*
D02*
G37*
D10*
X716578Y825000D02*
X755000Y786578D01*
Y770000D02*
Y786578D01*
X695000Y825000D02*
X716578D01*
D38*
X877500Y917500D02*
D03*
X832500D02*
D03*
X877500Y852500D02*
D03*
D40*
X832500D02*
D03*
D41*
X725150Y721100D02*
D03*
Y778900D02*
D03*
D42*
X730150Y706800D02*
D03*
Y793200D02*
D03*
D43*
X688350Y706800D02*
D03*
Y793200D02*
D03*
D45*
X900000Y764919D02*
X979866Y685053D01*
X900000Y764919D02*
Y861600D01*
X1023920Y648680D02*
X1101926D01*
X1020000Y680000D02*
X1044240Y655760D01*
X992600Y680000D02*
X1023920Y648680D01*
X1034080Y652220D02*
X1096076D01*
X1006300Y680000D02*
X1034080Y652220D01*
X1205000Y945000D02*
Y978512D01*
X1198512Y985000D02*
X1205000Y978512D01*
X1080000Y820000D02*
X1205000Y945000D01*
X985000Y985000D02*
X1198512D01*
X860346Y975270D02*
X919654D01*
X851010Y965934D02*
X860346Y975270D01*
X840134Y965934D02*
X851010D01*
X964924Y964924D02*
X985000Y985000D01*
X919654Y975270D02*
X930000Y964924D01*
X964924D01*
X839200Y965000D02*
X840134Y965934D01*
X725000Y951488D02*
Y988512D01*
X726488Y990000D01*
X950000D01*
X773400Y950000D02*
X788400Y965000D01*
X725000Y951488D02*
X726488Y950000D01*
X773400D01*
X737600Y965000D02*
X752600Y980000D01*
X930000D01*
X970000Y827549D02*
Y860000D01*
Y827549D02*
X997549Y800000D01*
X950687Y872270D02*
X952631Y870326D01*
X959674D01*
X970000Y860000D01*
X834116Y944684D02*
X880316D01*
X813800Y965000D02*
X834116Y944684D01*
X880316D02*
X900000Y925000D01*
X997549Y800000D02*
X1070000D01*
X935000Y795000D02*
X1010000D01*
X920000Y810000D02*
X935000Y795000D01*
X920000Y810000D02*
Y825000D01*
X911380Y808100D02*
Y847580D01*
Y768620D02*
Y808100D01*
X1010000Y795000D02*
X1020000Y785000D01*
X911380Y768620D02*
X978056Y701944D01*
X983056D02*
X985000Y700000D01*
X978056Y701944D02*
X983056D01*
X960166Y940117D02*
Y955160D01*
X960000Y939950D02*
X960166Y940117D01*
X1020000Y742674D02*
Y774380D01*
Y775000D02*
Y785000D01*
Y774380D02*
Y775000D01*
X980673Y715066D02*
X1005000Y739393D01*
Y775000D01*
X1020000D02*
X1123400D01*
X855000Y725000D02*
X885000D01*
X1051899Y613101D02*
X1053475D01*
X1027105Y637895D02*
X1051899Y613101D01*
X957539Y637895D02*
X1027105D01*
X696380Y621217D02*
Y700549D01*
X699620Y703789D01*
Y709811D01*
X965000Y575000D02*
X985000D01*
X945000Y555000D02*
X965000Y575000D01*
X762597Y555000D02*
X945000D01*
X696380Y621217D02*
X762597Y555000D01*
X695000Y714431D02*
X699620Y709811D01*
X695000Y714431D02*
Y735000D01*
X753650Y736350D02*
X781380Y708620D01*
X753542Y736350D02*
X753650D01*
X1006380Y616380D02*
X1010000Y620000D01*
X846430Y616380D02*
X1006380D01*
X825000Y637809D02*
X846430Y616380D01*
X825000Y637809D02*
Y687190D01*
X803570Y708620D02*
X825000Y687190D01*
X781380Y708620D02*
X803570D01*
X850000Y720000D02*
X855000Y725000D01*
X850000Y640000D02*
Y720000D01*
X720643Y676050D02*
X722587Y674106D01*
Y670011D02*
Y674106D01*
Y670011D02*
X777597Y615000D01*
X705000Y675000D02*
X780000Y600000D01*
X805000D01*
X777597Y615000D02*
X805000D01*
X840000Y635000D02*
X850000Y625000D01*
X840000Y635000D02*
Y675000D01*
X832500Y852500D02*
X877500D01*
X960166Y955160D02*
X985006Y980000D01*
X1039200D01*
X1185454Y975270D02*
X1200000Y960724D01*
X1089870Y975270D02*
X1185454D01*
X1079600Y965000D02*
X1089870Y975270D01*
X1200000Y945006D02*
Y960724D01*
X1039200Y980000D02*
X1054200Y965000D01*
X1194994Y940000D02*
X1200000Y945006D01*
X1165000Y940000D02*
X1194994D01*
X1070000Y845000D02*
X1165000Y940000D01*
X980000Y829740D02*
Y900000D01*
Y829740D02*
X989876Y819864D01*
X911380Y847580D02*
X1028800Y965000D01*
X1080000Y890000D02*
X1115000Y925000D01*
X1020000Y890000D02*
X1080000D01*
X1010000Y930000D02*
X1103512D01*
X1105000Y931488D01*
X980000Y900000D02*
X1010000Y930000D01*
X900000Y861600D02*
X1003400Y965000D01*
X1105000Y931488D02*
Y965000D01*
X1034422Y826944D02*
X1169902Y962424D01*
X1025000Y825000D02*
X1026944Y826944D01*
X1178624Y962424D02*
X1181200Y965000D01*
X1026944Y826944D02*
X1034422D01*
X1169902Y962424D02*
X1178624D01*
X1005000Y892446D02*
Y895000D01*
X999093Y886539D02*
X1005000Y892446D01*
X999093Y830000D02*
Y886539D01*
X1036619Y855000D02*
X1045000D01*
X1012746Y831127D02*
X1036619Y855000D01*
X1122046Y668800D02*
X1195000D01*
X1101926Y648680D02*
X1122046Y668800D01*
X1138056Y694200D02*
X1195000D01*
X1096076Y652220D02*
X1138056Y694200D01*
X1154716Y719600D02*
X1195000D01*
X1090876Y655760D02*
X1154716Y719600D01*
X1044240Y655760D02*
X1090876D01*
X1035000Y680000D02*
X1055700Y659300D01*
X1174606Y745000D02*
X1195000D01*
X1088906Y659300D02*
X1174606Y745000D01*
X1055700Y659300D02*
X1088906D01*
X1045000Y677803D02*
X1059963Y662840D01*
X1087440D01*
X1065000Y675000D02*
X1080000Y690000D01*
X1061430Y666380D02*
X1068570D01*
X1056380Y671430D02*
X1061430Y666380D01*
X1087440Y662840D02*
X1195000Y770400D01*
X1045000Y677803D02*
Y690000D01*
X1195000Y792810D02*
Y795800D01*
X1068570Y666380D02*
X1195000Y792810D01*
X1056380Y671430D02*
Y686380D01*
X1065000Y695000D01*
X1080000Y690000D02*
Y715000D01*
X1090160Y716360D02*
X1195000Y821200D01*
X1081360Y716360D02*
X1090160D01*
X1080000Y715000D02*
X1081360Y716360D01*
X1123400Y775000D02*
X1195000Y846600D01*
D46*
X935000Y760000D02*
X955000D01*
X800000Y670000D02*
Y700000D01*
Y701272D01*
X915400Y885867D02*
Y965000D01*
X904533Y875000D02*
X915400Y885867D01*
X825000Y875000D02*
X904533D01*
X765000Y815000D02*
X825000Y875000D01*
X765000Y795000D02*
Y815000D01*
D47*
X915400Y965000D02*
D03*
X890000D02*
D03*
X864600D02*
D03*
X839200D02*
D03*
X813800D02*
D03*
X788400D02*
D03*
X763000D02*
D03*
X737600D02*
D03*
X1181200D02*
D03*
X1155800D02*
D03*
X1130400D02*
D03*
X1105000D02*
D03*
X1079600D02*
D03*
X1054200D02*
D03*
X1028800D02*
D03*
X1003400D02*
D03*
X1195000Y664200D02*
D03*
Y689600D02*
D03*
Y715000D02*
D03*
Y740400D02*
D03*
Y765800D02*
D03*
Y791200D02*
D03*
Y816600D02*
D03*
Y842000D02*
D03*
D48*
X770000Y580000D02*
D03*
Y655000D02*
D03*
D49*
X750000Y580000D02*
D03*
Y655000D02*
D03*
D50*
X979866Y685053D02*
D03*
X1020000Y680000D02*
D03*
X992600D02*
D03*
X1006300D02*
D03*
X1080000Y820000D02*
D03*
X950000Y990000D02*
D03*
X955000Y760000D02*
D03*
X935000D02*
D03*
X800000Y700000D02*
D03*
Y670000D02*
D03*
X957770Y773417D02*
D03*
X930000Y980000D02*
D03*
X950687Y872270D02*
D03*
X1070000Y800000D02*
D03*
X900000Y925000D02*
D03*
X765000Y795000D02*
D03*
X960000Y939950D02*
D03*
X1020000Y742674D02*
D03*
X1005000Y775000D02*
D03*
X1020000Y774380D02*
D03*
X885000Y725000D02*
D03*
X980673Y715066D02*
D03*
X1053475Y613101D02*
D03*
X957539Y637895D02*
D03*
X985000Y575000D02*
D03*
X695000Y735000D02*
D03*
X753542Y736350D02*
D03*
X705000Y675000D02*
D03*
X805000Y600000D02*
D03*
Y615000D02*
D03*
X720643Y676050D02*
D03*
X850000Y625000D02*
D03*
X840000Y675000D02*
D03*
X1020000Y890000D02*
D03*
X1115000Y925000D02*
D03*
X1070000Y845000D02*
D03*
X989876Y819864D02*
D03*
X1005000Y895000D02*
D03*
X999093Y830000D02*
D03*
X1045000Y855000D02*
D03*
X1012746Y831127D02*
D03*
X1025000Y825000D02*
D03*
X985000Y700000D02*
D03*
X920000Y825000D02*
D03*
X1035000Y680000D02*
D03*
X1065000Y675000D02*
D03*
X1045000Y690000D02*
D03*
X1065000Y695000D02*
D03*
X1080000Y715000D02*
D03*
X850000Y640000D02*
D03*
X695000Y825000D02*
D03*
X755000Y770000D02*
D03*
M02*
