M48
;Layer_Color=9474304
;FILE_FORMAT=4:4
METRIC,LZ
;TYPE=PLATED
T02F00S00C0.7112
T03F00S00C0.8000
T04F00S00C1.0000
;TYPE=NON_PLATED
T05F00S00C0.6500
%
T02
X00805Y006
Y00615
X0085Y00625
Y0064
X0084Y00675
X008Y0067
Y007
X00885Y00725
X00935Y0076
X00955
X0095777Y00773417
X01005Y00775
X0102Y0077438
Y00742674
Y0068
X010063
X009926
X00979866Y00685053
X00985Y007
X00980673Y00715066
X01035Y0068
X01045Y0069
X01065Y00695
Y00675
X0108Y00715
X01053475Y00613101
X00985Y00575
X00957539Y00637895
X00720643Y0067605
X00705Y00675
X00695Y00735
X00753542Y0073635
X00755Y0077
X00765Y00795
X00695Y00825
X0092
X00989876Y00819864
X00999093Y0083
X01012746Y00831127
X01025Y00825
X01045Y00855
X0107Y00845
X0108Y0082
X0107Y008
X0102Y0089
X01005Y00895
X00950687Y0087227
X0096Y0093995
X0095Y0099
X0093Y0098
X009Y00925
X01115
T03
X0075Y0058
X0077
Y00655
X0075
T04
X01195Y006642
Y006896
Y00715
Y007404
Y007658
Y007912
X007884Y00965
X00763
X007376
X008138
X008392
X008646
X0089
X009154
X008775Y009175
X008325
Y008525
X008775
X010034Y00965
X010288
X010542
X010796
X01105
X011304
X011558
X011812
X01195Y00842
Y008166
T05
X0072515Y007211
Y007789
M30
