G04*
G04 #@! TF.GenerationSoftware,Altium Limited,Altium Designer Develop,26.2.0 (10)*
G04*
G04 Layer_Color=8421504*
%FSLAX44Y44*%
%MOMM*%
G71*
G04*
G04 #@! TF.SameCoordinates,717AC42B-03D0-4F6F-A9B9-6B288F40F31D*
G04*
G04*
G04 #@! TF.FilePolarity,Positive*
G04*
G01*
G75*
%ADD14R,1.1938X1.1938*%
%ADD15R,1.2552X1.5562*%
%ADD16R,1.5562X1.2552*%
%ADD17R,0.9500X1.4000*%
%ADD18O,0.6000X1.9500*%
%ADD19O,1.9500X0.6000*%
%ADD20R,1.5000X2.0000*%
%ADD21R,1.0000X1.8000*%
%ADD22R,3.8000X2.0000*%
%ADD23O,1.5000X0.6000*%
%ADD24R,1.1587X1.5082*%
%ADD25R,0.9500X1.3500*%
%ADD26R,1.2000X1.2000*%
%ADD27R,1.1500X0.6000*%
%ADD28R,1.5000X0.6000*%
%ADD29R,1.2000X1.2000*%
%ADD30R,1.1500X0.3000*%
%ADD31R,2.1000X5.6000*%
D14*
X990287Y555000D02*
D03*
X969713D02*
D03*
D15*
X1030255Y655000D02*
D03*
X1009745D02*
D03*
X750000Y845000D02*
D03*
X770510D02*
D03*
X1080510Y910000D02*
D03*
X1080255Y875000D02*
D03*
X950255Y590000D02*
D03*
X929745D02*
D03*
X1060000Y910000D02*
D03*
X1059745Y875000D02*
D03*
D16*
X880000Y770510D02*
D03*
Y750000D02*
D03*
X1100000Y650255D02*
D03*
Y629745D02*
D03*
D17*
X1114250Y685000D02*
D03*
X1095750D02*
D03*
Y775000D02*
D03*
Y745000D02*
D03*
Y715000D02*
D03*
X1114250Y775000D02*
D03*
Y715000D02*
D03*
Y745000D02*
D03*
X845000Y695000D02*
D03*
X863500D02*
D03*
X945000Y625000D02*
D03*
X926500D02*
D03*
D18*
X1045000Y797500D02*
D03*
X1053000D02*
D03*
X1037000D02*
D03*
X997000D02*
D03*
X1005000D02*
D03*
X1013000D02*
D03*
X1021000D02*
D03*
X1029000D02*
D03*
X1053000Y712500D02*
D03*
X1045000D02*
D03*
X1037000D02*
D03*
X1029000D02*
D03*
X1021000D02*
D03*
X1013000D02*
D03*
X1005000D02*
D03*
X997000D02*
D03*
D19*
X1067500Y775000D02*
D03*
Y751000D02*
D03*
X982500Y759000D02*
D03*
Y743000D02*
D03*
X1067500Y735000D02*
D03*
Y759000D02*
D03*
X982500Y767000D02*
D03*
Y751000D02*
D03*
X1067500Y783000D02*
D03*
Y767000D02*
D03*
Y743000D02*
D03*
Y727000D02*
D03*
X982500D02*
D03*
Y735000D02*
D03*
Y775000D02*
D03*
Y783000D02*
D03*
D20*
X810000Y781500D02*
D03*
X833000D02*
D03*
X787000D02*
D03*
D21*
X724000Y845000D02*
D03*
X696000D02*
D03*
D22*
X810000Y718500D02*
D03*
D23*
X879000Y665800D02*
D03*
X825000Y653100D02*
D03*
Y640400D02*
D03*
Y627700D02*
D03*
Y615000D02*
D03*
Y602300D02*
D03*
Y589600D02*
D03*
Y576900D02*
D03*
X879000Y653100D02*
D03*
Y640400D02*
D03*
Y627700D02*
D03*
Y615000D02*
D03*
Y602300D02*
D03*
Y589600D02*
D03*
Y576900D02*
D03*
D24*
X1030267Y585000D02*
D03*
Y620000D02*
D03*
X1009733Y585000D02*
D03*
Y620000D02*
D03*
D25*
X942500Y855000D02*
D03*
Y655000D02*
D03*
X927500D02*
D03*
Y855000D02*
D03*
D26*
X805000Y824500D02*
D03*
Y845500D02*
D03*
D27*
X735900Y782000D02*
D03*
Y718000D02*
D03*
Y726000D02*
D03*
Y774000D02*
D03*
D28*
X825000Y665800D02*
D03*
D29*
X1035500Y910000D02*
D03*
X1014500D02*
D03*
X1035500Y875000D02*
D03*
X1014500D02*
D03*
D30*
X735900Y732500D02*
D03*
Y737500D02*
D03*
Y742500D02*
D03*
Y747500D02*
D03*
Y752500D02*
D03*
Y757500D02*
D03*
Y762500D02*
D03*
Y767500D02*
D03*
D31*
X940000Y802500D02*
D03*
Y707500D02*
D03*
M02*
