G04*
G04 #@! TF.GenerationSoftware,Altium Limited,Altium Designer Develop,26.2.0 (10)*
G04*
G04 Layer_Physical_Order=1*
G04 Layer_Color=255*
%FSLAX44Y44*%
%MOMM*%
G71*
G04*
G04 #@! TF.SameCoordinates,717AC42B-03D0-4F6F-A9B9-6B288F40F31D*
G04*
G04*
G04 #@! TF.FilePolarity,Positive*
G04*
G01*
G75*
%ADD10C,0.6000*%
%ADD14R,1.1938X1.1938*%
%ADD15R,1.2552X1.5562*%
%ADD16R,1.5562X1.2552*%
%ADD17R,0.9500X1.4000*%
%ADD18O,0.6000X1.9500*%
%ADD19O,1.9500X0.6000*%
%ADD20R,1.5000X2.0000*%
%ADD21R,1.0000X1.8000*%
%ADD22R,3.8000X2.0000*%
%ADD23O,1.5000X0.6000*%
%ADD24R,1.1587X1.5082*%
%ADD25R,0.9500X1.3500*%
%ADD26R,1.2000X1.2000*%
%ADD27R,1.1500X0.6000*%
%ADD28R,1.5000X0.6000*%
%ADD29R,1.2000X1.2000*%
%ADD30R,1.1500X0.3000*%
%ADD31R,2.1000X5.6000*%
%ADD38C,1.5500*%
%ADD40R,1.5500X1.5500*%
%ADD41C,0.6500*%
G04:AMPARAMS|DCode=42|XSize=1mm|YSize=2.1mm|CornerRadius=0.5mm|HoleSize=0mm|Usage=FLASHONLY|Rotation=270.000|XOffset=0mm|YOffset=0mm|HoleType=Round|Shape=RoundedRectangle|*
%AMROUNDEDRECTD42*
21,1,1.0000,1.1000,0,0,270.0*
21,1,0.0000,2.1000,0,0,270.0*
1,1,1.0000,-0.5500,0.0000*
1,1,1.0000,-0.5500,0.0000*
1,1,1.0000,0.5500,0.0000*
1,1,1.0000,0.5500,0.0000*
%
%ADD42ROUNDEDRECTD42*%
G04:AMPARAMS|DCode=43|XSize=1mm|YSize=1.8mm|CornerRadius=0.5mm|HoleSize=0mm|Usage=FLASHONLY|Rotation=270.000|XOffset=0mm|YOffset=0mm|HoleType=Round|Shape=RoundedRectangle|*
%AMROUNDEDRECTD43*
21,1,1.0000,0.8000,0,0,270.0*
21,1,0.0000,1.8000,0,0,270.0*
1,1,1.0000,-0.4000,0.0000*
1,1,1.0000,-0.4000,0.0000*
1,1,1.0000,0.4000,0.0000*
1,1,1.0000,0.4000,0.0000*
%
%ADD43ROUNDEDRECTD43*%
%ADD45C,0.2540*%
%ADD46C,0.8000*%
%ADD47C,1.6000*%
G04:AMPARAMS|DCode=48|XSize=1.3mm|YSize=1.3mm|CornerRadius=0.325mm|HoleSize=0mm|Usage=FLASHONLY|Rotation=0.000|XOffset=0mm|YOffset=0mm|HoleType=Round|Shape=RoundedRectangle|*
%AMROUNDEDRECTD48*
21,1,1.3000,0.6500,0,0,0.0*
21,1,0.6500,1.3000,0,0,0.0*
1,1,0.6500,0.3250,-0.3250*
1,1,0.6500,-0.3250,-0.3250*
1,1,0.6500,-0.3250,0.3250*
1,1,0.6500,0.3250,0.3250*
%
%ADD48ROUNDEDRECTD48*%
%ADD49C,1.3000*%
%ADD50C,1.2700*%
G36*
X1225000Y1010000D02*
X1226477Y1010000D01*
X1229375Y1009424D01*
X1232105Y1008293D01*
X1234562Y1006651D01*
X1236651Y1004562D01*
X1238293Y1002105D01*
X1239424Y999375D01*
X1239924Y996857D01*
X1240000Y995002D01*
Y995000D01*
X1240000Y995000D01*
X1240000Y995000D01*
X1240000Y540000D01*
X1240000Y538523D01*
X1239424Y535625D01*
X1238293Y532895D01*
X1236651Y530438D01*
X1234562Y528349D01*
X1232105Y526707D01*
X1229375Y525576D01*
X1226857Y525075D01*
X1225000Y525000D01*
X1225000Y525000D01*
Y525000D01*
X695000D01*
X693030Y525000D01*
X689166Y525769D01*
X685526Y527276D01*
X682251Y529465D01*
X679465Y532251D01*
X677276Y535526D01*
X675769Y539166D01*
X675000Y543030D01*
X675000Y545000D01*
X675000Y545000D01*
X675000Y990000D01*
Y991970D01*
X675769Y995834D01*
X677276Y999473D01*
X679465Y1002749D01*
X682251Y1005535D01*
X685527Y1007724D01*
X689166Y1009231D01*
X693030Y1010000D01*
X695000D01*
Y1010000D01*
X1225000Y1010000D01*
D02*
G37*
%LPC*%
G36*
X950968Y997350D02*
X949032D01*
X947163Y996849D01*
X945487Y995882D01*
X944118Y994513D01*
X943151Y992837D01*
X942650Y990968D01*
Y989032D01*
X942865Y988230D01*
X941072Y987195D01*
X935118Y993149D01*
X934367Y993650D01*
X933482Y993827D01*
X764488D01*
X763602Y993650D01*
X762851Y993149D01*
X761363Y991661D01*
X760862Y990910D01*
X760686Y990024D01*
Y973697D01*
X759526Y973387D01*
X757474Y972202D01*
X755798Y970526D01*
X754613Y968474D01*
X754000Y966185D01*
Y963815D01*
X754613Y961526D01*
X755798Y959474D01*
X757474Y957798D01*
X759526Y956613D01*
X761815Y956000D01*
X764185D01*
X766474Y956613D01*
X768526Y957798D01*
X770202Y959474D01*
X771387Y961526D01*
X772000Y963815D01*
Y966185D01*
X771387Y968474D01*
X770202Y970526D01*
X768526Y972202D01*
X766474Y973387D01*
X765314Y973697D01*
Y989065D01*
X765447Y989198D01*
X928200D01*
X928464Y987198D01*
X927163Y986849D01*
X925487Y985882D01*
X924118Y984513D01*
X923151Y982837D01*
X922650Y980968D01*
Y979032D01*
X923151Y977163D01*
X924118Y975487D01*
X925487Y974118D01*
X927163Y973151D01*
X929032Y972650D01*
X930968D01*
X932837Y973151D01*
X934513Y974118D01*
X935882Y975487D01*
X936849Y977163D01*
X936989Y977685D01*
X939029D01*
X963981Y952733D01*
X963216Y950885D01*
X952868D01*
X951982Y950709D01*
X951231Y950207D01*
X949743Y948719D01*
X949242Y947968D01*
X949065Y947083D01*
Y905804D01*
X949242Y904919D01*
X949743Y904168D01*
X956993Y896918D01*
Y879188D01*
X955824Y878513D01*
X954993Y878272D01*
X953524Y879120D01*
X951655Y879620D01*
X949719D01*
X948073Y879179D01*
X906205Y921047D01*
X906849Y922163D01*
X907350Y924032D01*
Y925968D01*
X906849Y927837D01*
X905882Y929513D01*
X904513Y930882D01*
X902837Y931849D01*
X900968Y932350D01*
X899032D01*
X897163Y931849D01*
X895487Y930882D01*
X894118Y929513D01*
X893151Y927837D01*
X892650Y925968D01*
Y924032D01*
X893151Y922163D01*
X894118Y920487D01*
X895487Y919118D01*
X897163Y918151D01*
X899032Y917650D01*
X900968D01*
X902614Y918091D01*
X944482Y876223D01*
X943838Y875107D01*
X943337Y873238D01*
Y871303D01*
X943838Y869433D01*
X944473Y868335D01*
X943794Y866733D01*
X943400Y866335D01*
X874850D01*
X873964Y866158D01*
X873213Y865657D01*
X865843Y858287D01*
X865342Y857536D01*
X865165Y856650D01*
Y822343D01*
X865342Y821457D01*
X865843Y820707D01*
X877685Y808865D01*
Y777786D01*
X871219D01*
Y763233D01*
X888781D01*
Y777786D01*
X882315D01*
Y809823D01*
X882138Y810709D01*
X881637Y811460D01*
X869794Y823302D01*
Y845003D01*
X871795Y845831D01*
X872127Y845498D01*
X874123Y844346D01*
X876348Y843750D01*
X878652D01*
X880877Y844346D01*
X882873Y845498D01*
X884502Y847127D01*
X885654Y849123D01*
X885938Y850185D01*
X891541D01*
X913421Y828306D01*
X913151Y827837D01*
X912650Y825968D01*
Y824032D01*
X913151Y822163D01*
X914118Y820487D01*
X915487Y819118D01*
X917163Y818151D01*
X919032Y817650D01*
X920968D01*
X922837Y818151D01*
X924513Y819118D01*
X925882Y820487D01*
X926500Y821558D01*
X928500Y821022D01*
Y773500D01*
X942685D01*
Y765388D01*
X941525Y764825D01*
X940686Y764709D01*
X939513Y765882D01*
X937837Y766849D01*
X935968Y767350D01*
X934032D01*
X932163Y766849D01*
X930487Y765882D01*
X929118Y764513D01*
X928151Y762837D01*
X927650Y760968D01*
Y759032D01*
X927697Y758856D01*
X894350Y725508D01*
X893188Y725775D01*
X892272Y726259D01*
X891849Y727837D01*
X890882Y729513D01*
X889513Y730882D01*
X887837Y731849D01*
X887315Y731989D01*
Y742724D01*
X888781D01*
Y757276D01*
X871219D01*
Y742724D01*
X882685D01*
Y731989D01*
X882163Y731849D01*
X880487Y730882D01*
X879118Y729513D01*
X878151Y727837D01*
X877650Y725968D01*
Y724032D01*
X878151Y722163D01*
X879118Y720487D01*
X880487Y719118D01*
X882163Y718151D01*
X883033Y716580D01*
X883033Y715847D01*
X882494Y715412D01*
X881112D01*
X874418Y722105D01*
X872765Y723210D01*
X870814Y723598D01*
X830000D01*
Y729500D01*
X815098D01*
Y770500D01*
X818500D01*
Y792500D01*
X815098D01*
Y800000D01*
X814710Y801951D01*
X813605Y803605D01*
X803605Y813605D01*
X803073Y813960D01*
X803680Y815960D01*
X803730D01*
Y823230D01*
X796460D01*
Y817098D01*
X796460Y815960D01*
X794817Y815098D01*
X756798D01*
X755098Y816798D01*
Y836219D01*
X757276D01*
Y853781D01*
X742724D01*
Y850098D01*
X730000D01*
Y855000D01*
X729098D01*
Y922202D01*
X731798Y924902D01*
X822643D01*
X823737Y922902D01*
X822911Y921472D01*
X822210Y918855D01*
Y918770D01*
X832500D01*
X842790D01*
Y918855D01*
X842089Y921472D01*
X840734Y923818D01*
X838818Y925734D01*
X836634Y926995D01*
X836280Y927467D01*
X835856Y929047D01*
X862938Y956128D01*
X863415Y956000D01*
X865785D01*
X868074Y956613D01*
X870126Y957798D01*
X871802Y959474D01*
X872987Y961526D01*
X873600Y963815D01*
Y966185D01*
X872987Y968474D01*
X871802Y970526D01*
X870126Y972202D01*
X868074Y973387D01*
X865785Y974000D01*
X863415D01*
X861126Y973387D01*
X859074Y972202D01*
X857398Y970526D01*
X856213Y968474D01*
X855600Y966185D01*
Y963815D01*
X855728Y963338D01*
X827488Y935098D01*
X729686D01*
X727735Y934710D01*
X726081Y933605D01*
X720395Y927918D01*
X719290Y926265D01*
X718902Y924314D01*
Y855000D01*
X718000D01*
Y835000D01*
X730000D01*
Y839902D01*
X742724D01*
Y836219D01*
X744902D01*
Y814686D01*
X745290Y812735D01*
X746395Y811081D01*
X751081Y806395D01*
X752735Y805290D01*
X754686Y804902D01*
X797888D01*
X804902Y797888D01*
Y792500D01*
X801500D01*
Y770500D01*
X804902D01*
Y729500D01*
X793725D01*
X793694Y729507D01*
X792084Y731500D01*
X792098Y731571D01*
Y770500D01*
X795500D01*
Y792500D01*
X783992D01*
X783500Y792598D01*
X783112D01*
X778004Y797706D01*
X776350Y798811D01*
X774399Y799199D01*
X771063D01*
X770882Y799513D01*
X769513Y800882D01*
X767837Y801849D01*
X765968Y802350D01*
X764032D01*
X762163Y801849D01*
X760487Y800882D01*
X759118Y799513D01*
X758151Y797837D01*
X757650Y795968D01*
Y794032D01*
X758151Y792163D01*
X759118Y790487D01*
X760487Y789118D01*
X762163Y788151D01*
X764032Y787650D01*
X765968D01*
X767837Y788151D01*
X769313Y789003D01*
X772288D01*
X777395Y783895D01*
X778500Y783157D01*
Y770500D01*
X781902D01*
Y733683D01*
X766395Y718176D01*
X765290Y716522D01*
X764902Y714571D01*
Y662127D01*
X763686Y661314D01*
X762747Y659908D01*
X762417Y658250D01*
Y651750D01*
X762747Y650092D01*
X763686Y648686D01*
X765092Y647747D01*
X766750Y647417D01*
X773250D01*
X774908Y647747D01*
X776314Y648686D01*
X777253Y650092D01*
X777583Y651750D01*
Y658250D01*
X777253Y659908D01*
X776314Y661314D01*
X775098Y662127D01*
Y712459D01*
X788152Y725514D01*
X790000Y724748D01*
Y707500D01*
X794902D01*
Y705296D01*
X794118Y704513D01*
X793151Y702837D01*
X792650Y700968D01*
Y699032D01*
X793151Y697163D01*
X794118Y695487D01*
X795487Y694118D01*
X797163Y693151D01*
X799032Y692650D01*
X800968D01*
X802837Y693151D01*
X804513Y694118D01*
X805882Y695487D01*
X806849Y697163D01*
X807350Y699032D01*
Y700968D01*
X806849Y702837D01*
X805882Y704513D01*
X805098Y705296D01*
Y707500D01*
X830000D01*
Y713402D01*
X868702D01*
X873902Y708202D01*
Y669759D01*
X872939Y669568D01*
X871616Y668684D01*
X870732Y667361D01*
X870422Y665800D01*
X870732Y664239D01*
X871616Y662916D01*
X872939Y662032D01*
X874500Y661722D01*
X876104D01*
X877049Y661090D01*
X879000Y660702D01*
X880951Y661090D01*
X881896Y661722D01*
X883500D01*
X885061Y662032D01*
X886384Y662916D01*
X887268Y664239D01*
X887578Y665800D01*
X887268Y667361D01*
X886384Y668684D01*
X885061Y669568D01*
X884098Y669759D01*
Y705216D01*
X886365D01*
X888316Y705604D01*
X889970Y706709D01*
X935911Y752650D01*
X935968D01*
X937837Y753151D01*
X939513Y754118D01*
X940686Y755291D01*
X941525Y755175D01*
X942685Y754612D01*
Y745000D01*
X942862Y744114D01*
X943363Y743363D01*
X948379Y738348D01*
X947614Y736500D01*
X928500D01*
Y678500D01*
X937685D01*
Y670459D01*
X929977Y662750D01*
X921750D01*
Y647250D01*
X933250D01*
Y647250D01*
X935210Y647153D01*
Y645710D01*
X941230D01*
Y655000D01*
Y664290D01*
X940676D01*
X939911Y666138D01*
X941637Y667863D01*
X942138Y668614D01*
X942315Y669500D01*
Y678500D01*
X951500D01*
Y705185D01*
X956250D01*
X957136Y705362D01*
X957887Y705863D01*
X973920Y721897D01*
X973921Y721897D01*
X974198Y721814D01*
X974792Y719579D01*
X973824Y717903D01*
X973323Y716034D01*
Y714099D01*
X973824Y712229D01*
X973873Y712146D01*
X964823Y703097D01*
X964322Y702346D01*
X964146Y701460D01*
Y644512D01*
X962145Y643683D01*
X962052Y643777D01*
X960376Y644744D01*
X958507Y645245D01*
X956572D01*
X954702Y644744D01*
X953026Y643777D01*
X951658Y642408D01*
X950690Y640732D01*
X950189Y638863D01*
Y636928D01*
X950690Y635058D01*
X951091Y634364D01*
X949727Y633000D01*
X939250D01*
Y617000D01*
X950750D01*
Y627477D01*
X954460Y631186D01*
X954702Y631046D01*
X956572Y630545D01*
X958507D01*
X960376Y631046D01*
X962052Y632014D01*
X962145Y632107D01*
X964146Y631279D01*
Y608669D01*
X954258Y598781D01*
X942979D01*
Y581219D01*
X957531D01*
Y595508D01*
X965838Y603815D01*
X967685Y603049D01*
Y561969D01*
X962744D01*
Y548031D01*
X976682D01*
Y561969D01*
X972315D01*
Y642553D01*
X977447Y647685D01*
X1002469D01*
Y646219D01*
X1017021D01*
Y663781D01*
X1002469D01*
Y652315D01*
X976488D01*
X975602Y652138D01*
X974851Y651637D01*
X970622Y647408D01*
X968774Y648173D01*
Y700501D01*
X976983Y708710D01*
X977836Y708217D01*
X979678Y707724D01*
X979781Y707538D01*
X980233Y706478D01*
X980322Y705716D01*
X979118Y704513D01*
X978151Y702837D01*
X977650Y700968D01*
Y699032D01*
X978151Y697163D01*
X979118Y695487D01*
X980202Y694403D01*
X979968Y693240D01*
X979474Y692403D01*
X978898D01*
X977029Y691902D01*
X975353Y690935D01*
X973985Y689566D01*
X973017Y687890D01*
X972516Y686021D01*
Y684085D01*
X973017Y682216D01*
X973985Y680540D01*
X975353Y679172D01*
X977029Y678204D01*
X978898Y677703D01*
X980834D01*
X982703Y678204D01*
X983325Y678563D01*
X985564Y677741D01*
X985612Y677682D01*
X985751Y677163D01*
X986719Y675487D01*
X988087Y674118D01*
X989763Y673151D01*
X991632Y672650D01*
X993568D01*
X995437Y673151D01*
X997113Y674118D01*
X998245Y675251D01*
X999450Y675382D01*
X1000655Y675251D01*
X1001787Y674118D01*
X1003463Y673151D01*
X1005332Y672650D01*
X1007268D01*
X1009137Y673151D01*
X1010813Y674118D01*
X1011945Y675251D01*
X1013150Y675382D01*
X1014355Y675251D01*
X1015487Y674118D01*
X1017163Y673151D01*
X1019032Y672650D01*
X1020968D01*
X1022837Y673151D01*
X1024513Y674118D01*
X1025882Y675487D01*
X1026392Y676370D01*
X1028608D01*
X1029118Y675487D01*
X1030487Y674118D01*
X1032163Y673151D01*
X1034032Y672650D01*
X1035968D01*
X1037837Y673151D01*
X1039513Y674118D01*
X1040882Y675487D01*
X1041849Y677163D01*
X1042350Y679032D01*
Y680968D01*
X1042332Y681035D01*
X1043965Y682668D01*
X1044032Y682650D01*
X1045968D01*
X1047837Y683151D01*
X1049513Y684118D01*
X1050882Y685487D01*
X1051849Y687163D01*
X1052350Y689032D01*
Y690968D01*
X1051849Y692837D01*
X1050882Y694513D01*
X1049513Y695882D01*
X1047837Y696849D01*
X1047315Y696989D01*
Y702486D01*
X1047884Y702866D01*
X1050116D01*
X1051439Y701982D01*
X1053000Y701672D01*
X1054193Y701909D01*
X1058193Y697909D01*
X1058151Y697837D01*
X1057650Y695968D01*
Y694032D01*
X1058151Y692163D01*
X1059118Y690487D01*
X1060487Y689118D01*
X1062163Y688151D01*
X1064032Y687650D01*
X1065968D01*
X1067837Y688151D01*
X1069513Y689118D01*
X1070882Y690487D01*
X1071849Y692163D01*
X1072350Y694032D01*
Y695968D01*
X1071849Y697837D01*
X1070882Y699513D01*
X1069513Y700882D01*
X1067837Y701849D01*
X1065968Y702350D01*
X1064032D01*
X1062163Y701849D01*
X1061298Y701350D01*
X1057048Y705600D01*
X1057078Y705750D01*
Y716523D01*
X1059078Y717351D01*
X1077685Y698744D01*
Y635000D01*
X1077862Y634114D01*
X1078363Y633363D01*
X1083363Y628363D01*
X1084114Y627862D01*
X1085000Y627686D01*
X1091219D01*
Y622469D01*
X1097685D01*
Y617447D01*
X1097553Y617314D01*
X1059530D01*
X1059357Y617614D01*
X1057988Y618983D01*
X1056312Y619950D01*
X1054443Y620451D01*
X1052507D01*
X1050638Y619950D01*
X1048962Y618983D01*
X1047594Y617614D01*
X1046626Y615938D01*
X1046125Y614069D01*
Y612134D01*
X1046626Y610264D01*
X1047594Y608588D01*
X1048962Y607220D01*
X1050638Y606252D01*
X1052507Y605751D01*
X1054443D01*
X1056312Y606252D01*
X1057988Y607220D01*
X1059357Y608588D01*
X1060324Y610264D01*
X1060825Y612134D01*
Y612686D01*
X1098512D01*
X1099398Y612862D01*
X1100149Y613363D01*
X1101637Y614851D01*
X1102138Y615602D01*
X1102315Y616488D01*
Y622469D01*
X1108781D01*
Y637021D01*
X1091219D01*
Y632314D01*
X1085959D01*
X1082315Y635959D01*
Y699703D01*
X1082138Y700589D01*
X1081637Y701339D01*
X1076798Y706178D01*
X1077833Y707971D01*
X1079032Y707650D01*
X1080968D01*
X1082837Y708151D01*
X1084513Y709118D01*
X1085882Y710487D01*
X1086849Y712163D01*
X1087350Y714032D01*
Y715968D01*
X1086849Y717837D01*
X1085882Y719513D01*
X1084513Y720882D01*
X1082837Y721849D01*
X1080968Y722350D01*
X1080352D01*
X1080194Y723143D01*
X1079693Y723894D01*
X1078039Y725547D01*
X1078328Y727000D01*
X1078018Y728561D01*
X1077134Y729884D01*
Y732116D01*
X1078018Y733439D01*
X1078328Y735000D01*
X1078018Y736561D01*
X1077134Y737884D01*
Y740116D01*
X1078018Y741439D01*
X1078328Y743000D01*
X1078149Y743902D01*
X1079137Y745555D01*
X1079527Y745902D01*
X1089888D01*
X1090000Y745790D01*
Y737000D01*
X1090652D01*
Y723000D01*
X1090000D01*
Y707000D01*
X1090652D01*
Y693000D01*
X1090000D01*
Y677000D01*
X1094290D01*
X1094902Y676388D01*
Y657531D01*
X1091219D01*
Y642979D01*
X1108781D01*
Y657531D01*
X1105098D01*
Y675127D01*
X1106960Y675460D01*
X1107098Y675460D01*
X1112980D01*
Y683730D01*
X1106960D01*
Y679391D01*
X1104960Y679194D01*
X1104710Y680451D01*
X1103605Y682105D01*
X1101500Y684210D01*
Y693000D01*
X1100848D01*
Y707000D01*
X1101500D01*
Y723000D01*
X1100848D01*
Y737000D01*
X1101500D01*
Y753000D01*
X1100848D01*
Y767000D01*
X1101500D01*
Y783000D01*
X1100848D01*
Y844250D01*
X1100460Y846201D01*
X1099355Y847855D01*
X1085353Y861857D01*
Y866219D01*
X1087531D01*
Y883781D01*
X1085480D01*
Y901219D01*
X1087786D01*
Y918781D01*
X1073233D01*
Y901219D01*
X1075284D01*
Y883781D01*
X1072979D01*
Y866219D01*
X1075157D01*
Y859745D01*
X1075545Y857794D01*
X1076650Y856140D01*
X1090652Y842138D01*
Y783000D01*
X1090000D01*
Y767000D01*
X1090652D01*
Y756098D01*
X1081196D01*
X1079991Y757730D01*
X1067500D01*
Y760270D01*
X1079646D01*
X1079469Y761162D01*
X1078244Y762994D01*
X1078018Y765439D01*
X1078328Y767000D01*
X1078018Y768561D01*
X1077134Y769884D01*
Y772116D01*
X1078018Y773439D01*
X1078328Y775000D01*
X1078195Y775672D01*
X1086637Y784113D01*
X1087138Y784864D01*
X1087315Y785750D01*
Y818512D01*
X1087270Y818735D01*
X1087350Y819032D01*
Y820968D01*
X1086849Y822837D01*
X1085882Y824513D01*
X1084513Y825882D01*
X1082837Y826849D01*
X1080968Y827350D01*
X1079032D01*
X1077163Y826849D01*
X1075487Y825882D01*
X1074118Y824513D01*
X1073151Y822837D01*
X1072650Y820968D01*
Y819032D01*
X1073151Y817163D01*
X1074118Y815487D01*
X1075487Y814118D01*
X1077163Y813151D01*
X1079032Y812650D01*
X1080968D01*
X1081099Y812685D01*
X1082685Y811468D01*
Y786709D01*
X1080137Y784160D01*
X1078270Y784513D01*
X1077894Y784746D01*
X1077134Y785884D01*
X1075811Y786768D01*
X1074250Y787078D01*
X1072315D01*
Y793011D01*
X1072837Y793151D01*
X1074513Y794118D01*
X1075882Y795487D01*
X1076849Y797163D01*
X1077350Y799032D01*
Y800968D01*
X1076849Y802837D01*
X1075882Y804513D01*
X1074513Y805882D01*
X1072837Y806849D01*
X1070968Y807350D01*
X1069032D01*
X1067163Y806849D01*
X1065487Y805882D01*
X1064314Y804709D01*
X1063475Y804825D01*
X1062315Y805388D01*
Y837430D01*
X1064214Y839283D01*
X1065353Y839252D01*
X1065487Y839118D01*
X1067163Y838151D01*
X1069032Y837650D01*
X1070968D01*
X1072837Y838151D01*
X1074513Y839118D01*
X1075882Y840487D01*
X1076849Y842163D01*
X1077350Y844032D01*
Y845968D01*
X1076849Y847837D01*
X1075882Y849513D01*
X1074513Y850882D01*
X1072837Y851849D01*
X1070968Y852350D01*
X1069032D01*
X1067163Y851849D01*
X1065487Y850882D01*
X1064118Y849513D01*
X1063151Y847837D01*
X1062650Y845968D01*
Y845290D01*
X1062170Y845194D01*
X1061419Y844693D01*
X1058363Y841637D01*
X1057862Y840886D01*
X1057685Y840000D01*
Y809896D01*
X1055957Y808717D01*
X1055686Y808734D01*
X1055314Y809235D01*
Y832000D01*
X1055138Y832886D01*
X1054637Y833637D01*
X1042204Y846069D01*
X1043239Y847863D01*
X1044032Y847650D01*
X1045968D01*
X1047837Y848151D01*
X1049513Y849118D01*
X1050882Y850487D01*
X1051849Y852163D01*
X1052350Y854032D01*
Y855968D01*
X1051849Y857837D01*
X1050882Y859513D01*
X1049513Y860882D01*
X1047837Y861849D01*
X1045968Y862350D01*
X1044032D01*
X1042163Y861849D01*
X1041694Y861579D01*
X1038030Y865244D01*
X1037279Y865745D01*
X1036393Y865921D01*
X1026852D01*
X1021500Y871273D01*
Y882000D01*
X1022987Y883238D01*
X1024513Y884118D01*
X1025882Y885487D01*
X1026849Y887163D01*
X1027350Y889032D01*
Y890968D01*
X1026849Y892837D01*
X1025882Y894513D01*
X1024513Y895882D01*
X1022837Y896849D01*
X1020968Y897350D01*
X1019032D01*
X1017163Y896849D01*
X1015487Y895882D01*
X1014350Y894744D01*
X1013383Y894903D01*
X1012350Y895450D01*
Y895968D01*
X1011849Y897837D01*
X1011579Y898306D01*
X1013315Y900041D01*
X1013816Y900792D01*
X1013992Y901678D01*
Y903000D01*
X1021500D01*
Y913727D01*
X1055459Y947685D01*
X1115400D01*
X1116286Y947862D01*
X1117037Y948363D01*
X1125887Y957214D01*
X1126926Y956613D01*
X1129215Y956000D01*
X1131585D01*
X1133874Y956613D01*
X1135926Y957798D01*
X1137602Y959474D01*
X1138787Y961526D01*
X1139400Y963815D01*
Y966185D01*
X1138787Y968474D01*
X1137602Y970526D01*
X1135926Y972202D01*
X1133874Y973387D01*
X1131585Y974000D01*
X1129215D01*
X1126926Y973387D01*
X1124874Y972202D01*
X1123198Y970526D01*
X1122013Y968474D01*
X1121400Y966185D01*
Y963815D01*
X1122013Y961526D01*
X1122614Y960487D01*
X1114441Y952315D01*
X1054500D01*
X1053614Y952138D01*
X1052863Y951637D01*
X1018227Y917000D01*
X1007500D01*
Y904010D01*
X1006073Y902464D01*
X1005769Y902350D01*
X1004032D01*
X1002163Y901849D01*
X1000487Y900882D01*
X999314Y899709D01*
X998475Y899825D01*
X997315Y900388D01*
Y935000D01*
X997138Y935886D01*
X996637Y936637D01*
X952315Y980959D01*
Y983011D01*
X952837Y983151D01*
X954513Y984118D01*
X955882Y985487D01*
X956849Y987163D01*
X957350Y989032D01*
Y990968D01*
X956849Y992837D01*
X955882Y994513D01*
X954513Y995882D01*
X952837Y996849D01*
X950968Y997350D01*
D02*
G37*
G36*
X891388Y975540D02*
X891270D01*
Y966270D01*
X900540D01*
Y966388D01*
X899822Y969068D01*
X898434Y971472D01*
X896472Y973434D01*
X894068Y974822D01*
X891388Y975540D01*
D02*
G37*
G36*
X888730D02*
X888612D01*
X885932Y974822D01*
X883528Y973434D01*
X881566Y971472D01*
X880178Y969068D01*
X879460Y966388D01*
Y966270D01*
X888730D01*
Y975540D01*
D02*
G37*
G36*
X1182385Y974000D02*
X1180015D01*
X1177726Y973387D01*
X1175674Y972202D01*
X1173998Y970526D01*
X1172813Y968474D01*
X1172200Y966185D01*
Y963815D01*
X1172813Y961526D01*
X1173998Y959474D01*
X1175674Y957798D01*
X1177726Y956613D01*
X1180015Y956000D01*
X1182385D01*
X1184674Y956613D01*
X1186726Y957798D01*
X1188402Y959474D01*
X1189587Y961526D01*
X1190200Y963815D01*
Y966185D01*
X1189587Y968474D01*
X1188402Y970526D01*
X1186726Y972202D01*
X1184674Y973387D01*
X1182385Y974000D01*
D02*
G37*
G36*
X1156985D02*
X1154615D01*
X1152326Y973387D01*
X1150274Y972202D01*
X1148598Y970526D01*
X1147413Y968474D01*
X1146800Y966185D01*
Y963815D01*
X1147413Y961526D01*
X1148014Y960487D01*
X1118813Y931286D01*
X1117837Y931849D01*
X1115968Y932350D01*
X1114032D01*
X1112163Y931849D01*
X1110487Y930882D01*
X1109118Y929513D01*
X1108151Y927837D01*
X1107650Y925968D01*
Y924032D01*
X1108151Y922163D01*
X1109118Y920487D01*
X1110487Y919118D01*
X1112163Y918151D01*
X1114032Y917650D01*
X1115968D01*
X1117837Y918151D01*
X1119513Y919118D01*
X1120882Y920487D01*
X1121849Y922163D01*
X1122350Y924032D01*
Y925968D01*
X1121862Y927789D01*
X1151287Y957214D01*
X1152326Y956613D01*
X1154615Y956000D01*
X1156985D01*
X1159274Y956613D01*
X1161326Y957798D01*
X1163002Y959474D01*
X1164187Y961526D01*
X1164800Y963815D01*
Y966185D01*
X1164187Y968474D01*
X1163002Y970526D01*
X1161326Y972202D01*
X1159274Y973387D01*
X1156985Y974000D01*
D02*
G37*
G36*
X1106185D02*
X1103815D01*
X1101526Y973387D01*
X1099474Y972202D01*
X1097798Y970526D01*
X1096613Y968474D01*
X1096000Y966185D01*
Y963815D01*
X1096613Y961526D01*
X1097798Y959474D01*
X1099474Y957798D01*
X1101526Y956613D01*
X1103815Y956000D01*
X1106185D01*
X1108474Y956613D01*
X1110526Y957798D01*
X1112202Y959474D01*
X1113387Y961526D01*
X1114000Y963815D01*
Y966185D01*
X1113387Y968474D01*
X1112202Y970526D01*
X1110526Y972202D01*
X1108474Y973387D01*
X1106185Y974000D01*
D02*
G37*
G36*
X1080785D02*
X1078415D01*
X1076126Y973387D01*
X1074074Y972202D01*
X1072398Y970526D01*
X1071213Y968474D01*
X1070600Y966185D01*
Y963815D01*
X1071213Y961526D01*
X1072398Y959474D01*
X1074074Y957798D01*
X1076126Y956613D01*
X1078415Y956000D01*
X1080785D01*
X1083074Y956613D01*
X1085126Y957798D01*
X1086802Y959474D01*
X1087987Y961526D01*
X1088600Y963815D01*
Y966185D01*
X1087987Y968474D01*
X1086802Y970526D01*
X1085126Y972202D01*
X1083074Y973387D01*
X1080785Y974000D01*
D02*
G37*
G36*
X1055385D02*
X1053015D01*
X1050726Y973387D01*
X1048674Y972202D01*
X1046998Y970526D01*
X1045813Y968474D01*
X1045200Y966185D01*
Y963815D01*
X1045813Y961526D01*
X1046998Y959474D01*
X1048674Y957798D01*
X1050726Y956613D01*
X1053015Y956000D01*
X1055385D01*
X1057674Y956613D01*
X1059726Y957798D01*
X1061402Y959474D01*
X1062587Y961526D01*
X1063200Y963815D01*
Y966185D01*
X1062587Y968474D01*
X1061402Y970526D01*
X1059726Y972202D01*
X1057674Y973387D01*
X1055385Y974000D01*
D02*
G37*
G36*
X1029985D02*
X1027615D01*
X1025326Y973387D01*
X1023274Y972202D01*
X1021598Y970526D01*
X1020413Y968474D01*
X1019800Y966185D01*
Y963815D01*
X1020413Y961526D01*
X1021598Y959474D01*
X1023274Y957798D01*
X1025326Y956613D01*
X1027615Y956000D01*
X1029985D01*
X1032274Y956613D01*
X1034326Y957798D01*
X1036002Y959474D01*
X1037187Y961526D01*
X1037800Y963815D01*
Y966185D01*
X1037187Y968474D01*
X1036002Y970526D01*
X1034326Y972202D01*
X1032274Y973387D01*
X1029985Y974000D01*
D02*
G37*
G36*
X1004585D02*
X1002215D01*
X999926Y973387D01*
X997874Y972202D01*
X996198Y970526D01*
X995013Y968474D01*
X994400Y966185D01*
Y963815D01*
X995013Y961526D01*
X996198Y959474D01*
X997874Y957798D01*
X999926Y956613D01*
X1002215Y956000D01*
X1004585D01*
X1006874Y956613D01*
X1008926Y957798D01*
X1010602Y959474D01*
X1011787Y961526D01*
X1012400Y963815D01*
Y966185D01*
X1011787Y968474D01*
X1010602Y970526D01*
X1008926Y972202D01*
X1006874Y973387D01*
X1004585Y974000D01*
D02*
G37*
G36*
X916585D02*
X914215D01*
X911926Y973387D01*
X909874Y972202D01*
X908198Y970526D01*
X907013Y968474D01*
X906400Y966185D01*
Y963815D01*
X907013Y961526D01*
X908198Y959474D01*
X909874Y957798D01*
X911926Y956613D01*
X914215Y956000D01*
X916585D01*
X918874Y956613D01*
X920926Y957798D01*
X922602Y959474D01*
X923787Y961526D01*
X924400Y963815D01*
Y966185D01*
X923787Y968474D01*
X922602Y970526D01*
X920926Y972202D01*
X918874Y973387D01*
X916585Y974000D01*
D02*
G37*
G36*
X840385D02*
X838015D01*
X835726Y973387D01*
X833674Y972202D01*
X831998Y970526D01*
X830813Y968474D01*
X830200Y966185D01*
Y963815D01*
X830813Y961526D01*
X831998Y959474D01*
X833674Y957798D01*
X835726Y956613D01*
X838015Y956000D01*
X840385D01*
X842674Y956613D01*
X844726Y957798D01*
X846402Y959474D01*
X847587Y961526D01*
X848200Y963815D01*
Y966185D01*
X847587Y968474D01*
X846402Y970526D01*
X844726Y972202D01*
X842674Y973387D01*
X840385Y974000D01*
D02*
G37*
G36*
X814985D02*
X812615D01*
X810326Y973387D01*
X808274Y972202D01*
X806598Y970526D01*
X805413Y968474D01*
X804800Y966185D01*
Y963815D01*
X805413Y961526D01*
X806598Y959474D01*
X808274Y957798D01*
X810326Y956613D01*
X812615Y956000D01*
X814985D01*
X817274Y956613D01*
X819326Y957798D01*
X821002Y959474D01*
X822187Y961526D01*
X822800Y963815D01*
Y966185D01*
X822187Y968474D01*
X821002Y970526D01*
X819326Y972202D01*
X817274Y973387D01*
X814985Y974000D01*
D02*
G37*
G36*
X789585D02*
X787215D01*
X784926Y973387D01*
X782874Y972202D01*
X781198Y970526D01*
X780013Y968474D01*
X779400Y966185D01*
Y963815D01*
X780013Y961526D01*
X781198Y959474D01*
X782874Y957798D01*
X784926Y956613D01*
X787215Y956000D01*
X789585D01*
X791874Y956613D01*
X793926Y957798D01*
X795602Y959474D01*
X796787Y961526D01*
X797400Y963815D01*
Y966185D01*
X796787Y968474D01*
X795602Y970526D01*
X793926Y972202D01*
X791874Y973387D01*
X789585Y974000D01*
D02*
G37*
G36*
X738785D02*
X736415D01*
X734126Y973387D01*
X732074Y972202D01*
X730398Y970526D01*
X729213Y968474D01*
X728600Y966185D01*
Y963815D01*
X729213Y961526D01*
X730398Y959474D01*
X732074Y957798D01*
X734126Y956613D01*
X736415Y956000D01*
X738785D01*
X741074Y956613D01*
X743126Y957798D01*
X744802Y959474D01*
X745987Y961526D01*
X746600Y963815D01*
Y966185D01*
X745987Y968474D01*
X744802Y970526D01*
X743126Y972202D01*
X741074Y973387D01*
X738785Y974000D01*
D02*
G37*
G36*
X900540Y963730D02*
X891270D01*
Y954460D01*
X891388D01*
X894068Y955178D01*
X896472Y956566D01*
X898434Y958528D01*
X899822Y960932D01*
X900540Y963612D01*
Y963730D01*
D02*
G37*
G36*
X888730D02*
X879460D01*
Y963612D01*
X880178Y960932D01*
X881566Y958528D01*
X883528Y956566D01*
X885932Y955178D01*
X888612Y954460D01*
X888730D01*
Y963730D01*
D02*
G37*
G36*
X878855Y927790D02*
X878770D01*
Y918770D01*
X887790D01*
Y918855D01*
X887089Y921472D01*
X885734Y923818D01*
X883818Y925734D01*
X881472Y927089D01*
X878855Y927790D01*
D02*
G37*
G36*
X876230D02*
X876145D01*
X873528Y927089D01*
X871182Y925734D01*
X869266Y923818D01*
X867911Y921472D01*
X867210Y918855D01*
Y918770D01*
X876230D01*
Y927790D01*
D02*
G37*
G36*
X1067276Y918781D02*
X1052724D01*
Y912315D01*
X1042500D01*
Y917000D01*
X1028500D01*
Y903000D01*
X1042500D01*
Y907685D01*
X1052724D01*
Y901219D01*
X1067276D01*
Y918781D01*
D02*
G37*
G36*
X887790Y916230D02*
X878770D01*
Y907210D01*
X878855D01*
X881472Y907911D01*
X883818Y909266D01*
X885734Y911182D01*
X887089Y913528D01*
X887790Y916145D01*
Y916230D01*
D02*
G37*
G36*
X876230D02*
X867210D01*
Y916145D01*
X867911Y913528D01*
X869266Y911182D01*
X871182Y909266D01*
X873528Y907911D01*
X876145Y907210D01*
X876230D01*
Y916230D01*
D02*
G37*
G36*
X842790D02*
X833770D01*
Y907210D01*
X833855D01*
X836472Y907911D01*
X838818Y909266D01*
X840734Y911182D01*
X842089Y913528D01*
X842790Y916145D01*
Y916230D01*
D02*
G37*
G36*
X831230D02*
X822210D01*
Y916145D01*
X822911Y913528D01*
X824266Y911182D01*
X826182Y909266D01*
X828528Y907911D01*
X831145Y907210D01*
X831230D01*
Y916230D01*
D02*
G37*
G36*
X1067021Y883781D02*
X1052469D01*
Y877315D01*
X1042500D01*
Y882000D01*
X1028500D01*
Y868000D01*
X1042500D01*
Y872685D01*
X1052469D01*
Y866219D01*
X1067021D01*
Y883781D01*
D02*
G37*
G36*
X841250Y861250D02*
X823750D01*
Y843750D01*
X841250D01*
Y861250D01*
D02*
G37*
G36*
X777786Y853781D02*
X763233D01*
Y836219D01*
X777786D01*
Y842685D01*
X798000D01*
Y838500D01*
X812000D01*
Y852500D01*
X798000D01*
Y847315D01*
X777786D01*
Y853781D01*
D02*
G37*
G36*
X1196185Y851000D02*
X1193815D01*
X1191526Y850387D01*
X1189474Y849202D01*
X1187798Y847526D01*
X1186613Y845474D01*
X1186000Y843185D01*
Y840815D01*
X1186613Y838526D01*
X1187798Y836474D01*
X1189474Y834798D01*
X1191526Y833613D01*
X1193815Y833000D01*
X1196185D01*
X1198474Y833613D01*
X1200526Y834798D01*
X1202202Y836474D01*
X1203387Y838526D01*
X1204000Y840815D01*
Y843185D01*
X1203387Y845474D01*
X1202202Y847526D01*
X1200526Y849202D01*
X1198474Y850387D01*
X1196185Y851000D01*
D02*
G37*
G36*
X813540Y833040D02*
X806270D01*
Y825770D01*
X813540D01*
Y833040D01*
D02*
G37*
G36*
X803730D02*
X796460D01*
Y825770D01*
X803730D01*
Y833040D01*
D02*
G37*
G36*
X702000Y855000D02*
X690000D01*
Y835000D01*
X691422D01*
Y831421D01*
X690487Y830882D01*
X689118Y829513D01*
X688151Y827837D01*
X687650Y825968D01*
Y824032D01*
X688151Y822163D01*
X689118Y820487D01*
X690487Y819118D01*
X692163Y818151D01*
X694032Y817650D01*
X695968D01*
X697837Y818151D01*
X699513Y819118D01*
X700882Y820487D01*
X701849Y822163D01*
X702350Y824032D01*
Y825968D01*
X701849Y827837D01*
X700882Y829513D01*
X699578Y830816D01*
Y835000D01*
X702000D01*
Y855000D01*
D02*
G37*
G36*
X813540Y823230D02*
X806270D01*
Y815960D01*
X813540D01*
Y823230D01*
D02*
G37*
G36*
X1196185Y825600D02*
X1193815D01*
X1191526Y824987D01*
X1189474Y823802D01*
X1187798Y822126D01*
X1186613Y820074D01*
X1186000Y817785D01*
Y815415D01*
X1186613Y813126D01*
X1187798Y811074D01*
X1189474Y809398D01*
X1191526Y808213D01*
X1193815Y807600D01*
X1196185D01*
X1198474Y808213D01*
X1200526Y809398D01*
X1202202Y811074D01*
X1203387Y813126D01*
X1204000Y815415D01*
Y817785D01*
X1203387Y820074D01*
X1202202Y822126D01*
X1200526Y823802D01*
X1198474Y824987D01*
X1196185Y825600D01*
D02*
G37*
G36*
X692350Y799317D02*
X684350D01*
X682009Y798852D01*
X680024Y797526D01*
X678698Y795541D01*
X678232Y793200D01*
X678698Y790859D01*
X680024Y788874D01*
X682009Y787548D01*
X684350Y787082D01*
X692350D01*
X694691Y787548D01*
X696676Y788874D01*
X698002Y790859D01*
X698467Y793200D01*
X698002Y795541D01*
X696676Y797526D01*
X694691Y798852D01*
X692350Y799317D01*
D02*
G37*
G36*
X843040Y794040D02*
X834270D01*
Y782770D01*
X843040D01*
Y794040D01*
D02*
G37*
G36*
X831730D02*
X822960D01*
Y782770D01*
X831730D01*
Y794040D01*
D02*
G37*
G36*
X1196185Y800200D02*
X1193815D01*
X1191526Y799587D01*
X1189474Y798402D01*
X1187798Y796726D01*
X1186613Y794674D01*
X1186000Y792385D01*
Y790015D01*
X1186613Y787726D01*
X1187798Y785674D01*
X1189474Y783998D01*
X1191526Y782813D01*
X1193815Y782200D01*
X1196185D01*
X1198474Y782813D01*
X1200526Y783998D01*
X1202202Y785674D01*
X1203387Y787726D01*
X1204000Y790015D01*
Y792385D01*
X1203387Y794674D01*
X1202202Y796726D01*
X1200526Y798402D01*
X1198474Y799587D01*
X1196185Y800200D01*
D02*
G37*
G36*
X1121540Y784540D02*
X1115520D01*
Y776270D01*
X1121540D01*
Y784540D01*
D02*
G37*
G36*
X1112980D02*
X1106960D01*
Y776270D01*
X1112980D01*
Y784540D01*
D02*
G37*
G36*
X843040Y780230D02*
X834270D01*
Y768960D01*
X843040D01*
Y780230D01*
D02*
G37*
G36*
X831730D02*
X822960D01*
Y768960D01*
X831730D01*
Y780230D01*
D02*
G37*
G36*
X1121540Y773730D02*
X1115520D01*
Y765460D01*
X1121540D01*
Y773730D01*
D02*
G37*
G36*
X1112980D02*
X1106960D01*
Y765460D01*
X1112980D01*
Y773730D01*
D02*
G37*
G36*
X1196185Y774800D02*
X1193815D01*
X1191526Y774187D01*
X1189474Y773002D01*
X1187798Y771326D01*
X1186613Y769274D01*
X1186000Y766985D01*
Y764615D01*
X1186613Y762326D01*
X1187798Y760274D01*
X1189474Y758598D01*
X1191526Y757413D01*
X1193815Y756800D01*
X1196185D01*
X1198474Y757413D01*
X1200526Y758598D01*
X1202202Y760274D01*
X1203387Y762326D01*
X1204000Y764615D01*
Y766985D01*
X1203387Y769274D01*
X1202202Y771326D01*
X1200526Y773002D01*
X1198474Y774187D01*
X1196185Y774800D01*
D02*
G37*
G36*
X1121540Y754540D02*
X1115520D01*
Y746270D01*
X1121540D01*
Y754540D01*
D02*
G37*
G36*
X1112980D02*
X1106960D01*
Y746270D01*
X1112980D01*
Y754540D01*
D02*
G37*
G36*
X1121540Y743730D02*
X1115520D01*
Y735460D01*
X1121540D01*
Y743730D01*
D02*
G37*
G36*
X1112980D02*
X1106960D01*
Y735460D01*
X1112980D01*
Y743730D01*
D02*
G37*
G36*
X1196185Y749400D02*
X1193815D01*
X1191526Y748787D01*
X1189474Y747602D01*
X1187798Y745926D01*
X1186613Y743874D01*
X1186000Y741585D01*
Y739215D01*
X1186613Y736926D01*
X1187798Y734874D01*
X1189474Y733198D01*
X1191526Y732013D01*
X1193815Y731400D01*
X1196185D01*
X1198474Y732013D01*
X1200526Y733198D01*
X1202202Y734874D01*
X1203387Y736926D01*
X1204000Y739215D01*
Y741585D01*
X1203387Y743874D01*
X1202202Y745926D01*
X1200526Y747602D01*
X1198474Y748787D01*
X1196185Y749400D01*
D02*
G37*
G36*
X735650Y799317D02*
X724650D01*
X722309Y798852D01*
X720324Y797526D01*
X718998Y795541D01*
X718532Y793200D01*
X718998Y790859D01*
X720324Y788874D01*
X722309Y787548D01*
X724650Y787082D01*
X727610D01*
Y784646D01*
X725995Y783150D01*
X724305D01*
X722742Y782503D01*
X721547Y781307D01*
X720900Y779745D01*
Y778055D01*
X721547Y776493D01*
X722742Y775297D01*
X724305Y774650D01*
X725995D01*
X727150Y775128D01*
X728535Y774538D01*
X729150Y774061D01*
Y772000D01*
X729150Y770000D01*
X729150D01*
Y770000D01*
X729150D01*
Y764815D01*
X707500D01*
X706614Y764638D01*
X705863Y764137D01*
X693363Y751637D01*
X692862Y750886D01*
X692685Y750000D01*
Y741989D01*
X692163Y741849D01*
X690487Y740882D01*
X689118Y739513D01*
X688151Y737837D01*
X687650Y735968D01*
Y734032D01*
X688151Y732163D01*
X689118Y730487D01*
X690487Y729118D01*
X692163Y728151D01*
X694032Y727650D01*
X695968D01*
X697837Y728151D01*
X699513Y729118D01*
X700686Y730291D01*
X701525Y730175D01*
X702685Y729612D01*
Y681989D01*
X702163Y681849D01*
X700487Y680882D01*
X699118Y679513D01*
X698151Y677837D01*
X697650Y675968D01*
Y674032D01*
X698151Y672163D01*
X699118Y670487D01*
X700487Y669118D01*
X702163Y668151D01*
X704032Y667650D01*
X705968D01*
X707837Y668151D01*
X709513Y669118D01*
X710882Y670487D01*
X711849Y672163D01*
X711958Y672569D01*
X712371Y672714D01*
X714072Y672731D01*
X714761Y671537D01*
X716130Y670168D01*
X717805Y669201D01*
X719675Y668700D01*
X721610D01*
X723480Y669201D01*
X725155Y670168D01*
X726524Y671537D01*
X727492Y673213D01*
X727992Y675082D01*
Y677017D01*
X727492Y678887D01*
X726524Y680563D01*
X725155Y681931D01*
X723480Y682899D01*
X721610Y683400D01*
X719874D01*
X719694Y683579D01*
Y700490D01*
X721694Y701559D01*
X722309Y701148D01*
X724650Y700683D01*
X735650D01*
X737991Y701148D01*
X739976Y702474D01*
X741302Y704459D01*
X741768Y706800D01*
X741302Y709141D01*
X740421Y710460D01*
X741303Y712457D01*
X741307Y712460D01*
X744190D01*
Y716730D01*
X735900D01*
Y719270D01*
X744190D01*
Y721922D01*
X758150D01*
X758150Y721922D01*
X759711Y722232D01*
X761034Y723116D01*
X767884Y729966D01*
X768768Y731289D01*
X769078Y732850D01*
X769078Y732850D01*
Y761485D01*
X768768Y763046D01*
X767884Y764369D01*
X767884Y764369D01*
X762350Y769903D01*
Y770968D01*
X761849Y772837D01*
X760882Y774513D01*
X759513Y775882D01*
X757837Y776849D01*
X755968Y777350D01*
X754032D01*
X752163Y776849D01*
X750487Y775882D01*
X750187Y775581D01*
X748884Y776884D01*
X747561Y777768D01*
X746000Y778078D01*
X744190Y778451D01*
Y780730D01*
X735900D01*
Y783270D01*
X744190D01*
Y787540D01*
X741307D01*
X741303Y787543D01*
X740421Y789540D01*
X741302Y790859D01*
X741768Y793200D01*
X741302Y795541D01*
X739976Y797526D01*
X737991Y798852D01*
X735650Y799317D01*
D02*
G37*
G36*
X1121540Y724540D02*
X1115520D01*
Y716270D01*
X1121540D01*
Y724540D01*
D02*
G37*
G36*
X1112980D02*
X1106960D01*
Y716270D01*
X1112980D01*
Y724540D01*
D02*
G37*
G36*
X1196185Y724000D02*
X1193815D01*
X1191526Y723387D01*
X1189474Y722202D01*
X1187798Y720526D01*
X1186613Y718474D01*
X1186000Y716185D01*
Y713815D01*
X1186613Y711526D01*
X1187798Y709474D01*
X1189474Y707798D01*
X1191526Y706613D01*
X1193815Y706000D01*
X1196185D01*
X1198474Y706613D01*
X1200526Y707798D01*
X1202202Y709474D01*
X1203387Y711526D01*
X1204000Y713815D01*
Y716185D01*
X1203387Y718474D01*
X1202202Y720526D01*
X1200526Y722202D01*
X1198474Y723387D01*
X1196185Y724000D01*
D02*
G37*
G36*
X1121540Y713730D02*
X1115520D01*
Y705460D01*
X1121540D01*
Y713730D01*
D02*
G37*
G36*
X1112980D02*
X1106960D01*
Y705460D01*
X1112980D01*
Y713730D01*
D02*
G37*
G36*
X692350Y712917D02*
X684350D01*
X682009Y712452D01*
X680024Y711126D01*
X678698Y709141D01*
X678232Y706800D01*
X678698Y704459D01*
X680024Y702474D01*
X682009Y701148D01*
X684350Y700683D01*
X692350D01*
X694691Y701148D01*
X696676Y702474D01*
X698002Y704459D01*
X698467Y706800D01*
X698002Y709141D01*
X696676Y711126D01*
X694691Y712452D01*
X692350Y712917D01*
D02*
G37*
G36*
X852290Y704540D02*
X846270D01*
Y696270D01*
X852290D01*
Y704540D01*
D02*
G37*
G36*
X843730D02*
X837710D01*
Y696270D01*
X843730D01*
Y704540D01*
D02*
G37*
G36*
X869250Y703000D02*
X857750D01*
Y691581D01*
X856884Y691408D01*
X856133Y690907D01*
X854138Y688911D01*
X852290Y689676D01*
Y693730D01*
X846270D01*
Y685460D01*
X848074D01*
X848839Y683612D01*
X845311Y680084D01*
X844513Y680882D01*
X842837Y681849D01*
X840968Y682350D01*
X839032D01*
X837163Y681849D01*
X835487Y680882D01*
X834118Y679513D01*
X833151Y677837D01*
X832650Y675968D01*
Y674032D01*
X832835Y673340D01*
X831453Y671340D01*
X826270D01*
Y667070D01*
X835045D01*
X837040Y668222D01*
X837163Y668151D01*
X839032Y667650D01*
X840968D01*
X842837Y668151D01*
X844513Y669118D01*
X845882Y670487D01*
X846849Y672163D01*
X847350Y674032D01*
Y675577D01*
X858729Y686955D01*
X860020D01*
X860244Y687000D01*
X869250D01*
Y703000D01*
D02*
G37*
G36*
X1121540Y694540D02*
X1115520D01*
Y686270D01*
X1121540D01*
Y694540D01*
D02*
G37*
G36*
X1112980D02*
X1106960D01*
Y686270D01*
X1112980D01*
Y694540D01*
D02*
G37*
G36*
X843730Y693730D02*
X837710D01*
Y685460D01*
X843730D01*
Y693730D01*
D02*
G37*
G36*
X1196185Y698600D02*
X1193815D01*
X1191526Y697987D01*
X1189474Y696802D01*
X1187798Y695126D01*
X1186613Y693074D01*
X1186000Y690785D01*
Y688415D01*
X1186613Y686126D01*
X1187798Y684074D01*
X1189474Y682398D01*
X1191526Y681213D01*
X1193815Y680600D01*
X1196185D01*
X1198474Y681213D01*
X1200526Y682398D01*
X1202202Y684074D01*
X1203387Y686126D01*
X1204000Y688415D01*
Y690785D01*
X1203387Y693074D01*
X1202202Y695126D01*
X1200526Y696802D01*
X1198474Y697987D01*
X1196185Y698600D01*
D02*
G37*
G36*
X1121540Y683730D02*
X1115520D01*
Y675460D01*
X1121540D01*
Y683730D01*
D02*
G37*
G36*
X1065968Y682350D02*
X1064032D01*
X1062163Y681849D01*
X1060487Y680882D01*
X1059118Y679513D01*
X1058151Y677837D01*
X1057650Y675968D01*
Y674032D01*
X1058151Y672163D01*
X1058421Y671694D01*
X1044041Y657315D01*
X1037531D01*
Y663781D01*
X1022979D01*
Y646219D01*
X1037531D01*
Y652685D01*
X1045000D01*
X1045886Y652862D01*
X1046637Y653363D01*
X1061694Y668421D01*
X1062163Y668151D01*
X1064032Y667650D01*
X1065968D01*
X1067837Y668151D01*
X1069513Y669118D01*
X1070882Y670487D01*
X1071849Y672163D01*
X1072350Y674032D01*
Y675968D01*
X1071849Y677837D01*
X1070882Y679513D01*
X1069513Y680882D01*
X1067837Y681849D01*
X1065968Y682350D01*
D02*
G37*
G36*
X823730Y671340D02*
X814960D01*
Y667070D01*
X823730D01*
Y671340D01*
D02*
G37*
G36*
X835040Y664530D02*
X826270D01*
Y660260D01*
X835040D01*
Y664530D01*
D02*
G37*
G36*
X823730D02*
X814960D01*
Y660260D01*
X823730D01*
Y664530D01*
D02*
G37*
G36*
X949790Y664290D02*
X943770D01*
Y656270D01*
X949790D01*
Y664290D01*
D02*
G37*
G36*
X751270Y664019D02*
Y656270D01*
X759019D01*
X758424Y658489D01*
X757234Y660551D01*
X755551Y662234D01*
X753489Y663424D01*
X751270Y664019D01*
D02*
G37*
G36*
X748730D02*
X746511Y663424D01*
X744449Y662234D01*
X742766Y660551D01*
X741576Y658489D01*
X740981Y656270D01*
X748730D01*
Y664019D01*
D02*
G37*
G36*
X1196185Y673200D02*
X1193815D01*
X1191526Y672587D01*
X1189474Y671402D01*
X1187798Y669726D01*
X1186613Y667674D01*
X1186000Y665385D01*
Y663015D01*
X1186613Y660726D01*
X1187798Y658674D01*
X1189474Y656998D01*
X1191526Y655813D01*
X1193815Y655200D01*
X1196185D01*
X1198474Y655813D01*
X1200526Y656998D01*
X1202202Y658674D01*
X1203387Y660726D01*
X1204000Y663015D01*
Y665385D01*
X1203387Y667674D01*
X1202202Y669726D01*
X1200526Y671402D01*
X1198474Y672587D01*
X1196185Y673200D01*
D02*
G37*
G36*
X883500Y657178D02*
X874500D01*
X872939Y656868D01*
X871616Y655984D01*
X870732Y654661D01*
X870422Y653100D01*
X870732Y651539D01*
X871616Y650216D01*
X872939Y649332D01*
X874500Y649022D01*
X883500D01*
X885061Y649332D01*
X886384Y650216D01*
X887268Y651539D01*
X887578Y653100D01*
X887268Y654661D01*
X886384Y655984D01*
X885061Y656868D01*
X883500Y657178D01*
D02*
G37*
G36*
X759019Y653730D02*
X751270D01*
Y645981D01*
X753489Y646576D01*
X755551Y647766D01*
X757234Y649449D01*
X758424Y651511D01*
X759019Y653730D01*
D02*
G37*
G36*
X748730D02*
X740981D01*
X741576Y651511D01*
X742766Y649449D01*
X744449Y647766D01*
X746511Y646576D01*
X748730Y645981D01*
Y653730D01*
D02*
G37*
G36*
X950054D02*
X943770D01*
Y645710D01*
X949790D01*
Y650045D01*
X949960Y650299D01*
X950348Y652250D01*
X950054Y653730D01*
D02*
G37*
G36*
X850968Y647350D02*
X849032D01*
X847163Y646849D01*
X845487Y645882D01*
X844118Y644513D01*
X843151Y642837D01*
X843064Y642514D01*
X832898D01*
X832384Y643284D01*
X831061Y644168D01*
X829500Y644478D01*
X820500D01*
X818939Y644168D01*
X817616Y643284D01*
X816732Y641961D01*
X816422Y640400D01*
X816732Y638839D01*
X817616Y637516D01*
X818939Y636632D01*
X820500Y636322D01*
X829500D01*
X831061Y636632D01*
X832384Y637516D01*
X832631Y637886D01*
X842957D01*
X843151Y637163D01*
X844118Y635487D01*
X845487Y634118D01*
X846370Y633609D01*
Y631391D01*
X845487Y630882D01*
X844118Y629513D01*
X843151Y627837D01*
X843011Y627314D01*
X840180D01*
X838158Y629337D01*
X837407Y629838D01*
X836522Y630014D01*
X832764D01*
X832384Y630584D01*
X831061Y631468D01*
X829500Y631778D01*
X820500D01*
X818939Y631468D01*
X817616Y630584D01*
X816732Y629261D01*
X816422Y627700D01*
X816732Y626139D01*
X817616Y624816D01*
X818939Y623932D01*
X820500Y623622D01*
X829500D01*
X831061Y623932D01*
X832384Y624816D01*
X832764Y625386D01*
X835563D01*
X837585Y623363D01*
X838336Y622862D01*
X839221Y622686D01*
X843011D01*
X843151Y622163D01*
X844118Y620487D01*
X845487Y619118D01*
X847163Y618151D01*
X849032Y617650D01*
X850968D01*
X852837Y618151D01*
X854513Y619118D01*
X855882Y620487D01*
X856849Y622163D01*
X857350Y624032D01*
Y625968D01*
X856849Y627837D01*
X855882Y629513D01*
X854513Y630882D01*
X853630Y631391D01*
Y633609D01*
X854513Y634118D01*
X855882Y635487D01*
X856849Y637163D01*
X857350Y639032D01*
Y640968D01*
X856849Y642837D01*
X855882Y644513D01*
X854513Y645882D01*
X852837Y646849D01*
X850968Y647350D01*
D02*
G37*
G36*
X883500Y644478D02*
X874500D01*
X872939Y644168D01*
X871616Y643284D01*
X870732Y641961D01*
X870422Y640400D01*
X870732Y638839D01*
X871616Y637516D01*
X872939Y636632D01*
X874500Y636322D01*
X883500D01*
X885061Y636632D01*
X886384Y637516D01*
X887268Y638839D01*
X887578Y640400D01*
X887268Y641961D01*
X886384Y643284D01*
X885061Y644168D01*
X883500Y644478D01*
D02*
G37*
G36*
X932250Y633000D02*
X920750D01*
Y630014D01*
X886764D01*
X886384Y630584D01*
X885061Y631468D01*
X883500Y631778D01*
X874500D01*
X872939Y631468D01*
X871616Y630584D01*
X870732Y629261D01*
X870422Y627700D01*
X870732Y626139D01*
X871616Y624816D01*
X872939Y623932D01*
X874500Y623622D01*
X883500D01*
X885061Y623932D01*
X886384Y624816D01*
X886764Y625386D01*
X920750D01*
Y617000D01*
X932250D01*
Y633000D01*
D02*
G37*
G36*
X1038601Y630081D02*
X1031537D01*
Y621270D01*
X1038601D01*
Y630081D01*
D02*
G37*
G36*
X1028997D02*
X1021934D01*
Y621270D01*
X1028997D01*
Y630081D01*
D02*
G37*
G36*
X1016526Y628541D02*
X1002939D01*
Y611459D01*
X1016526D01*
Y628541D01*
D02*
G37*
G36*
X883500Y619078D02*
X874500D01*
X872939Y618768D01*
X871616Y617884D01*
X870732Y616561D01*
X870422Y615000D01*
X870732Y613439D01*
X871616Y612116D01*
X872939Y611232D01*
X874500Y610922D01*
X883500D01*
X885061Y611232D01*
X886384Y612116D01*
X887268Y613439D01*
X887578Y615000D01*
X887268Y616561D01*
X886384Y617884D01*
X885061Y618768D01*
X883500Y619078D01*
D02*
G37*
G36*
X805968Y622350D02*
X804032D01*
X802163Y621849D01*
X800487Y620882D01*
X799118Y619513D01*
X798151Y617837D01*
X797650Y615968D01*
Y614032D01*
X798151Y612163D01*
X799118Y610487D01*
X800487Y609118D01*
X801370Y608609D01*
Y606391D01*
X800487Y605882D01*
X799118Y604513D01*
X798151Y602837D01*
X797650Y600968D01*
Y599032D01*
X798151Y597163D01*
X799118Y595487D01*
X800487Y594118D01*
X802163Y593151D01*
X804032Y592650D01*
X805968D01*
X807837Y593151D01*
X809513Y594118D01*
X810882Y595487D01*
X811849Y597163D01*
X812350Y599032D01*
Y599324D01*
X817755D01*
X818939Y598532D01*
X820500Y598222D01*
X829500D01*
X831061Y598532D01*
X832384Y599416D01*
X833268Y600739D01*
X833578Y602300D01*
X833268Y603861D01*
X832384Y605184D01*
X831061Y606068D01*
X829500Y606378D01*
X820500D01*
X818939Y606068D01*
X817616Y605184D01*
X816793Y603952D01*
X811205D01*
X810882Y604513D01*
X809513Y605882D01*
X808630Y606391D01*
Y608609D01*
X809513Y609118D01*
X810882Y610487D01*
X811849Y612163D01*
X811989Y612686D01*
X817236D01*
X817616Y612116D01*
X818939Y611232D01*
X820500Y610922D01*
X829500D01*
X831061Y611232D01*
X832384Y612116D01*
X833268Y613439D01*
X833578Y615000D01*
X833268Y616561D01*
X832384Y617884D01*
X831061Y618768D01*
X829500Y619078D01*
X820500D01*
X818939Y618768D01*
X817616Y617884D01*
X817236Y617314D01*
X811989D01*
X811849Y617837D01*
X810882Y619513D01*
X809513Y620882D01*
X807837Y621849D01*
X805968Y622350D01*
D02*
G37*
G36*
X1038601Y618730D02*
X1031537D01*
Y609919D01*
X1038601D01*
Y618730D01*
D02*
G37*
G36*
X1028997D02*
X1021934D01*
Y609919D01*
X1028997D01*
Y618730D01*
D02*
G37*
G36*
X883500Y606378D02*
X874500D01*
X872939Y606068D01*
X871616Y605184D01*
X870732Y603861D01*
X870422Y602300D01*
X870732Y600739D01*
X871616Y599416D01*
X872939Y598532D01*
X874500Y598222D01*
X883500D01*
X885061Y598532D01*
X886384Y599416D01*
X887268Y600739D01*
X887578Y602300D01*
X887268Y603861D01*
X886384Y605184D01*
X885061Y606068D01*
X883500Y606378D01*
D02*
G37*
G36*
X1038601Y595081D02*
X1031537D01*
Y586270D01*
X1038601D01*
Y595081D01*
D02*
G37*
G36*
X1028997D02*
X1021934D01*
Y586270D01*
X1028997D01*
Y595081D01*
D02*
G37*
G36*
X883500Y593678D02*
X874500D01*
X872939Y593368D01*
X871616Y592484D01*
X870732Y591161D01*
X870422Y589600D01*
X870732Y588039D01*
X871616Y586716D01*
X872939Y585832D01*
X874500Y585522D01*
X883500D01*
X885061Y585832D01*
X886384Y586716D01*
X887268Y588039D01*
X887578Y589600D01*
X887268Y591161D01*
X886384Y592484D01*
X885061Y593368D01*
X883500Y593678D01*
D02*
G37*
G36*
X829500D02*
X820500D01*
X818939Y593368D01*
X817616Y592484D01*
X816732Y591161D01*
X816422Y589600D01*
X816732Y588039D01*
X817616Y586716D01*
X818939Y585832D01*
X820500Y585522D01*
X829500D01*
X831061Y585832D01*
X832384Y586716D01*
X833268Y588039D01*
X833578Y589600D01*
X833268Y591161D01*
X832384Y592484D01*
X831061Y593368D01*
X829500Y593678D01*
D02*
G37*
G36*
X800968Y677350D02*
X799032D01*
X797163Y676849D01*
X795487Y675882D01*
X794118Y674513D01*
X793151Y672837D01*
X792650Y670968D01*
Y669032D01*
X792744Y668682D01*
X786395Y662333D01*
X785290Y660679D01*
X784902Y658728D01*
Y586798D01*
X783202Y585098D01*
X777127D01*
X776314Y586314D01*
X774908Y587253D01*
X773250Y587583D01*
X766750D01*
X765092Y587253D01*
X763686Y586314D01*
X762747Y584908D01*
X762417Y583250D01*
Y576750D01*
X762747Y575092D01*
X763686Y573686D01*
X765092Y572747D01*
X766750Y572417D01*
X773250D01*
X774908Y572747D01*
X776314Y573686D01*
X777127Y574902D01*
X785314D01*
X787265Y575290D01*
X788919Y576395D01*
X793605Y581082D01*
X794710Y582735D01*
X795098Y584686D01*
Y656617D01*
X801191Y662710D01*
X802837Y663151D01*
X804513Y664118D01*
X805882Y665487D01*
X806849Y667163D01*
X807350Y669032D01*
Y670968D01*
X806849Y672837D01*
X805882Y674513D01*
X804513Y675882D01*
X802837Y676849D01*
X800968Y677350D01*
D02*
G37*
G36*
X751270Y589019D02*
Y581270D01*
X759019D01*
X758424Y583489D01*
X757234Y585551D01*
X755551Y587234D01*
X753489Y588424D01*
X751270Y589019D01*
D02*
G37*
G36*
X748730D02*
X746511Y588424D01*
X744449Y587234D01*
X742766Y585551D01*
X741576Y583489D01*
X740981Y581270D01*
X748730D01*
Y589019D01*
D02*
G37*
G36*
X1016526Y593541D02*
X1002939D01*
Y587314D01*
X995000D01*
X994114Y587138D01*
X993363Y586637D01*
X988306Y581579D01*
X987837Y581849D01*
X985968Y582350D01*
X984032D01*
X982163Y581849D01*
X980487Y580882D01*
X979118Y579513D01*
X978151Y577837D01*
X977650Y575968D01*
Y574032D01*
X978151Y572163D01*
X979118Y570487D01*
X980487Y569118D01*
X982163Y568151D01*
X984032Y567650D01*
X985968D01*
X987837Y568151D01*
X989513Y569118D01*
X990882Y570487D01*
X991849Y572163D01*
X992350Y574032D01*
Y575968D01*
X991849Y577837D01*
X991579Y578306D01*
X995959Y582686D01*
X1002939D01*
Y576459D01*
X1016526D01*
Y593541D01*
D02*
G37*
G36*
X1038601Y583730D02*
X1031537D01*
Y574919D01*
X1038601D01*
Y583730D01*
D02*
G37*
G36*
X1028997D02*
X1021934D01*
Y574919D01*
X1028997D01*
Y583730D01*
D02*
G37*
G36*
X883500Y580978D02*
X874500D01*
X872939Y580668D01*
X871616Y579784D01*
X870732Y578461D01*
X870422Y576900D01*
X870732Y575339D01*
X871616Y574016D01*
X872939Y573132D01*
X874500Y572822D01*
X883500D01*
X885061Y573132D01*
X886384Y574016D01*
X887268Y575339D01*
X887578Y576900D01*
X887268Y578461D01*
X886384Y579784D01*
X885061Y580668D01*
X883500Y580978D01*
D02*
G37*
G36*
X829500D02*
X820500D01*
X818939Y580668D01*
X817616Y579784D01*
X816732Y578461D01*
X816422Y576900D01*
X816732Y575339D01*
X817616Y574016D01*
X818939Y573132D01*
X820500Y572822D01*
X829500D01*
X831061Y573132D01*
X832384Y574016D01*
X833268Y575339D01*
X833578Y576900D01*
X833268Y578461D01*
X832384Y579784D01*
X831061Y580668D01*
X829500Y580978D01*
D02*
G37*
G36*
X759019Y578730D02*
X751270D01*
Y570981D01*
X753489Y571576D01*
X755551Y572766D01*
X757234Y574449D01*
X758424Y576511D01*
X759019Y578730D01*
D02*
G37*
G36*
X748730D02*
X740981D01*
X741576Y576511D01*
X742766Y574449D01*
X744449Y572766D01*
X746511Y571576D01*
X748730Y570981D01*
Y578730D01*
D02*
G37*
G36*
X829500Y657178D02*
X820500D01*
X818939Y656868D01*
X817616Y655984D01*
X816732Y654661D01*
X816422Y653100D01*
X816732Y651539D01*
X817616Y650216D01*
X818939Y649332D01*
X820500Y649022D01*
X829500D01*
X831061Y649332D01*
X832384Y650216D01*
X832764Y650786D01*
X860941D01*
X862685Y649041D01*
Y566488D01*
X862862Y565602D01*
X863363Y564851D01*
X864851Y563363D01*
X865602Y562862D01*
X866488Y562686D01*
X928512D01*
X929398Y562862D01*
X930149Y563363D01*
X931637Y564851D01*
X932138Y565602D01*
X932315Y566488D01*
Y581219D01*
X937021D01*
Y598781D01*
X922469D01*
Y581219D01*
X927685D01*
Y567447D01*
X927553Y567314D01*
X867447D01*
X867315Y567447D01*
Y650000D01*
X867138Y650886D01*
X866637Y651637D01*
X863537Y654737D01*
X862786Y655238D01*
X861900Y655415D01*
X832764D01*
X832384Y655984D01*
X831061Y656868D01*
X829500Y657178D01*
D02*
G37*
G36*
X998796Y563509D02*
X991557D01*
Y556270D01*
X998796D01*
Y563509D01*
D02*
G37*
G36*
X989017D02*
X981778D01*
Y556270D01*
X989017D01*
Y563509D01*
D02*
G37*
G36*
X998796Y553730D02*
X991557D01*
Y546491D01*
X998796D01*
Y553730D01*
D02*
G37*
G36*
X989017D02*
X981778D01*
Y546491D01*
X989017D01*
Y553730D01*
D02*
G37*
%LPD*%
G36*
X982685Y934029D02*
Y890397D01*
X980838Y889632D01*
X970935Y899535D01*
Y943167D01*
X972782Y943932D01*
X982685Y934029D01*
D02*
G37*
G36*
X1000487Y889118D02*
X1002163Y888151D01*
X1004032Y887650D01*
X1005968D01*
X1007837Y888151D01*
X1009513Y889118D01*
X1010650Y890256D01*
X1011617Y890097D01*
X1012650Y889550D01*
Y889032D01*
X1013151Y887163D01*
X1013671Y886263D01*
X1012863Y885455D01*
X1012362Y884705D01*
X1012186Y883819D01*
Y882000D01*
X1007500D01*
Y868000D01*
X1018227D01*
X1022065Y864162D01*
X1021299Y862315D01*
X997447D01*
X997315Y862447D01*
Y889612D01*
X998475Y890175D01*
X999314Y890291D01*
X1000487Y889118D01*
D02*
G37*
G36*
X921750Y847250D02*
X929977D01*
X937685Y839541D01*
Y831500D01*
X928500D01*
Y828978D01*
X926500Y828442D01*
X925882Y829513D01*
X924513Y830882D01*
X922837Y831849D01*
X920968Y832350D01*
X919032D01*
X917163Y831849D01*
X916694Y831579D01*
X894137Y854137D01*
X893386Y854638D01*
X892500Y854815D01*
X885938D01*
X885654Y855877D01*
X884502Y857873D01*
X882873Y859502D01*
X882520Y859706D01*
X883056Y861705D01*
X921750D01*
Y847250D01*
D02*
G37*
G36*
X988370Y848357D02*
X989121Y847855D01*
X990006Y847679D01*
X1024035D01*
X1034686Y837029D01*
Y808241D01*
X1032685Y807579D01*
X1031314Y808873D01*
Y818251D01*
X1031138Y819136D01*
X1030637Y819887D01*
X1030459Y820065D01*
X1030882Y820487D01*
X1031849Y822163D01*
X1032350Y824032D01*
Y825968D01*
X1031849Y827837D01*
X1030882Y829513D01*
X1029513Y830882D01*
X1027837Y831849D01*
X1025968Y832350D01*
X1024032D01*
X1022163Y831849D01*
X1022096Y831811D01*
X1021592Y831882D01*
X1019894Y832849D01*
X1019595Y833964D01*
X1018628Y835640D01*
X1017259Y837008D01*
X1015583Y837976D01*
X1013714Y838477D01*
X1011779D01*
X1009909Y837976D01*
X1008233Y837008D01*
X1006865Y835640D01*
X1006749Y835439D01*
X1006426Y835271D01*
X1004296Y835191D01*
X1003606Y835882D01*
X1001930Y836849D01*
X1000060Y837350D01*
X998125D01*
X996256Y836849D01*
X995787Y836579D01*
X984574Y847792D01*
X984741Y849395D01*
X986599Y850128D01*
X988370Y848357D01*
D02*
G37*
G36*
X1043439Y786982D02*
X1045000Y786672D01*
X1046561Y786982D01*
X1047884Y787866D01*
X1050116D01*
X1050926Y787325D01*
X1051399Y785519D01*
X1051384Y784954D01*
X1034504Y768074D01*
X1026917D01*
X1026242Y769243D01*
X1026001Y770074D01*
X1026849Y771543D01*
X1027350Y773412D01*
Y775348D01*
X1026849Y777217D01*
X1025882Y778893D01*
X1024513Y780262D01*
X1022837Y781229D01*
X1022814Y781235D01*
Y787152D01*
X1023764Y787786D01*
X1023945Y787866D01*
X1026116D01*
X1027439Y786982D01*
X1029000Y786672D01*
X1030561Y786982D01*
X1031884Y787866D01*
X1034116D01*
X1035439Y786982D01*
X1037000Y786672D01*
X1038561Y786982D01*
X1039884Y787866D01*
X1042116D01*
X1043439Y786982D01*
D02*
G37*
G36*
X992514Y833306D02*
X992244Y832837D01*
X991743Y830968D01*
Y829032D01*
X991483Y828508D01*
X990160Y827214D01*
X988908D01*
X987039Y826713D01*
X985363Y825745D01*
X983995Y824377D01*
X983027Y822701D01*
X982526Y820831D01*
Y818896D01*
X983027Y817027D01*
X983995Y815351D01*
X985363Y813982D01*
X987039Y813015D01*
X988908Y812514D01*
X990844D01*
X992713Y813015D01*
X993105Y813241D01*
X994686Y811661D01*
Y807514D01*
X994116Y807134D01*
X993232Y805811D01*
X992922Y804250D01*
Y790750D01*
X993232Y789189D01*
X994116Y787866D01*
X995023Y787260D01*
X994381Y785400D01*
X992499Y785337D01*
X992134Y785884D01*
X990811Y786768D01*
X989250Y787078D01*
X975750D01*
X974189Y786768D01*
X972866Y785884D01*
X971982Y784561D01*
X971672Y783000D01*
X971982Y781439D01*
X972538Y780607D01*
X971992Y779890D01*
X970257Y780207D01*
X965207Y785257D01*
X964456Y785758D01*
X963570Y785935D01*
X962339D01*
X962315Y785959D01*
Y824017D01*
X980257Y841959D01*
X980567Y842424D01*
X981950Y842858D01*
X982849Y842970D01*
X992514Y833306D01*
D02*
G37*
G36*
X976305Y882612D02*
Y844554D01*
X958363Y826612D01*
X957862Y825861D01*
X957685Y824975D01*
Y785000D01*
X957823Y784307D01*
X957764Y783967D01*
X956664Y782307D01*
X956599D01*
X954338Y781701D01*
X953500Y781217D01*
X951500Y782372D01*
Y831500D01*
X942315D01*
Y840500D01*
X942138Y841386D01*
X941637Y842137D01*
X939911Y843862D01*
X940676Y845710D01*
X941230D01*
Y855000D01*
X942500D01*
Y856270D01*
X949790D01*
Y861336D01*
X954258D01*
X955143Y861512D01*
X955894Y862014D01*
X960944Y867063D01*
X961445Y867814D01*
X961622Y868700D01*
Y894683D01*
X963469Y895448D01*
X976305Y882612D01*
D02*
G37*
G36*
X1056829Y781471D02*
X1057087Y781282D01*
X1057866Y780116D01*
Y777884D01*
X1056982Y776561D01*
X1056672Y775000D01*
X1056982Y773439D01*
X1057866Y772116D01*
Y769884D01*
X1056982Y768561D01*
X1056672Y767000D01*
X1056919Y765755D01*
X1056808Y765425D01*
X1056401Y764853D01*
X1055545Y763989D01*
X1054976Y764103D01*
X1054975Y764103D01*
X1039907D01*
X1039079Y766103D01*
X1054855Y781879D01*
X1056829Y781471D01*
D02*
G37*
G36*
X950487Y754118D02*
X952163Y753151D01*
X954032Y752650D01*
X955968D01*
X956414Y752770D01*
X969067Y740116D01*
X969067Y740116D01*
X970267Y739314D01*
X970288Y739168D01*
X969222Y737315D01*
X955959D01*
X947315Y745959D01*
Y754612D01*
X948475Y755175D01*
X949314Y755291D01*
X950487Y754118D01*
D02*
G37*
G36*
X1042685Y725101D02*
Y722514D01*
X1042116Y722134D01*
X1039884D01*
X1038561Y723018D01*
X1037000Y723328D01*
X1035439Y723018D01*
X1034116Y722134D01*
X1031884D01*
X1030561Y723018D01*
X1029000Y723328D01*
X1027439Y723018D01*
X1026116Y722134D01*
X1023884D01*
X1022561Y723018D01*
X1021000Y723328D01*
X1019439Y723018D01*
X1018116Y722134D01*
X1015884D01*
X1014561Y723018D01*
X1013000Y723328D01*
X1011439Y723018D01*
X1010116Y722134D01*
X1007884D01*
X1006561Y723018D01*
X1005000Y723328D01*
X1003439Y723018D01*
X1002116Y722134D01*
X999884D01*
X998561Y723018D01*
X997000Y723328D01*
X995439Y723018D01*
X994116Y722134D01*
X993232Y720811D01*
X992922Y719250D01*
Y705881D01*
X992580Y705539D01*
X990882Y704513D01*
X989513Y705882D01*
X987837Y706849D01*
X985995Y707343D01*
X985892Y707528D01*
X985441Y708588D01*
X985351Y709350D01*
X986555Y710553D01*
X987523Y712229D01*
X988023Y714099D01*
Y716034D01*
X987523Y717903D01*
X986555Y719579D01*
X985212Y720922D01*
X985215Y721044D01*
X985768Y722922D01*
X989250D01*
X990811Y723232D01*
X992134Y724116D01*
X993018Y725439D01*
X993084Y725770D01*
X993502Y727062D01*
X995231Y727685D01*
X1019516D01*
X1020402Y727862D01*
X1021152Y728363D01*
X1025475Y732685D01*
X1035101D01*
X1042685Y725101D01*
D02*
G37*
G36*
X954114Y732862D02*
X955000Y732685D01*
X972486D01*
X972866Y732116D01*
Y729884D01*
X971982Y728561D01*
X971672Y727000D01*
X971805Y726328D01*
X955291Y709815D01*
X951500D01*
Y732614D01*
X952611Y733074D01*
X953500Y733272D01*
X954114Y732862D01*
D02*
G37*
%LPC*%
G36*
X949790Y853730D02*
X943770D01*
Y845710D01*
X949790D01*
Y853730D01*
D02*
G37*
%LPD*%
G36*
X747116Y767116D02*
X747116Y767116D01*
X748439Y766232D01*
X748721Y766176D01*
X749118Y765487D01*
X750487Y764118D01*
X752163Y763151D01*
X754032Y762650D01*
X755968D01*
X757624Y763094D01*
X760922Y759796D01*
Y742074D01*
X758922Y741364D01*
X758055Y742232D01*
X756379Y743199D01*
X754509Y743700D01*
X752574D01*
X750705Y743199D01*
X749029Y742232D01*
X747660Y740863D01*
X746693Y739187D01*
X746192Y737318D01*
Y735976D01*
X744314Y735086D01*
X742650Y735878D01*
Y745000D01*
X744069Y746094D01*
X745557Y747581D01*
X746058Y748332D01*
X746235Y749218D01*
Y755782D01*
X746058Y756668D01*
X745557Y757419D01*
X744069Y758907D01*
X743318Y759408D01*
X742650Y759541D01*
Y769102D01*
X744650Y769582D01*
X747116Y767116D01*
D02*
G37*
G36*
X724912Y753186D02*
X723363Y751637D01*
X722862Y750886D01*
X722685Y750000D01*
Y748459D01*
X715743Y741517D01*
X715242Y740766D01*
X715066Y739880D01*
Y682620D01*
X715242Y681734D01*
X715518Y681320D01*
X714761Y680563D01*
X713793Y678887D01*
X713685Y678480D01*
X713271Y678335D01*
X711571Y678319D01*
X710882Y679513D01*
X709513Y680882D01*
X707837Y681849D01*
X707315Y681989D01*
Y749041D01*
X713459Y755185D01*
X724084D01*
X724912Y753186D01*
D02*
G37*
D10*
X955000Y759951D02*
X971951Y743000D01*
X955000Y759951D02*
Y760000D01*
X991150Y759000D02*
X997125Y753025D01*
X1008000D02*
X1046039D01*
X997125D02*
X1008000D01*
Y743000D02*
Y753025D01*
X1046039D02*
X1052750Y746314D01*
X1057436Y751000D01*
X1061750D01*
X982500Y759000D02*
X991150D01*
X1052750Y739686D02*
Y746314D01*
X1057436Y735000D02*
X1067500D01*
X1052750Y739686D02*
X1057436Y735000D01*
X971951Y743000D02*
X982500D01*
X1008000D01*
X957770Y771867D02*
X967669Y761968D01*
Y757331D02*
Y761968D01*
X957770Y771867D02*
Y773417D01*
X967669Y757331D02*
X970000Y755000D01*
X1000024Y760024D02*
X1054976D01*
X982500Y767000D02*
X993049D01*
X1000024Y760024D01*
X1056000Y759000D02*
X1067500D01*
X1054976Y760024D02*
X1056000Y759000D01*
X970000Y754850D02*
X973850Y751000D01*
X982500D01*
X735900Y718000D02*
X738650D01*
X765000Y732850D02*
Y761485D01*
X758150Y726000D02*
X765000Y732850D01*
X756485Y770000D02*
X765000Y761485D01*
X735900Y726000D02*
X758150D01*
X750000Y770000D02*
X756485D01*
X695500Y844500D02*
X696000Y845000D01*
X695500Y825500D02*
Y844500D01*
X695000Y825000D02*
X695500Y825500D01*
X746000Y774000D02*
X750000Y770000D01*
X735900Y774000D02*
X746000D01*
D14*
X990287Y555000D02*
D03*
X969713D02*
D03*
D15*
X1030255Y655000D02*
D03*
X1009745D02*
D03*
X750000Y845000D02*
D03*
X770510D02*
D03*
X1080510Y910000D02*
D03*
X1080255Y875000D02*
D03*
X950255Y590000D02*
D03*
X929745D02*
D03*
X1060000Y910000D02*
D03*
X1059745Y875000D02*
D03*
D16*
X880000Y770510D02*
D03*
Y750000D02*
D03*
X1100000Y650255D02*
D03*
Y629745D02*
D03*
D17*
X1114250Y685000D02*
D03*
X1095750D02*
D03*
Y775000D02*
D03*
Y745000D02*
D03*
Y715000D02*
D03*
X1114250Y775000D02*
D03*
Y715000D02*
D03*
Y745000D02*
D03*
X845000Y695000D02*
D03*
X863500D02*
D03*
X945000Y625000D02*
D03*
X926500D02*
D03*
D18*
X1045000Y797500D02*
D03*
X1053000D02*
D03*
X1037000D02*
D03*
X997000D02*
D03*
X1005000D02*
D03*
X1013000D02*
D03*
X1021000D02*
D03*
X1029000D02*
D03*
X1053000Y712500D02*
D03*
X1045000D02*
D03*
X1037000D02*
D03*
X1029000D02*
D03*
X1021000D02*
D03*
X1013000D02*
D03*
X1005000D02*
D03*
X997000D02*
D03*
D19*
X1067500Y775000D02*
D03*
Y751000D02*
D03*
X982500Y759000D02*
D03*
Y743000D02*
D03*
X1067500Y735000D02*
D03*
Y759000D02*
D03*
X982500Y767000D02*
D03*
Y751000D02*
D03*
X1067500Y783000D02*
D03*
Y767000D02*
D03*
Y743000D02*
D03*
Y727000D02*
D03*
X982500D02*
D03*
Y735000D02*
D03*
Y775000D02*
D03*
Y783000D02*
D03*
D20*
X810000Y781500D02*
D03*
X833000D02*
D03*
X787000D02*
D03*
D21*
X724000Y845000D02*
D03*
X696000D02*
D03*
D22*
X810000Y718500D02*
D03*
D23*
X879000Y665800D02*
D03*
X825000Y653100D02*
D03*
Y640400D02*
D03*
Y627700D02*
D03*
Y615000D02*
D03*
Y602300D02*
D03*
Y589600D02*
D03*
Y576900D02*
D03*
X879000Y653100D02*
D03*
Y640400D02*
D03*
Y627700D02*
D03*
Y615000D02*
D03*
Y602300D02*
D03*
Y589600D02*
D03*
Y576900D02*
D03*
D24*
X1030267Y585000D02*
D03*
Y620000D02*
D03*
X1009733Y585000D02*
D03*
Y620000D02*
D03*
D25*
X942500Y855000D02*
D03*
Y655000D02*
D03*
X927500D02*
D03*
Y855000D02*
D03*
D26*
X805000Y824500D02*
D03*
Y845500D02*
D03*
D27*
X735900Y782000D02*
D03*
Y718000D02*
D03*
Y726000D02*
D03*
Y774000D02*
D03*
D28*
X825000Y665800D02*
D03*
D29*
X1035500Y910000D02*
D03*
X1014500D02*
D03*
X1035500Y875000D02*
D03*
X1014500D02*
D03*
D30*
X735900Y732500D02*
D03*
Y737500D02*
D03*
Y742500D02*
D03*
Y747500D02*
D03*
Y752500D02*
D03*
Y757500D02*
D03*
Y762500D02*
D03*
Y767500D02*
D03*
D31*
X940000Y802500D02*
D03*
Y707500D02*
D03*
D38*
X877500Y917500D02*
D03*
X832500D02*
D03*
X877500Y852500D02*
D03*
D40*
X832500D02*
D03*
D41*
X725150Y721100D02*
D03*
Y778900D02*
D03*
D42*
X730150Y706800D02*
D03*
Y793200D02*
D03*
D43*
X688350Y706800D02*
D03*
Y793200D02*
D03*
D45*
X981810Y686997D02*
X986247D01*
X966460Y701460D02*
X980066Y715066D01*
X950255Y591505D02*
X966460Y607710D01*
X986247Y686997D02*
X1005000Y705750D01*
X979866Y685053D02*
X981810Y686997D01*
X966460Y607710D02*
Y701460D01*
X994060Y680000D02*
X1013000Y698940D01*
X1020000Y680000D02*
X1029000Y689000D01*
X992600Y680000D02*
X994060D01*
X1006300D02*
X1021000Y694700D01*
X933482Y991512D02*
X990000Y934994D01*
X763000Y990024D02*
X764488Y991512D01*
X763000Y965000D02*
Y990024D01*
X764488Y991512D02*
X933482D01*
X990000Y856485D02*
Y934994D01*
X1024997Y854997D02*
X1045000Y834994D01*
Y797500D02*
Y834994D01*
X991488Y854997D02*
X1024997D01*
X990000Y856485D02*
X991488Y854997D01*
X1080000Y820000D02*
X1081488Y818512D01*
X1085000D01*
Y785750D02*
Y818512D01*
X1074250Y775000D02*
X1085000Y785750D01*
X1067500Y775000D02*
X1074250D01*
X950000Y980000D02*
X995000Y935000D01*
X1053000Y797500D02*
Y832000D01*
X1025000Y860000D02*
X1053000Y832000D01*
X995000Y861488D02*
Y935000D01*
Y861488D02*
X996488Y860000D01*
X950000Y980000D02*
Y990000D01*
X996488Y860000D02*
X1025000D01*
X939987Y980000D02*
X985000Y934987D01*
Y887203D02*
Y934987D01*
Y887203D02*
X985700Y886503D01*
Y854300D02*
Y886503D01*
Y854300D02*
X990006Y849994D01*
X1024994D02*
X1037000Y837987D01*
Y797500D02*
Y837987D01*
X930000Y980000D02*
X939987D01*
X990006Y849994D02*
X1024994D01*
X950687Y872270D02*
Y873292D01*
X900000Y923979D02*
X950687Y873292D01*
X900000Y923979D02*
Y925000D01*
X1068402Y783000D02*
X1070000Y784598D01*
Y800000D01*
X1067500Y783000D02*
X1068402D01*
X963570Y783620D02*
X968620Y778570D01*
X961380Y783620D02*
X963570D01*
X970000Y775000D02*
X982500D01*
X960000Y785000D02*
Y824975D01*
Y785000D02*
X961380Y783620D01*
X968620Y776380D02*
Y778570D01*
Y776380D02*
X970000Y775000D01*
X960000Y824975D02*
X978620Y843595D01*
Y883570D01*
X955000Y735000D02*
X988703D01*
X945000Y745000D02*
X955000Y735000D01*
X945000Y745000D02*
Y797500D01*
X966411Y948570D02*
X968620Y946361D01*
X952868Y948570D02*
X966411D01*
X968620Y898577D02*
Y946361D01*
X951380Y905804D02*
Y947083D01*
X960000Y902190D02*
Y939950D01*
X951380Y947083D02*
X952868Y948570D01*
X1035973Y743730D02*
X1080000Y699703D01*
X1021055Y743730D02*
X1035973D01*
X993703Y730000D02*
X1019516D01*
X988703Y735000D02*
X993703Y730000D01*
X1019516D02*
X1024516Y735000D01*
X1020000Y742674D02*
X1021055Y743730D01*
X1024516Y735000D02*
X1036060D01*
X1002049Y765760D02*
X1015829D01*
X996380Y771430D02*
Y781512D01*
Y771430D02*
X1002049Y765760D01*
X1005000Y775000D02*
X1013000Y783000D01*
X1015829Y765760D02*
X1035463D01*
X1060000Y790297D01*
X1020500Y797000D02*
X1021000Y797500D01*
X1020000Y774380D02*
X1020500Y774880D01*
X1013000Y783000D02*
Y797500D01*
X1020500Y774880D02*
Y797000D01*
X1036060Y735000D02*
X1045000Y726060D01*
Y712500D02*
Y726060D01*
Y712500D02*
X1045000Y712500D01*
X804500Y845000D02*
X805000Y845500D01*
X770510Y845000D02*
X804500D01*
X982160Y846933D02*
X999093Y830000D01*
X982160Y846933D02*
Y885037D01*
X968620Y898577D02*
X982160Y885037D01*
X951380Y905804D02*
X959307Y897877D01*
Y868700D02*
Y897877D01*
X954258Y863650D02*
X959307Y868700D01*
X948560Y863650D02*
X954258D01*
X948190Y864020D02*
X948560Y863650D01*
X874850Y864020D02*
X948190D01*
X867480Y856650D02*
X874850Y864020D01*
X867480Y822343D02*
Y856650D01*
Y822343D02*
X880000Y809823D01*
Y770510D02*
Y809823D01*
X982500Y783000D02*
X994892D01*
X996380Y781512D01*
X885000Y725000D02*
Y745000D01*
X880000Y750000D02*
X885000Y745000D01*
X980066Y715066D02*
X980673D01*
X950255Y590000D02*
Y591505D01*
X970000Y555287D02*
Y643512D01*
X976488Y650000D02*
X1004745D01*
X970000Y643512D02*
X976488Y650000D01*
X1099745Y630000D02*
X1100000Y629745D01*
Y616488D02*
Y629745D01*
X1098512Y615000D02*
X1100000Y616488D01*
X1055374Y615000D02*
X1098512D01*
X1053475Y613101D02*
X1055374Y615000D01*
X957539Y637539D02*
Y637895D01*
X945000Y625000D02*
X957539Y637539D01*
X995000Y585000D02*
X1009733D01*
X985000Y575000D02*
X995000Y585000D01*
X695000Y735000D02*
Y750000D01*
X707500Y762500D01*
X735900D01*
X1004745Y650000D02*
X1009745Y655000D01*
X712500Y757500D02*
X735900D01*
X705000Y675000D02*
Y750000D01*
X712500Y757500D01*
X725000Y747500D02*
Y750000D01*
X727500Y752500D02*
X735900D01*
X725000Y750000D02*
X727500Y752500D01*
X746942Y732500D02*
X750792Y736350D01*
X753542D01*
X735900Y732500D02*
X746942D01*
X717380Y682620D02*
Y739880D01*
X742432Y747730D02*
X743920Y749218D01*
Y755782D01*
X735900Y747500D02*
X736130Y747730D01*
X742432D01*
X736130Y757270D02*
X742432D01*
X743920Y755782D01*
X805000Y600000D02*
X806638Y601638D01*
X824338D01*
X825000Y602300D01*
X805000Y615000D02*
X825000D01*
X720643Y676050D02*
Y679358D01*
X717380Y682620D02*
X720643Y679358D01*
X717380Y739880D02*
X725000Y747500D01*
X735900Y757500D02*
X736130Y757270D01*
X725000Y745000D02*
Y747500D01*
Y745000D02*
X727500Y742500D01*
X735900D01*
X825000Y627700D02*
X836522D01*
X839221Y625000D01*
X850000D01*
X840000Y675000D02*
X843500D01*
X857770Y689270D01*
X860020D01*
X863500Y692750D01*
Y695000D01*
X960000Y902190D02*
X978620Y883570D01*
X1014500Y875000D02*
Y883819D01*
X1020000Y889319D01*
Y890000D01*
X1115000Y925000D02*
X1115800D01*
X1155800Y965000D01*
X1014500Y910000D02*
X1054500Y950000D01*
X1115400D01*
X1130400Y965000D01*
X1068056Y843056D02*
X1070000Y845000D01*
X1063056Y843056D02*
X1068056D01*
X1060000Y840000D02*
X1063056Y843056D01*
X1060000Y790297D02*
Y840000D01*
X989876Y819743D02*
Y819864D01*
Y819743D02*
X997000Y812619D01*
Y797500D02*
Y812619D01*
X1035500Y910000D02*
X1060000D01*
X1035500Y875000D02*
X1059745D01*
X1011678Y907178D02*
X1014500Y910000D01*
X1011678Y901678D02*
Y907178D01*
X1005000Y895000D02*
X1011678Y901678D01*
X1005000Y895000D02*
Y895000D01*
X998099Y829006D02*
X999093Y830000D01*
X998099Y826901D02*
Y829006D01*
Y826901D02*
X1005000Y820000D01*
Y797500D02*
Y820000D01*
X1014500Y875000D02*
X1025893Y863607D01*
X1036393D01*
X1045000Y855000D01*
X1012746Y831127D02*
X1012873Y831000D01*
Y797627D02*
Y831000D01*
Y797627D02*
X1013000Y797500D01*
X1029000D02*
Y818251D01*
X1025000Y822251D02*
X1029000Y818251D01*
X1025000Y822251D02*
Y825000D01*
X985000Y700000D02*
X986944Y701944D01*
X995402Y705088D02*
Y707020D01*
X992258Y701944D02*
X995402Y705088D01*
X986944Y701944D02*
X992258D01*
X995402Y707020D02*
X997000Y708618D01*
Y712500D01*
X877500Y852500D02*
X892500D01*
X920000Y825000D01*
X1005000Y705750D02*
Y712500D01*
X1013000Y698940D02*
Y712500D01*
X1021000Y694700D02*
Y712500D01*
X1029000Y689000D02*
Y712500D01*
X1035000Y692732D02*
X1037000Y694733D01*
X1035000Y680000D02*
Y692732D01*
X1037000Y694733D02*
Y712500D01*
X1045000Y655000D02*
X1065000Y675000D01*
X1045000Y690000D02*
Y712500D01*
X1045000Y712500D01*
X1064375Y695000D02*
X1065000D01*
X1053000Y706375D02*
X1064375Y695000D01*
X1053000Y706375D02*
Y712500D01*
X1030255Y655000D02*
X1045000D01*
X1078056Y716944D02*
X1080000Y715000D01*
X1078056Y716944D02*
Y722258D01*
X1073314Y727000D02*
X1078056Y722258D01*
X1067500Y727000D02*
X1073314D01*
X927500Y853000D02*
Y855000D01*
Y853000D02*
X940000Y840500D01*
Y802500D02*
Y840500D01*
X927500Y655000D02*
Y657000D01*
X940000Y669500D01*
Y707500D01*
X975750Y727000D02*
X982500D01*
X956250Y707500D02*
X975750Y727000D01*
X940000Y707500D02*
X956250D01*
X940000Y802500D02*
X945000Y797500D01*
X1080000Y635000D02*
Y699703D01*
X1085000Y630000D02*
X1099745D01*
X1080000Y635000D02*
X1085000Y630000D01*
X969713Y555000D02*
X970000Y555287D01*
X849800Y640200D02*
X850000Y640000D01*
X825200Y640200D02*
X849800D01*
X825000Y640400D02*
X825200Y640200D01*
X929745Y590000D02*
X930000Y589745D01*
Y566488D02*
Y589745D01*
X928512Y565000D02*
X930000Y566488D01*
X866488Y565000D02*
X928512D01*
X865000Y566488D02*
X866488Y565000D01*
X865000Y566488D02*
Y650000D01*
X861900Y653100D02*
X865000Y650000D01*
X825000Y653100D02*
X861900D01*
X923800Y627700D02*
X926500Y625000D01*
X879000Y627700D02*
X923800D01*
D46*
X1095750Y745000D02*
Y775000D01*
X935000Y758949D02*
Y760000D01*
X886365Y710314D02*
X935000Y758949D01*
X1080382Y909873D02*
X1080510Y910000D01*
X1080382Y875127D02*
Y909873D01*
X1080255Y859745D02*
Y875000D01*
X1080382Y875127D01*
X1095750Y775000D02*
Y844250D01*
X1080255Y859745D02*
X1095750Y844250D01*
X1067500Y751000D02*
X1092000D01*
X1095750Y745000D02*
Y747250D01*
Y715000D02*
Y745000D01*
X1100000Y650255D02*
Y678500D01*
X1095750Y682750D02*
X1100000Y678500D01*
X1095750Y685000D02*
Y715000D01*
X1092000Y751000D02*
X1095750Y747250D01*
X829600Y930000D02*
X864600Y965000D01*
X810000Y718500D02*
Y781500D01*
X729686Y930000D02*
X829600D01*
X810000Y718500D02*
X870814D01*
X724000Y845000D02*
X750000D01*
X724000D02*
Y924314D01*
X729686Y930000D01*
X800000Y810000D02*
X810000Y800000D01*
X754686Y810000D02*
X800000D01*
X810000Y781500D02*
Y800000D01*
X750000Y814686D02*
Y845000D01*
Y814686D02*
X754686Y810000D01*
X870814Y718500D02*
X879000Y710314D01*
X810000Y715000D02*
Y718500D01*
X802500Y715000D02*
X810000D01*
X879000Y710314D02*
X886365D01*
X879000Y665800D02*
Y710314D01*
X800000Y668728D02*
Y670000D01*
Y712500D02*
X802500Y715000D01*
X800000Y700000D02*
Y712500D01*
X790000Y658728D02*
X800000Y668728D01*
X790000Y584686D02*
Y658728D01*
X785314Y580000D02*
X790000Y584686D01*
X770000Y580000D02*
X785314D01*
X1030000Y585267D02*
X1030267Y585000D01*
X1028474Y621794D02*
Y623843D01*
Y621794D02*
X1030267Y620000D01*
X1030000Y619733D02*
X1030267Y620000D01*
X941750Y855750D02*
X942500Y855000D01*
X807000Y826500D02*
X807249D01*
X805000Y824500D02*
X807000Y826500D01*
X829500Y785000D02*
X833000Y781500D01*
X834101Y780399D01*
X942500Y653000D02*
X943250Y652250D01*
X945250D01*
X942500Y653000D02*
Y655000D01*
X787000Y731571D02*
Y781500D01*
X770000Y714571D02*
X787000Y731571D01*
Y781500D02*
Y784000D01*
X770000Y655000D02*
Y714571D01*
X774399Y794101D02*
X781000Y787500D01*
X783500D01*
X787000Y784000D01*
X765000Y795000D02*
X765899Y794101D01*
X774399D01*
D47*
X915400Y965000D02*
D03*
X890000D02*
D03*
X864600D02*
D03*
X839200D02*
D03*
X813800D02*
D03*
X788400D02*
D03*
X763000D02*
D03*
X737600D02*
D03*
X1181200D02*
D03*
X1155800D02*
D03*
X1130400D02*
D03*
X1105000D02*
D03*
X1079600D02*
D03*
X1054200D02*
D03*
X1028800D02*
D03*
X1003400D02*
D03*
X1195000Y664200D02*
D03*
Y689600D02*
D03*
Y715000D02*
D03*
Y740400D02*
D03*
Y765800D02*
D03*
Y791200D02*
D03*
Y816600D02*
D03*
Y842000D02*
D03*
D48*
X770000Y580000D02*
D03*
Y655000D02*
D03*
D49*
X750000Y580000D02*
D03*
Y655000D02*
D03*
D50*
X979866Y685053D02*
D03*
X1020000Y680000D02*
D03*
X992600D02*
D03*
X1006300D02*
D03*
X1080000Y820000D02*
D03*
X950000Y990000D02*
D03*
X955000Y760000D02*
D03*
X935000D02*
D03*
X800000Y700000D02*
D03*
Y670000D02*
D03*
X957770Y773417D02*
D03*
X930000Y980000D02*
D03*
X950687Y872270D02*
D03*
X1070000Y800000D02*
D03*
X900000Y925000D02*
D03*
X765000Y795000D02*
D03*
X960000Y939950D02*
D03*
X1020000Y742674D02*
D03*
X1005000Y775000D02*
D03*
X1020000Y774380D02*
D03*
X885000Y725000D02*
D03*
X980673Y715066D02*
D03*
X1053475Y613101D02*
D03*
X957539Y637895D02*
D03*
X985000Y575000D02*
D03*
X695000Y735000D02*
D03*
X753542Y736350D02*
D03*
X705000Y675000D02*
D03*
X805000Y600000D02*
D03*
Y615000D02*
D03*
X720643Y676050D02*
D03*
X850000Y625000D02*
D03*
X840000Y675000D02*
D03*
X1020000Y890000D02*
D03*
X1115000Y925000D02*
D03*
X1070000Y845000D02*
D03*
X989876Y819864D02*
D03*
X1005000Y895000D02*
D03*
X999093Y830000D02*
D03*
X1045000Y855000D02*
D03*
X1012746Y831127D02*
D03*
X1025000Y825000D02*
D03*
X985000Y700000D02*
D03*
X920000Y825000D02*
D03*
X1035000Y680000D02*
D03*
X1065000Y675000D02*
D03*
X1045000Y690000D02*
D03*
X1065000Y695000D02*
D03*
X1080000Y715000D02*
D03*
X850000Y640000D02*
D03*
X695000Y825000D02*
D03*
X755000Y770000D02*
D03*
M02*
