G04*
G04 #@! TF.GenerationSoftware,Altium Limited,Altium Designer Develop,26.2.0 (10)*
G04*
G04 Layer_Color=65535*
%FSLAX44Y44*%
%MOMM*%
G71*
G04*
G04 #@! TF.SameCoordinates,717AC42B-03D0-4F6F-A9B9-6B288F40F31D*
G04*
G04*
G04 #@! TF.FilePolarity,Positive*
G04*
G01*
G75*
%ADD10C,0.6000*%
%ADD11C,0.2500*%
%ADD12C,0.2000*%
%ADD13C,0.1500*%
D10*
X1009500Y773500D02*
G03*
X1009500Y773500I-3000J0D01*
G01*
D11*
X983750Y791500D02*
G03*
X983750Y791500I-1250J0D01*
G01*
X834500Y797500D02*
G03*
X834500Y797500I-1250J0D01*
G01*
X833750Y839250D02*
G03*
X833750Y839250I-1250J0D01*
G01*
X1003750Y910000D02*
G03*
X1003750Y910000I-1250J0D01*
G01*
Y875000D02*
G03*
X1003750Y875000I-1250J0D01*
G01*
X806250Y812500D02*
G03*
X806250Y812500I-1250J0D01*
G01*
X748400Y782650D02*
G03*
X748400Y782650I-1250J0D01*
G01*
X1072500Y582495D02*
X1082497Y567500D01*
Y582495D02*
X1072500Y567500D01*
X1087495D02*
Y577497D01*
X1092494Y582495D01*
X1097492Y577497D01*
Y567500D01*
Y574997D01*
X1087495D01*
X1102490Y567500D02*
Y582495D01*
X1107489Y577497D01*
X1112487Y582495D01*
Y567500D01*
X1132480D02*
Y577497D01*
X1137479Y582495D01*
X1142477Y577497D01*
Y567500D01*
Y574997D01*
X1132480D01*
X1147476Y582495D02*
X1157472D01*
X1152474D01*
Y567500D01*
X1162471D02*
Y582495D01*
X1167469Y577497D01*
X1172468Y582495D01*
Y567500D01*
X1187463Y582495D02*
X1177466D01*
Y567500D01*
X1187463D01*
X1177466Y574997D02*
X1182464D01*
X1202458Y579996D02*
X1199959Y582495D01*
X1194960D01*
X1192461Y579996D01*
Y569999D01*
X1194960Y567500D01*
X1199959D01*
X1202458Y569999D01*
Y574997D01*
X1197459D01*
X1207456Y567500D02*
Y577497D01*
X1212455Y582495D01*
X1217453Y577497D01*
Y567500D01*
Y574997D01*
X1207456D01*
D12*
X848825Y672150D02*
G03*
X855175Y672150I3175J0D01*
G01*
X787500Y580000D02*
G03*
X787500Y580000I-27500J0D01*
G01*
Y655000D02*
G03*
X787500Y655000I-27500J0D01*
G01*
X954700Y555100D02*
X959700D01*
X957250Y552500D02*
Y557500D01*
X1104250Y677750D02*
X1105750D01*
X1104250Y692250D02*
X1105750D01*
X996500Y726500D02*
X1053500D01*
X996500Y783500D02*
X1053500D01*
Y726500D02*
Y783500D01*
X996500Y726500D02*
Y783500D01*
X821250Y768500D02*
X821750D01*
X798250D02*
X798750D01*
X776500Y731500D02*
Y768500D01*
X832750Y731500D02*
X843500D01*
X776500D02*
X787250D01*
X843500D02*
Y768500D01*
X840850Y672150D02*
X848825D01*
X855175D02*
X863150D01*
Y570550D02*
Y672150D01*
X840850Y570550D02*
X863150D01*
X840850D02*
Y672150D01*
X844000Y855000D02*
X866000D01*
X885000Y864000D02*
Y906000D01*
X844000Y915000D02*
X866000D01*
X825000Y864000D02*
Y906000D01*
X1019277Y578750D02*
X1020723D01*
X1019277Y591250D02*
X1020723D01*
X1019277Y613750D02*
X1020723D01*
X1019277Y626250D02*
X1020723D01*
X1104250Y707750D02*
X1105750D01*
X1104250Y722250D02*
X1105750D01*
X1104250Y737750D02*
X1105750D01*
X1104250Y752250D02*
X1105750D01*
X1104250Y767750D02*
X1105750D01*
X1104250Y782250D02*
X1105750D01*
X853500Y687750D02*
X855000D01*
X853500Y702250D02*
X855000D01*
X935000Y617750D02*
X936500D01*
X935000Y632250D02*
X936500D01*
X701100Y798650D02*
X715900D01*
X661600D02*
X675600D01*
X661600Y701350D02*
Y798650D01*
X701100Y701350D02*
X715900D01*
X661600D02*
X675600D01*
X704750Y854000D02*
X715250D01*
X704750Y836000D02*
X715250D01*
X924000Y844250D02*
X946000D01*
X924000Y865750D02*
X946000D01*
X915750Y697250D02*
X925750D01*
X954250D02*
X964250D01*
Y812750D01*
X915750D02*
X925750D01*
X954250D02*
X964250D01*
X915750Y697250D02*
Y812750D01*
D13*
X743500Y976500D02*
X738168D01*
X735503Y979166D01*
X738168Y981832D01*
X743500D01*
X739501D01*
Y976500D01*
X743500Y988496D02*
X735503D01*
X739501Y984497D01*
Y989829D01*
X1206500Y669497D02*
Y661500D01*
X1210499D01*
X1211832Y662833D01*
Y668165D01*
X1210499Y669497D01*
X1206500D01*
X1214497D02*
X1219829D01*
Y668165D01*
X1214497Y662833D01*
Y661500D01*
X1206500Y694497D02*
Y686500D01*
X1210499D01*
X1211832Y687833D01*
Y693165D01*
X1210499Y694497D01*
X1206500D01*
X1214497Y693165D02*
X1215830Y694497D01*
X1218496D01*
X1219829Y693165D01*
Y691832D01*
X1218496Y690499D01*
X1219829Y689166D01*
Y687833D01*
X1218496Y686500D01*
X1215830D01*
X1214497Y687833D01*
Y689166D01*
X1215830Y690499D01*
X1214497Y691832D01*
Y693165D01*
X1215830Y690499D02*
X1218496D01*
X1206500Y719497D02*
Y711500D01*
X1210499D01*
X1211832Y712833D01*
Y718165D01*
X1210499Y719497D01*
X1206500D01*
X1214497Y712833D02*
X1215830Y711500D01*
X1218496D01*
X1219829Y712833D01*
Y718165D01*
X1218496Y719497D01*
X1215830D01*
X1214497Y718165D01*
Y716832D01*
X1215830Y715499D01*
X1219829D01*
X1206500Y744497D02*
Y736500D01*
X1210499D01*
X1211832Y737833D01*
Y743165D01*
X1210499Y744497D01*
X1206500D01*
X1214497Y736500D02*
X1217163D01*
X1215830D01*
Y744497D01*
X1214497Y743165D01*
X1221162D02*
X1222495Y744497D01*
X1225161D01*
X1226494Y743165D01*
Y737833D01*
X1225161Y736500D01*
X1222495D01*
X1221162Y737833D01*
Y743165D01*
X1206500Y769497D02*
Y761500D01*
X1210499D01*
X1211832Y762833D01*
Y768165D01*
X1210499Y769497D01*
X1206500D01*
X1214497Y761500D02*
X1217163D01*
X1215830D01*
Y769497D01*
X1214497Y768165D01*
X1221162Y761500D02*
X1223828D01*
X1222495D01*
Y769497D01*
X1221162Y768165D01*
X1206500Y794497D02*
Y786500D01*
X1210499D01*
X1211832Y787833D01*
Y793165D01*
X1210499Y794497D01*
X1206500D01*
X1214497Y786500D02*
X1217163D01*
X1215830D01*
Y794497D01*
X1214497Y793165D01*
X1226494Y786500D02*
X1221162D01*
X1226494Y791832D01*
Y793165D01*
X1225161Y794497D01*
X1222495D01*
X1221162Y793165D01*
X1206500Y819497D02*
Y811500D01*
X1210499D01*
X1211832Y812833D01*
Y818165D01*
X1210499Y819497D01*
X1206500D01*
X1214497Y811500D02*
X1217163D01*
X1215830D01*
Y819497D01*
X1214497Y818165D01*
X1221162D02*
X1222495Y819497D01*
X1225161D01*
X1226494Y818165D01*
Y816832D01*
X1225161Y815499D01*
X1223828D01*
X1225161D01*
X1226494Y814166D01*
Y812833D01*
X1225161Y811500D01*
X1222495D01*
X1221162Y812833D01*
X1218500Y836500D02*
X1210503D01*
Y840499D01*
X1211835Y841832D01*
X1214501D01*
X1215834Y840499D01*
Y836500D01*
Y839166D02*
X1218500Y841832D01*
X1210503Y849829D02*
Y844497D01*
X1218500D01*
Y849829D01*
X1214501Y844497D02*
Y847163D01*
X1211835Y857827D02*
X1210503Y856494D01*
Y853828D01*
X1211835Y852495D01*
X1213168D01*
X1214501Y853828D01*
Y856494D01*
X1215834Y857827D01*
X1217167D01*
X1218500Y856494D01*
Y853828D01*
X1217167Y852495D01*
X1210503Y865824D02*
Y860492D01*
X1218500D01*
Y865824D01*
X1214501Y860492D02*
Y863158D01*
X1210503Y868490D02*
Y873821D01*
Y871155D01*
X1218500D01*
X973335Y538999D02*
Y531001D01*
X977334D01*
X978667Y532334D01*
Y537666D01*
X977334Y538999D01*
X973335D01*
X985332Y531001D02*
Y538999D01*
X981333Y535000D01*
X986665D01*
X1043335Y651001D02*
Y658999D01*
X1047334D01*
X1048667Y657666D01*
Y655000D01*
X1047334Y653667D01*
X1043335D01*
X1046001D02*
X1048667Y651001D01*
X1051333Y658999D02*
X1056665D01*
Y657666D01*
X1051333Y652334D01*
Y651001D01*
X1183500Y976500D02*
X1178168D01*
X1175503Y979166D01*
X1178168Y981832D01*
X1183500D01*
X1179501D01*
Y976500D01*
X1175503Y989829D02*
Y984497D01*
X1179501D01*
X1178168Y987163D01*
Y988496D01*
X1179501Y989829D01*
X1182167D01*
X1183500Y988496D01*
Y985830D01*
X1182167Y984497D01*
X1158500Y976500D02*
X1150503D01*
Y980499D01*
X1151835Y981832D01*
X1154501D01*
X1155834Y980499D01*
Y976500D01*
Y979166D02*
X1158500Y981832D01*
X1150503Y984497D02*
X1158500Y989829D01*
X1150503D02*
X1158500Y984497D01*
X1125503Y976500D02*
Y981832D01*
Y979166D01*
X1133500D01*
X1125503Y984497D02*
X1133500Y989829D01*
X1125503D02*
X1133500Y984497D01*
X1100503Y976500D02*
X1108500D01*
Y980499D01*
X1107167Y981832D01*
X1101835D01*
X1100503Y980499D01*
Y976500D01*
X1108500Y989829D02*
Y984497D01*
X1103168Y989829D01*
X1101835D01*
X1100503Y988496D01*
Y985830D01*
X1101835Y984497D01*
X1075503Y976500D02*
X1083500D01*
Y980499D01*
X1082167Y981832D01*
X1076835D01*
X1075503Y980499D01*
Y976500D01*
X1076835Y984497D02*
X1075503Y985830D01*
Y988496D01*
X1076835Y989829D01*
X1078168D01*
X1079501Y988496D01*
Y987163D01*
Y988496D01*
X1080834Y989829D01*
X1082167D01*
X1083500Y988496D01*
Y985830D01*
X1082167Y984497D01*
X1050503Y976500D02*
X1058500D01*
Y980499D01*
X1057167Y981832D01*
X1051835D01*
X1050503Y980499D01*
Y976500D01*
X1058500Y988496D02*
X1050503D01*
X1054501Y984497D01*
Y989829D01*
X1025503Y976500D02*
X1033500D01*
Y980499D01*
X1032167Y981832D01*
X1026835D01*
X1025503Y980499D01*
Y976500D01*
Y989829D02*
Y984497D01*
X1029501D01*
X1028168Y987163D01*
Y988496D01*
X1029501Y989829D01*
X1032167D01*
X1033500Y988496D01*
Y985830D01*
X1032167Y984497D01*
X1000503Y976500D02*
X1008500D01*
Y980499D01*
X1007167Y981832D01*
X1001835D01*
X1000503Y980499D01*
Y976500D01*
Y989829D02*
X1001835Y987163D01*
X1004501Y984497D01*
X1007167D01*
X1008500Y985830D01*
Y988496D01*
X1007167Y989829D01*
X1005834D01*
X1004501Y988496D01*
Y984497D01*
X873335Y781001D02*
Y788999D01*
X877334D01*
X878667Y787666D01*
Y785000D01*
X877334Y783667D01*
X873335D01*
X876001D02*
X878667Y781001D01*
X886665Y788999D02*
X883999Y787666D01*
X881333Y785000D01*
Y782334D01*
X882666Y781001D01*
X885332D01*
X886665Y782334D01*
Y783667D01*
X885332Y785000D01*
X881333D01*
X754668Y861001D02*
Y868999D01*
X758667D01*
X760000Y867666D01*
Y865000D01*
X758667Y863667D01*
X754668D01*
X757334D02*
X760000Y861001D01*
X762666D02*
X765332D01*
X763999D01*
Y868999D01*
X762666Y867666D01*
X1133667Y687666D02*
X1132334Y688999D01*
X1129668D01*
X1128335Y687666D01*
Y682334D01*
X1129668Y681001D01*
X1132334D01*
X1133667Y682334D01*
X1140332Y681001D02*
Y688999D01*
X1136333Y685000D01*
X1141665D01*
X910503Y976500D02*
X915834D01*
X918500Y979166D01*
X915834Y981832D01*
X910503D01*
X918500Y984497D02*
Y987163D01*
Y985830D01*
X913168D01*
Y984497D01*
X918500Y991162D02*
X913168D01*
Y995161D01*
X914501Y996494D01*
X918500D01*
X886835Y981832D02*
X885503Y980499D01*
Y977833D01*
X886835Y976500D01*
X892167D01*
X893500Y977833D01*
Y980499D01*
X892167Y981832D01*
X889501D01*
Y979166D01*
X893500Y984497D02*
X885503D01*
X893500Y989829D01*
X885503D01*
Y992495D02*
X893500D01*
Y996494D01*
X892167Y997827D01*
X886835D01*
X885503Y996494D01*
Y992495D01*
X860503Y981832D02*
Y976500D01*
X864501D01*
X863168Y979166D01*
Y980499D01*
X864501Y981832D01*
X867167D01*
X868500Y980499D01*
Y977833D01*
X867167Y976500D01*
X860503Y984497D02*
X865834D01*
X868500Y987163D01*
X865834Y989829D01*
X860503D01*
X843500Y976500D02*
X838168D01*
X835503Y979166D01*
X838168Y981832D01*
X843500D01*
X839501D01*
Y976500D01*
X836835Y984497D02*
X835503Y985830D01*
Y988496D01*
X836835Y989829D01*
X842167D01*
X843500Y988496D01*
Y985830D01*
X842167Y984497D01*
X836835D01*
X818500Y976500D02*
X813168D01*
X810503Y979166D01*
X813168Y981832D01*
X818500D01*
X814501D01*
Y976500D01*
X818500Y984497D02*
Y987163D01*
Y985830D01*
X810503D01*
X811835Y984497D01*
X793500Y976500D02*
X788168D01*
X785503Y979166D01*
X788168Y981832D01*
X793500D01*
X789501D01*
Y976500D01*
X793500Y989829D02*
Y984497D01*
X788168Y989829D01*
X786835D01*
X785503Y988496D01*
Y985830D01*
X786835Y984497D01*
X768500Y976500D02*
X763168D01*
X760503Y979166D01*
X763168Y981832D01*
X768500D01*
X764501D01*
Y976500D01*
X761835Y984497D02*
X760503Y985830D01*
Y988496D01*
X761835Y989829D01*
X763168D01*
X764501Y988496D01*
Y987163D01*
Y988496D01*
X765834Y989829D01*
X767167D01*
X768500Y988496D01*
Y985830D01*
X767167Y984497D01*
X849668Y748999D02*
Y742334D01*
X851001Y741001D01*
X853667D01*
X855000Y742334D01*
Y748999D01*
X857666Y741001D02*
X860332D01*
X858999D01*
Y748999D01*
X857666Y747666D01*
X818999Y850344D02*
X811001D01*
Y854343D01*
X812334Y855676D01*
X815000D01*
X816333Y854343D01*
Y850344D01*
Y853010D02*
X818999Y855676D01*
X811001Y863674D02*
Y858342D01*
X818999D01*
Y863674D01*
X815000Y858342D02*
Y861008D01*
X812334Y871671D02*
X811001Y870338D01*
Y867672D01*
X812334Y866339D01*
X813667D01*
X815000Y867672D01*
Y870338D01*
X816333Y871671D01*
X817666D01*
X818999Y870338D01*
Y867672D01*
X817666Y866339D01*
X811001Y879668D02*
Y874337D01*
X818999D01*
Y879668D01*
X815000Y874337D02*
Y877003D01*
X811001Y882334D02*
Y887666D01*
Y885000D01*
X818999D01*
X811001Y898329D02*
X818999D01*
Y902328D01*
X817666Y903661D01*
X816333D01*
X815000Y902328D01*
Y898329D01*
Y902328D01*
X813667Y903661D01*
X812334D01*
X811001Y902328D01*
Y898329D01*
Y906327D02*
Y911658D01*
Y908992D01*
X818999D01*
Y914324D02*
X811001D01*
X818999Y919656D01*
X811001D01*
X958335Y586001D02*
Y593999D01*
X962334D01*
X963667Y592666D01*
Y590000D01*
X962334Y588667D01*
X958335D01*
X961001D02*
X963667Y586001D01*
X971665Y593999D02*
X966333D01*
Y590000D01*
X968999Y591333D01*
X970332D01*
X971665Y590000D01*
Y587334D01*
X970332Y586001D01*
X967666D01*
X966333Y587334D01*
X1118335Y636001D02*
Y643999D01*
X1122334D01*
X1123667Y642666D01*
Y640000D01*
X1122334Y638667D01*
X1118335D01*
X1121001D02*
X1123667Y636001D01*
X1131665D02*
X1126333D01*
X1131665Y641333D01*
Y642666D01*
X1130332Y643999D01*
X1127666D01*
X1126333Y642666D01*
X1013335Y596001D02*
Y603999D01*
X1017334D01*
X1018667Y602666D01*
Y600000D01*
X1017334Y598667D01*
X1013335D01*
X1016001D02*
X1018667Y596001D01*
X1021333Y602666D02*
X1022666Y603999D01*
X1025332D01*
X1026665Y602666D01*
Y601333D01*
X1025332Y600000D01*
X1026665Y598667D01*
Y597334D01*
X1025332Y596001D01*
X1022666D01*
X1021333Y597334D01*
Y598667D01*
X1022666Y600000D01*
X1021333Y601333D01*
Y602666D01*
X1022666Y600000D02*
X1025332D01*
X1013335Y631001D02*
Y638999D01*
X1017334D01*
X1018667Y637666D01*
Y635000D01*
X1017334Y633667D01*
X1013335D01*
X1016001D02*
X1018667Y631001D01*
X1021333Y632334D02*
X1022666Y631001D01*
X1025332D01*
X1026665Y632334D01*
Y637666D01*
X1025332Y638999D01*
X1022666D01*
X1021333Y637666D01*
Y636333D01*
X1022666Y635000D01*
X1026665D01*
X1133667Y717666D02*
X1132334Y718999D01*
X1129668D01*
X1128335Y717666D01*
Y712334D01*
X1129668Y711001D01*
X1132334D01*
X1133667Y712334D01*
X1136333Y717666D02*
X1137666Y718999D01*
X1140332D01*
X1141665Y717666D01*
Y716333D01*
X1140332Y715000D01*
X1138999D01*
X1140332D01*
X1141665Y713667D01*
Y712334D01*
X1140332Y711001D01*
X1137666D01*
X1136333Y712334D01*
X1133667Y747666D02*
X1132334Y748999D01*
X1129668D01*
X1128335Y747666D01*
Y742334D01*
X1129668Y741001D01*
X1132334D01*
X1133667Y742334D01*
X1141665Y741001D02*
X1136333D01*
X1141665Y746333D01*
Y747666D01*
X1140332Y748999D01*
X1137666D01*
X1136333Y747666D01*
X1135000Y777666D02*
X1133667Y778999D01*
X1131001D01*
X1129668Y777666D01*
Y772334D01*
X1131001Y771001D01*
X1133667D01*
X1135000Y772334D01*
X1137666Y771001D02*
X1140332D01*
X1138999D01*
Y778999D01*
X1137666Y777666D01*
X878667Y697666D02*
X877334Y698999D01*
X874668D01*
X873335Y697666D01*
Y692334D01*
X874668Y691001D01*
X877334D01*
X878667Y692334D01*
X881333Y698999D02*
X886665D01*
Y697666D01*
X881333Y692334D01*
Y691001D01*
X958667Y627666D02*
X957334Y628999D01*
X954668D01*
X953335Y627666D01*
Y622334D01*
X954668Y621001D01*
X957334D01*
X958667Y622334D01*
X961333Y627666D02*
X962666Y628999D01*
X965332D01*
X966665Y627666D01*
Y626333D01*
X965332Y625000D01*
X966665Y623667D01*
Y622334D01*
X965332Y621001D01*
X962666D01*
X961333Y622334D01*
Y623667D01*
X962666Y625000D01*
X961333Y626333D01*
Y627666D01*
X962666Y625000D02*
X965332D01*
X960335Y657666D02*
X959002Y658999D01*
X956336D01*
X955003Y657666D01*
Y652334D01*
X956336Y651001D01*
X959002D01*
X960335Y652334D01*
X963001Y651001D02*
X965666D01*
X964334D01*
Y658999D01*
X963001Y657666D01*
X969665D02*
X970998Y658999D01*
X973664D01*
X974997Y657666D01*
Y652334D01*
X973664Y651001D01*
X970998D01*
X969665Y652334D01*
Y657666D01*
X1093335Y906001D02*
Y913999D01*
X1097334D01*
X1098667Y912666D01*
Y910000D01*
X1097334Y908667D01*
X1093335D01*
X1096001D02*
X1098667Y906001D01*
X1105332D02*
Y913999D01*
X1101333Y910000D01*
X1106665D01*
X978335Y913999D02*
Y906001D01*
X982334D01*
X983667Y907334D01*
Y912666D01*
X982334Y913999D01*
X978335D01*
X986333Y912666D02*
X987666Y913999D01*
X990332D01*
X991665Y912666D01*
Y911333D01*
X990332Y910000D01*
X988999D01*
X990332D01*
X991665Y908667D01*
Y907334D01*
X990332Y906001D01*
X987666D01*
X986333Y907334D01*
X978335Y878999D02*
Y871001D01*
X982334D01*
X983667Y872334D01*
Y877666D01*
X982334Y878999D01*
X978335D01*
X991665Y871001D02*
X986333D01*
X991665Y876333D01*
Y877666D01*
X990332Y878999D01*
X987666D01*
X986333Y877666D01*
X1093335Y871001D02*
Y878999D01*
X1097334D01*
X1098667Y877666D01*
Y875000D01*
X1097334Y873667D01*
X1093335D01*
X1096001D02*
X1098667Y871001D01*
X1101333Y877666D02*
X1102666Y878999D01*
X1105332D01*
X1106665Y877666D01*
Y876333D01*
X1105332Y875000D01*
X1103999D01*
X1105332D01*
X1106665Y873667D01*
Y872334D01*
X1105332Y871001D01*
X1102666D01*
X1101333Y872334D01*
X819668Y828999D02*
Y821001D01*
X823667D01*
X825000Y822334D01*
Y827666D01*
X823667Y828999D01*
X819668D01*
X827666Y821001D02*
X830332D01*
X828999D01*
Y828999D01*
X827666Y827666D01*
X691339Y813999D02*
Y807334D01*
X692672Y806001D01*
X695338D01*
X696671Y807334D01*
Y813999D01*
X704668Y812666D02*
X703335Y813999D01*
X700670D01*
X699337Y812666D01*
Y811333D01*
X700670Y810000D01*
X703335D01*
X704668Y808667D01*
Y807334D01*
X703335Y806001D01*
X700670D01*
X699337Y807334D01*
X707334Y813999D02*
Y806001D01*
X711333D01*
X712666Y807334D01*
Y808667D01*
X711333Y810000D01*
X707334D01*
X711333D01*
X712666Y811333D01*
Y812666D01*
X711333Y813999D01*
X707334D01*
X715332Y810000D02*
X720663D01*
X728661Y812666D02*
X727328Y813999D01*
X724662D01*
X723329Y812666D01*
Y807334D01*
X724662Y806001D01*
X727328D01*
X728661Y807334D01*
X710000Y863999D02*
X704668D01*
Y860000D01*
X707334D01*
X704668D01*
Y856001D01*
X712666D02*
X715332D01*
X713999D01*
Y863999D01*
X712666Y862666D01*
X708667Y582666D02*
X707334Y583999D01*
X704668D01*
X703335Y582666D01*
Y577334D01*
X704668Y576001D01*
X707334D01*
X708667Y577334D01*
X716665Y583999D02*
X713999Y582666D01*
X711333Y580000D01*
Y577334D01*
X712666Y576001D01*
X715332D01*
X716665Y577334D01*
Y578667D01*
X715332Y580000D01*
X711333D01*
X790500Y578999D02*
X795832D01*
X793166Y581665D02*
Y576333D01*
X708667Y657666D02*
X707334Y658999D01*
X704668D01*
X703335Y657666D01*
Y652334D01*
X704668Y651001D01*
X707334D01*
X708667Y652334D01*
X716665Y658999D02*
X711333D01*
Y655000D01*
X713999Y656333D01*
X715332D01*
X716665Y655000D01*
Y652334D01*
X715332Y651001D01*
X712666D01*
X711333Y652334D01*
X790500Y653999D02*
X795832D01*
X793166Y656665D02*
Y651333D01*
X903667Y857666D02*
X902334Y858999D01*
X899668D01*
X898335Y857666D01*
Y852334D01*
X899668Y851001D01*
X902334D01*
X903667Y852334D01*
X906333D02*
X907666Y851001D01*
X910332D01*
X911665Y852334D01*
Y857666D01*
X910332Y858999D01*
X907666D01*
X906333Y857666D01*
Y856333D01*
X907666Y855000D01*
X911665D01*
X894668Y828999D02*
Y827666D01*
X897334Y825000D01*
X900000Y827666D01*
Y828999D01*
X897334Y825000D02*
Y821001D01*
X902666D02*
X905332D01*
X903999D01*
Y828999D01*
X902666Y827666D01*
M02*
