G04*
G04 #@! TF.GenerationSoftware,Altium Limited,Altium Designer Develop,26.2.0 (10)*
G04*
G04 Layer_Color=8388736*
%FSLAX44Y44*%
%MOMM*%
G71*
G04*
G04 #@! TF.SameCoordinates,717AC42B-03D0-4F6F-A9B9-6B288F40F31D*
G04*
G04*
G04 #@! TF.FilePolarity,Negative*
G04*
G01*
G75*
%ADD14R,1.1938X1.1938*%
%ADD15R,1.2552X1.5562*%
%ADD16R,1.5562X1.2552*%
%ADD17R,0.9500X1.4000*%
%ADD20R,1.5000X2.0000*%
%ADD21R,1.0000X1.8000*%
%ADD22R,3.8000X2.0000*%
%ADD24R,1.1587X1.5082*%
%ADD25R,0.9500X1.3500*%
%ADD26R,1.2000X1.2000*%
%ADD27R,1.1500X0.6000*%
%ADD29R,1.2000X1.2000*%
%ADD30R,1.1500X0.3000*%
%ADD31R,2.1000X5.6000*%
%ADD32O,0.8032X2.1532*%
%ADD33O,2.1532X0.8032*%
%ADD34O,1.7032X0.8032*%
%ADD35R,1.7032X0.8032*%
%ADD36C,1.8032*%
G04:AMPARAMS|DCode=37|XSize=1.5032mm|YSize=1.5032mm|CornerRadius=0.4266mm|HoleSize=0mm|Usage=FLASHONLY|Rotation=0.000|XOffset=0mm|YOffset=0mm|HoleType=Round|Shape=RoundedRectangle|*
%AMROUNDEDRECTD37*
21,1,1.5032,0.6500,0,0,0.0*
21,1,0.6500,1.5032,0,0,0.0*
1,1,0.8532,0.3250,-0.3250*
1,1,0.8532,-0.3250,-0.3250*
1,1,0.8532,-0.3250,0.3250*
1,1,0.8532,0.3250,0.3250*
%
%ADD37ROUNDEDRECTD37*%
%ADD38C,1.5500*%
%ADD39C,1.5032*%
%ADD40R,1.5500X1.5500*%
%ADD41C,0.6500*%
G04:AMPARAMS|DCode=42|XSize=1mm|YSize=2.1mm|CornerRadius=0.5mm|HoleSize=0mm|Usage=FLASHONLY|Rotation=270.000|XOffset=0mm|YOffset=0mm|HoleType=Round|Shape=RoundedRectangle|*
%AMROUNDEDRECTD42*
21,1,1.0000,1.1000,0,0,270.0*
21,1,0.0000,2.1000,0,0,270.0*
1,1,1.0000,-0.5500,0.0000*
1,1,1.0000,-0.5500,0.0000*
1,1,1.0000,0.5500,0.0000*
1,1,1.0000,0.5500,0.0000*
%
%ADD42ROUNDEDRECTD42*%
G04:AMPARAMS|DCode=43|XSize=1mm|YSize=1.8mm|CornerRadius=0.5mm|HoleSize=0mm|Usage=FLASHONLY|Rotation=270.000|XOffset=0mm|YOffset=0mm|HoleType=Round|Shape=RoundedRectangle|*
%AMROUNDEDRECTD43*
21,1,1.0000,0.8000,0,0,270.0*
21,1,0.0000,1.8000,0,0,270.0*
1,1,1.0000,-0.4000,0.0000*
1,1,1.0000,-0.4000,0.0000*
1,1,1.0000,0.4000,0.0000*
1,1,1.0000,0.4000,0.0000*
%
%ADD43ROUNDEDRECTD43*%
%ADD44C,1.4732*%
D14*
X990287Y555000D02*
D03*
X969713D02*
D03*
D15*
X1030255Y655000D02*
D03*
X1009745D02*
D03*
X750000Y845000D02*
D03*
X770510D02*
D03*
X1080510Y910000D02*
D03*
X1080255Y875000D02*
D03*
X950255Y590000D02*
D03*
X929745D02*
D03*
X1060000Y910000D02*
D03*
X1059745Y875000D02*
D03*
D16*
X880000Y770510D02*
D03*
Y750000D02*
D03*
X1100000Y650255D02*
D03*
Y629745D02*
D03*
D17*
X1114250Y685000D02*
D03*
X1095750D02*
D03*
Y775000D02*
D03*
Y745000D02*
D03*
Y715000D02*
D03*
X1114250Y775000D02*
D03*
Y715000D02*
D03*
Y745000D02*
D03*
X845000Y695000D02*
D03*
X863500D02*
D03*
X945000Y625000D02*
D03*
X926500D02*
D03*
D20*
X810000Y781500D02*
D03*
X833000D02*
D03*
X787000D02*
D03*
D21*
X724000Y845000D02*
D03*
X696000D02*
D03*
D22*
X810000Y718500D02*
D03*
D24*
X1030267Y585000D02*
D03*
Y620000D02*
D03*
X1009733Y585000D02*
D03*
Y620000D02*
D03*
D25*
X942500Y855000D02*
D03*
Y655000D02*
D03*
X927500D02*
D03*
Y855000D02*
D03*
D26*
X805000Y824500D02*
D03*
Y845500D02*
D03*
D27*
X735900Y782000D02*
D03*
Y718000D02*
D03*
Y726000D02*
D03*
Y774000D02*
D03*
D29*
X1035500Y910000D02*
D03*
X1014500D02*
D03*
X1035500Y875000D02*
D03*
X1014500D02*
D03*
D30*
X735900Y732500D02*
D03*
Y737500D02*
D03*
Y742500D02*
D03*
Y747500D02*
D03*
Y752500D02*
D03*
Y757500D02*
D03*
Y762500D02*
D03*
Y767500D02*
D03*
D31*
X940000Y802500D02*
D03*
Y707500D02*
D03*
D32*
X1045000Y797500D02*
D03*
X1053000D02*
D03*
X1037000D02*
D03*
X997000D02*
D03*
X1005000D02*
D03*
X1013000D02*
D03*
X1021000D02*
D03*
X1029000D02*
D03*
X1053000Y712500D02*
D03*
X1045000D02*
D03*
X1037000D02*
D03*
X1029000D02*
D03*
X1021000D02*
D03*
X1013000D02*
D03*
X1005000D02*
D03*
X997000D02*
D03*
D33*
X1067500Y775000D02*
D03*
Y751000D02*
D03*
X982500Y759000D02*
D03*
Y743000D02*
D03*
X1067500Y735000D02*
D03*
Y759000D02*
D03*
X982500Y767000D02*
D03*
Y751000D02*
D03*
X1067500Y783000D02*
D03*
Y767000D02*
D03*
Y743000D02*
D03*
Y727000D02*
D03*
X982500D02*
D03*
Y735000D02*
D03*
Y775000D02*
D03*
Y783000D02*
D03*
D34*
X879000Y665800D02*
D03*
X825000Y653100D02*
D03*
Y640400D02*
D03*
Y627700D02*
D03*
Y615000D02*
D03*
Y602300D02*
D03*
Y589600D02*
D03*
Y576900D02*
D03*
X879000Y653100D02*
D03*
Y640400D02*
D03*
Y627700D02*
D03*
Y615000D02*
D03*
Y602300D02*
D03*
Y589600D02*
D03*
Y576900D02*
D03*
D35*
X825000Y665800D02*
D03*
D36*
X915400Y965000D02*
D03*
X890000D02*
D03*
X864600D02*
D03*
X839200D02*
D03*
X813800D02*
D03*
X788400D02*
D03*
X763000D02*
D03*
X737600D02*
D03*
X1181200D02*
D03*
X1155800D02*
D03*
X1130400D02*
D03*
X1105000D02*
D03*
X1079600D02*
D03*
X1054200D02*
D03*
X1028800D02*
D03*
X1003400D02*
D03*
X1195000Y664200D02*
D03*
Y689600D02*
D03*
Y715000D02*
D03*
Y740400D02*
D03*
Y765800D02*
D03*
Y791200D02*
D03*
Y816600D02*
D03*
Y842000D02*
D03*
D37*
X770000Y580000D02*
D03*
Y655000D02*
D03*
D38*
X877500Y917500D02*
D03*
X832500D02*
D03*
X877500Y852500D02*
D03*
D39*
X750000Y580000D02*
D03*
Y655000D02*
D03*
D40*
X832500Y852500D02*
D03*
D41*
X725150Y721100D02*
D03*
Y778900D02*
D03*
D42*
X730150Y706800D02*
D03*
Y793200D02*
D03*
D43*
X688350Y706800D02*
D03*
Y793200D02*
D03*
D44*
X979866Y685053D02*
D03*
X1020000Y680000D02*
D03*
X992600D02*
D03*
X1006300D02*
D03*
X1080000Y820000D02*
D03*
X950000Y990000D02*
D03*
X955000Y760000D02*
D03*
X935000D02*
D03*
X800000Y700000D02*
D03*
Y670000D02*
D03*
X957770Y773417D02*
D03*
X930000Y980000D02*
D03*
X950687Y872270D02*
D03*
X1070000Y800000D02*
D03*
X900000Y925000D02*
D03*
X765000Y795000D02*
D03*
X960000Y939950D02*
D03*
X1020000Y742674D02*
D03*
X1005000Y775000D02*
D03*
X1020000Y774380D02*
D03*
X885000Y725000D02*
D03*
X980673Y715066D02*
D03*
X1053475Y613101D02*
D03*
X957539Y637895D02*
D03*
X985000Y575000D02*
D03*
X695000Y735000D02*
D03*
X753542Y736350D02*
D03*
X705000Y675000D02*
D03*
X805000Y600000D02*
D03*
Y615000D02*
D03*
X720643Y676050D02*
D03*
X850000Y625000D02*
D03*
X840000Y675000D02*
D03*
X1020000Y890000D02*
D03*
X1115000Y925000D02*
D03*
X1070000Y845000D02*
D03*
X989876Y819864D02*
D03*
X1005000Y895000D02*
D03*
X999093Y830000D02*
D03*
X1045000Y855000D02*
D03*
X1012746Y831127D02*
D03*
X1025000Y825000D02*
D03*
X985000Y700000D02*
D03*
X920000Y825000D02*
D03*
X1035000Y680000D02*
D03*
X1065000Y675000D02*
D03*
X1045000Y690000D02*
D03*
X1065000Y695000D02*
D03*
X1080000Y715000D02*
D03*
X850000Y640000D02*
D03*
X695000Y825000D02*
D03*
X755000Y770000D02*
D03*
M02*
